<?xml version="1.0" encoding="utf-8"?>
<!-- Generator: Adobe Illustrator 25.0.1, SVG Export Plug-In . SVG Version: 6.00 Build 0)  -->
<svg version="1.1" xmlns="http://www.w3.org/2000/svg" xmlns:xlink="http://www.w3.org/1999/xlink" x="0px" y="0px"
	 viewBox="0 0 595.3 283.5" style="enable-background:new 0 0 595.3 283.5;" xml:space="preserve">
<style type="text/css">
	.st0{clip-path:url(#SVGID_2_);fill:#FFFFFF;}
	.st1{clip-path:url(#SVGID_4_);fill:#FFFFFF;}
	.st2{fill:#FFFFFF;}
	.st3{display:none;}
	.st4{display:inline;}
</style>
<g id="Calque_1">
	<g>
		<defs>
			<path id="SVGID_1_" d="M226.6,43.1C178,75.5,114.5,88.2,114.5,88.2c37.7-4.8,91.4-21.6,106.8-28c13.6-5.6,11.9-4.6,16.7-3.3
				C267.8,67,354,82.5,354,82.5l-110.3,1.3c0,0,110.8,4.1,187.1,5.8h39.8C319,78.5,252.2,47.8,242.3,42.2c-3-2.1-5.5-2.8-7.6-2.8
				C231,39.4,228.5,41.7,226.6,43.1"/>
		</defs>
		<use xlink:href="#SVGID_1_"  style="overflow:visible;fill:#FFFFFF;"/>
		<clipPath id="SVGID_2_">
			<use xlink:href="#SVGID_1_"  style="overflow:visible;"/>
		</clipPath>
		<rect x="114.5" y="39.4" class="st0" width="356.1" height="50.2"/>
	</g>
	<g>
		<defs>
			<path id="SVGID_3_" d="M58,200.7c-2.8,2.2-10.8,5.8-15.3,7.8h44.7c127-3,467.2-9.6,468.5-9.6c-0.7,0-105.4-0.3-218.5-0.3
				C205,198.7,60.1,199.1,58,200.7z"/>
		</defs>
		<use xlink:href="#SVGID_3_"  style="overflow:visible;fill:#FFFFFF;"/>
		<clipPath id="SVGID_4_">
			<use xlink:href="#SVGID_3_"  style="overflow:visible;"/>
		</clipPath>
		<rect x="21.2" y="198.7" class="st1" width="534.7" height="9.9"/>
	</g>
	<path class="st2" d="M357.4,102.7h29.8v80.2h-29.8V102.7z M175.6,159.3c0.1,3.6,2.7,25.8,40.1,25.8c38.2,0,42.4-17.2,42.4-34.3
		l20.5,32.7h29.8v-27.6h18.3c13.2,0,24.9-13.9,24.9-28.1c0-14.2-14.1-25.2-25.9-25.2h-43.8v43.8L254.5,103h-26v53.3
		c0,8-9.5,8.7-10.9,8.7c-2.5,0.1-12.2-0.6-12.4-8.8c-0.2-6.1,0-52.7,0-52.7l-29.5-0.1C175.7,103.5,175.5,156.1,175.6,159.3
		 M308.6,137.4l-0.3-16.6c0,0,7.1,0,10.5,0.1c3.3,0.1,7,4.8,7,7.9c0,3.1-1.8,8.1-7.6,8.3L308.6,137.4z"/>
	<g>
		<path class="st2" d="M52,222.9v0.7c-0.7,0-1.2,0.2-1.4,0.5c-0.2,0.3-0.4,0.9-0.4,1.9v8.8c0,1.3,0.1,2.4,0.3,3.1
			c0.4,1.4,1.2,2,2.3,2c1.4,0,2.4-0.7,2.9-2.2c0.3-0.8,0.4-2,0.4-3.4v-8c0-0.9-0.1-1.6-0.4-1.9c-0.2-0.4-0.7-0.6-1.4-0.6v-0.7h4v0.7
			c-0.6,0.2-1,0.4-1.2,0.6c-0.2,0.2-0.3,0.8-0.3,1.6v8.4c0,2.2-0.4,4-1.1,5.2c-0.8,1.2-1.9,1.8-3.6,1.8c-2.1,0-3.6-0.9-4.3-2.7
			c-0.4-1-0.6-2.2-0.6-3.7V226c0-1-0.1-1.6-0.3-1.9c-0.2-0.3-0.6-0.4-1.2-0.5v-0.7H52z"/>
		<path class="st2" d="M59.1,240c0.7,0,1.1-0.2,1.3-0.6c0.2-0.3,0.3-0.9,0.3-1.5v-12.4c-0.6-0.9-0.9-1.4-1-1.6
			c-0.1-0.2-0.3-0.3-0.5-0.3v-0.7H63l6.3,11h0.1v-7.7c0-0.9-0.1-1.5-0.3-1.9c-0.2-0.4-0.7-0.6-1.4-0.7v-0.7h4v0.7
			c-0.6,0.1-1,0.3-1.2,0.5c-0.2,0.2-0.3,0.7-0.3,1.5v15.5h-0.5l-8.1-14h-0.1v10.3c0,0.8,0.1,1.4,0.2,1.7c0.2,0.5,0.7,0.8,1.5,0.9
			v0.7h-4.2V240z"/>
		<path class="st2" d="M72.4,240c0.5,0,0.9-0.1,1.1-0.3c0.4-0.3,0.6-0.8,0.6-1.6v-12.7c0-0.8-0.2-1.3-0.5-1.6
			c-0.2-0.2-0.6-0.3-1.2-0.3v-0.7h6.4v0.7c-0.6,0-1,0.1-1.2,0.3c-0.4,0.3-0.5,0.8-0.5,1.6v12.7c0,0.7,0.1,1.2,0.4,1.5
			c0.3,0.2,0.7,0.4,1.3,0.4v0.7h-6.4V240z"/>
		<path class="st2" d="M91,225.1c1.3,1.8,1.9,4,1.9,6.8c0,2.8-0.6,5-1.9,6.8c-1.2,1.7-2.8,2.6-4.6,2.6c-2,0-3.6-0.9-4.8-2.8
			c-1.2-1.8-1.7-3.9-1.7-6.4c0-2.7,0.6-5,1.8-6.8c1.2-1.8,2.8-2.7,4.7-2.7C88.2,222.5,89.8,223.4,91,225.1z M89.2,236.8
			c0.3-1.3,0.4-2.9,0.4-4.9c0-2.8-0.3-4.9-0.9-6.3c-0.6-1.4-1.4-2.1-2.4-2.1c-1.4,0-2.3,1.2-2.9,3.5c-0.3,1.3-0.4,2.9-0.4,4.9
			c0,2,0.1,3.7,0.4,4.9c0.5,2.3,1.5,3.5,2.9,3.5C87.8,240.3,88.7,239.1,89.2,236.8z"/>
		<path class="st2" d="M93.9,240c0.7,0,1.1-0.2,1.3-0.6c0.2-0.3,0.3-0.9,0.3-1.5v-12.4c-0.6-0.9-0.9-1.4-1-1.6
			c-0.1-0.2-0.3-0.3-0.5-0.3v-0.7h3.9l6.3,11h0.1v-7.7c0-0.9-0.1-1.5-0.3-1.9c-0.2-0.4-0.7-0.6-1.4-0.7v-0.7h4v0.7
			c-0.6,0.1-1,0.3-1.2,0.5c-0.2,0.2-0.3,0.7-0.3,1.5v15.5h-0.5l-8.1-14h-0.1v10.3c0,0.8,0.1,1.4,0.2,1.7c0.2,0.5,0.7,0.8,1.5,0.9
			v0.7h-4.2V240z"/>
		<path class="st2" d="M111.8,240c0.7,0,1.1-0.2,1.3-0.6c0.2-0.3,0.3-0.9,0.3-1.5v-12.4c-0.6-0.9-0.9-1.4-1-1.6
			c-0.1-0.2-0.3-0.3-0.5-0.3v-0.7h3.9l6.3,11h0.1v-7.7c0-0.9-0.1-1.5-0.3-1.9c-0.2-0.4-0.7-0.6-1.4-0.7v-0.7h4v0.7
			c-0.6,0.1-1,0.3-1.2,0.5c-0.2,0.2-0.3,0.7-0.3,1.5v15.5h-0.5l-8.1-14h-0.1v10.3c0,0.8,0.1,1.4,0.2,1.7c0.2,0.5,0.7,0.8,1.5,0.9
			v0.7h-4.2V240z"/>
		<path class="st2" d="M125.1,240c0.4,0,0.8-0.3,1.1-0.9c0.2-0.3,0.4-1.1,0.7-2.2l4.1-14.4h0.5l4.1,13.8c0.5,1.5,0.8,2.5,1,3
			s0.6,0.7,1,0.6v0.7h-6V240c0.6,0,1-0.1,1.2-0.2c0.2-0.1,0.3-0.4,0.3-0.8c0-0.2,0-0.5-0.1-0.9c-0.1-0.2-0.1-0.5-0.2-0.9l-0.5-1.6
			h-4.1c-0.3,1-0.4,1.7-0.5,2c-0.2,0.7-0.2,1.2-0.2,1.5c0,0.4,0.2,0.6,0.5,0.8c0.2,0.1,0.5,0.1,0.9,0.2v0.7h-3.8V240z M132,234.5
			l-1.8-6.1h-0.2l-1.7,6.1H132z"/>
		<path class="st2" d="M137.2,222.9h11.1l0,5.3h-0.5c-0.2-1.9-0.7-3.2-1.5-3.8c-0.5-0.4-1.2-0.6-2.1-0.6v13.8c0,1,0.1,1.6,0.4,1.9
			c0.2,0.3,0.7,0.5,1.5,0.5v0.7h-6.6V240c0.7,0,1.2-0.2,1.4-0.5c0.2-0.3,0.4-1,0.4-1.9v-13.8c-0.9,0-1.6,0.2-2.1,0.6
			c-0.9,0.7-1.4,2-1.5,3.8h-0.5L137.2,222.9z"/>
		<path class="st2" d="M149.3,240c0.5,0,0.9-0.1,1.1-0.3c0.4-0.3,0.6-0.8,0.6-1.6v-12.7c0-0.8-0.2-1.3-0.5-1.6
			c-0.2-0.2-0.6-0.3-1.2-0.3v-0.7h6.4v0.7c-0.6,0-1,0.1-1.2,0.3c-0.4,0.3-0.5,0.8-0.5,1.6v12.7c0,0.7,0.1,1.2,0.4,1.5
			c0.3,0.2,0.7,0.4,1.3,0.4v0.7h-6.4V240z"/>
		<path class="st2" d="M168,225.1c1.3,1.8,1.9,4,1.9,6.8c0,2.8-0.6,5-1.9,6.8c-1.2,1.7-2.8,2.6-4.6,2.6c-2,0-3.6-0.9-4.8-2.8
			c-1.2-1.8-1.7-3.9-1.7-6.4c0-2.7,0.6-5,1.8-6.8c1.2-1.8,2.8-2.7,4.7-2.7C165.2,222.5,166.7,223.4,168,225.1z M166.2,236.8
			c0.3-1.3,0.4-2.9,0.4-4.9c0-2.8-0.3-4.9-0.9-6.3c-0.6-1.4-1.4-2.1-2.4-2.1c-1.4,0-2.3,1.2-2.9,3.5c-0.3,1.3-0.4,2.9-0.4,4.9
			c0,2,0.1,3.7,0.4,4.9c0.5,2.3,1.5,3.5,2.9,3.5C164.7,240.3,165.7,239.1,166.2,236.8z"/>
		<path class="st2" d="M170.8,240c0.7,0,1.1-0.2,1.3-0.6c0.2-0.3,0.3-0.9,0.3-1.5v-12.4c-0.6-0.9-0.9-1.4-1-1.6
			c-0.1-0.2-0.3-0.3-0.5-0.3v-0.7h3.9l6.3,11h0.1v-7.7c0-0.9-0.1-1.5-0.3-1.9c-0.2-0.4-0.7-0.6-1.4-0.7v-0.7h4v0.7
			c-0.6,0.1-1,0.3-1.2,0.5c-0.2,0.2-0.3,0.7-0.3,1.5v15.5h-0.5l-8.1-14h-0.1v10.3c0,0.8,0.1,1.4,0.2,1.7c0.2,0.5,0.7,0.8,1.5,0.9
			v0.7h-4.2V240z"/>
		<path class="st2" d="M184.2,240c0.4,0,0.8-0.3,1.1-0.9c0.2-0.3,0.4-1.1,0.7-2.2l4.1-14.4h0.5l4.1,13.8c0.5,1.5,0.8,2.5,1,3
			c0.2,0.4,0.6,0.7,1,0.6v0.7h-6V240c0.6,0,1-0.1,1.2-0.2c0.2-0.1,0.3-0.4,0.3-0.8c0-0.2,0-0.5-0.1-0.9c-0.1-0.2-0.1-0.5-0.2-0.9
			l-0.5-1.6h-4.1c-0.3,1-0.4,1.7-0.5,2c-0.2,0.7-0.2,1.2-0.2,1.5c0,0.4,0.2,0.6,0.5,0.8c0.2,0.1,0.5,0.1,0.9,0.2v0.7h-3.8V240z
			 M191.1,234.5l-1.8-6.1h-0.2l-1.7,6.1H191.1z"/>
		<path class="st2" d="M197.5,240c0.5,0,0.9-0.1,1.1-0.3c0.4-0.3,0.5-0.8,0.5-1.6v-12.7c0-0.8-0.2-1.3-0.5-1.5
			c-0.2-0.2-0.6-0.3-1.1-0.3v-0.7h6.4v0.7c-0.7,0-1.2,0.2-1.5,0.4c-0.2,0.3-0.4,0.9-0.4,1.9v12.4c0,0.6,0.1,1,0.3,1.2
			c0.2,0.2,0.6,0.3,1.2,0.3c1.1,0,2-0.3,2.8-1c0.8-0.7,1.4-2.1,1.9-4.1h0.5l-0.7,5.9h-10.7V240z"/>
		<path class="st2" d="M209.7,240.6V240c0.5,0,0.9-0.1,1.1-0.3c0.3-0.3,0.5-0.8,0.5-1.5v-12.7c0-0.8-0.2-1.3-0.5-1.5
			c-0.2-0.2-0.6-0.3-1.1-0.3v-0.7h10.6v5.3h-0.4c-0.2-1.7-0.6-2.8-1.2-3.5c-0.6-0.6-1.6-0.9-3.1-0.9c-0.6,0-0.9,0.1-1.1,0.2
			c-0.2,0.2-0.2,0.5-0.2,1v6.1c1,0,1.8-0.3,2.1-0.8c0.4-0.6,0.7-1.6,0.9-3.1h0.5v8.9h-0.5c-0.1-1.5-0.4-2.5-0.8-3.2
			c-0.4-0.6-1.1-0.9-2.2-0.9v6.4c0,0.6,0.1,0.9,0.3,1.1c0.2,0.2,0.6,0.3,1.2,0.3c1.2,0,2.1-0.3,2.9-1c0.7-0.6,1.4-1.9,2-3.7h0.5
			l-0.7,5.5H209.7z"/>
		<path class="st2" d="M226.6,240c0.5,0,0.8-0.1,1-0.3c0.4-0.3,0.5-0.7,0.5-1.4v-12.9c0-0.7-0.2-1.1-0.5-1.4c-0.2-0.2-0.5-0.3-1-0.3
			v-0.7h5.6c2.3,0,4,0.9,5.2,2.6c1.1,1.6,1.6,3.7,1.6,6.3c0,2.4-0.5,4.4-1.6,6c-1.2,1.9-2.9,2.8-5,2.8h-5.8V240z M231.3,239.4
			c0.1,0.2,0.4,0.4,0.8,0.4c1.1,0,2-0.5,2.7-1.6c0.7-1.1,1.1-3.2,1.1-6.3c0-1.9-0.2-3.4-0.6-4.8c-0.6-2.1-1.6-3.2-3.1-3.2
			c-0.5,0-0.8,0.1-0.9,0.4c-0.1,0.2-0.1,0.6-0.1,1.1v12.9C231.1,238.8,231.2,239.2,231.3,239.4z"/>
		<path class="st2" d="M239.9,240.6V240c0.5,0,0.9-0.1,1.1-0.3c0.3-0.3,0.5-0.8,0.5-1.5v-12.7c0-0.8-0.2-1.3-0.5-1.5
			c-0.2-0.2-0.6-0.3-1.1-0.3v-0.7h10.6v5.3h-0.4c-0.2-1.7-0.6-2.8-1.2-3.5c-0.6-0.6-1.6-0.9-3.1-0.9c-0.6,0-0.9,0.1-1.1,0.2
			c-0.2,0.2-0.2,0.5-0.2,1v6.1c1,0,1.8-0.3,2.1-0.8c0.4-0.6,0.7-1.6,0.9-3.1h0.5v8.9h-0.5c-0.1-1.5-0.4-2.5-0.8-3.2
			c-0.4-0.6-1.1-0.9-2.2-0.9v6.4c0,0.6,0.1,0.9,0.3,1.1s0.6,0.3,1.2,0.3c1.2,0,2.1-0.3,2.9-1c0.7-0.6,1.4-1.9,2-3.7h0.5l-0.7,5.5
			H239.9z"/>
		<path class="st2" d="M252.6,234.5h0.5c0.3,2,0.8,3.4,1.4,4.3c0.7,0.9,1.4,1.3,2.2,1.3c0.8,0,1.4-0.3,1.8-0.9
			c0.3-0.6,0.5-1.3,0.5-1.9c0-0.8-0.2-1.4-0.5-1.9c-0.2-0.3-0.7-0.7-1.5-1.3l-1.2-0.8c-1.2-0.8-2-1.7-2.5-2.5s-0.7-1.8-0.7-3
			c0-1.3,0.3-2.5,1-3.6c0.6-1.1,1.6-1.7,2.9-1.7c0.7,0,1.3,0.1,1.9,0.4c0.6,0.3,1,0.4,1.1,0.4c0.2,0,0.3-0.1,0.4-0.2
			c0.1-0.2,0.1-0.4,0.2-0.7h0.5v5.7h-0.5c-0.2-1.3-0.7-2.5-1.3-3.4c-0.6-1-1.3-1.4-2.2-1.4c-0.6,0-1.1,0.2-1.4,0.7
			c-0.4,0.5-0.5,1.1-0.5,1.8c0,0.8,0.2,1.4,0.5,1.9c0.3,0.4,1.1,1,2.2,1.8l1.4,1c0.6,0.4,1.1,0.9,1.5,1.4c0.7,1,1,2.2,1,3.6
			c0,1.3-0.4,2.6-1.1,3.7c-0.7,1.2-1.9,1.8-3.5,1.8c-0.4,0-0.7,0-1.1-0.1c-0.4-0.1-0.7-0.2-1.1-0.5l-0.4-0.2c-0.1,0-0.2-0.1-0.2-0.1
			c-0.1,0-0.1,0-0.2,0c-0.2,0-0.3,0.1-0.4,0.2c-0.1,0.2-0.1,0.4-0.2,0.7h-0.5V234.5z"/>
		<path class="st2" d="M267.1,240c0.6-0.1,1-0.2,1.2-0.5c0.2-0.3,0.3-0.9,0.3-1.9V226c0-1-0.1-1.6-0.3-1.9c-0.2-0.3-0.6-0.4-1.2-0.5
			v-0.7h5.9c1.6,0,2.8,0.4,3.6,1.1c0.8,0.7,1.2,2,1.2,3.7c0,0.9-0.2,1.7-0.5,2.4c-0.3,0.8-0.9,1.4-1.6,1.8c-0.6,0.3-1.1,0.5-1.7,0.6
			c-0.6,0.1-1.4,0.1-2.5,0.1v4.9c0,1,0.1,1.6,0.3,1.9c0.2,0.3,0.7,0.5,1.3,0.5v0.7h-6.1V240z M273.8,231.2c0.6-0.5,0.9-1.7,0.9-3.4
			c0-1.2-0.1-2.2-0.4-2.9c-0.3-0.7-0.8-1.1-1.6-1.1c-0.4,0-0.6,0.1-0.8,0.2s-0.2,0.4-0.2,0.7v7C272.7,231.8,273.4,231.6,273.8,231.2
			z"/>
		<path class="st2" d="M278.3,240c0.6,0,1-0.2,1.3-0.5c0.2-0.3,0.3-0.9,0.3-1.9V226c0-1-0.1-1.7-0.4-2c-0.2-0.2-0.6-0.3-1.2-0.4
			v-0.7h5.9c1.2,0,2.2,0.2,3,0.6c1.5,0.7,2.2,2.1,2.2,4c0,1.4-0.4,2.5-1.2,3.4c-0.6,0.6-1.2,1-1.9,1.2l3.9,7.5
			c0.1,0.2,0.2,0.3,0.3,0.4c0.1,0.1,0.3,0.1,0.4,0.1v0.6h-3.8l-4.3-8.2h0v5.1c0,0.9,0.1,1.5,0.3,1.9c0.2,0.3,0.6,0.5,1.3,0.5v0.7
			h-6.2V240z M285.5,230.9c0.5-0.5,0.8-1.5,0.8-3.2c0-1-0.1-1.8-0.3-2.4c-0.3-1-1-1.5-1.9-1.5c-0.5,0-0.8,0.1-1,0.3
			c-0.2,0.2-0.2,0.5-0.2,0.9v6.7C284.2,231.6,285,231.3,285.5,230.9z"/>
		<path class="st2" d="M303.1,225.1c1.3,1.8,1.9,4,1.9,6.8c0,2.8-0.6,5-1.9,6.8c-1.2,1.7-2.8,2.6-4.6,2.6c-2,0-3.6-0.9-4.8-2.8
			c-1.2-1.8-1.7-3.9-1.7-6.4c0-2.7,0.6-5,1.8-6.8c1.2-1.8,2.8-2.7,4.7-2.7C300.4,222.5,301.9,223.4,303.1,225.1z M301.3,236.8
			c0.3-1.3,0.4-2.9,0.4-4.9c0-2.8-0.3-4.9-0.9-6.3c-0.6-1.4-1.4-2.1-2.4-2.1c-1.4,0-2.3,1.2-2.9,3.5c-0.3,1.3-0.4,2.9-0.4,4.9
			c0,2,0.1,3.7,0.4,4.9c0.5,2.3,1.5,3.5,2.9,3.5C299.9,240.3,300.8,239.1,301.3,236.8z"/>
		<path class="st2" d="M306,240c0.6-0.1,1-0.2,1.2-0.5c0.2-0.3,0.3-0.9,0.3-1.9V226c0-1-0.1-1.6-0.3-1.9c-0.2-0.3-0.6-0.4-1.2-0.5
			v-0.7h5.9c1.6,0,2.8,0.4,3.6,1.1c0.8,0.7,1.2,2,1.2,3.7c0,0.9-0.2,1.7-0.5,2.4s-0.9,1.4-1.6,1.8c-0.6,0.3-1.1,0.5-1.7,0.6
			c-0.6,0.1-1.4,0.1-2.5,0.1v4.9c0,1,0.1,1.6,0.3,1.9c0.2,0.3,0.7,0.5,1.3,0.5v0.7H306V240z M312.7,231.2c0.6-0.5,0.9-1.7,0.9-3.4
			c0-1.2-0.1-2.2-0.4-2.9c-0.3-0.7-0.8-1.1-1.6-1.1c-0.4,0-0.6,0.1-0.8,0.2c-0.2,0.1-0.2,0.4-0.2,0.7v7
			C311.6,231.8,312.3,231.6,312.7,231.2z"/>
		<path class="st2" d="M317.2,240c0.6,0,1-0.2,1.3-0.5c0.2-0.3,0.3-0.9,0.3-1.9V226c0-1-0.1-1.7-0.4-2c-0.2-0.2-0.6-0.3-1.2-0.4
			v-0.7h5.9c1.2,0,2.2,0.2,3,0.6c1.5,0.7,2.2,2.1,2.2,4c0,1.4-0.4,2.5-1.2,3.4c-0.6,0.6-1.2,1-1.9,1.2l3.9,7.5
			c0.1,0.2,0.2,0.3,0.3,0.4c0.1,0.1,0.3,0.1,0.4,0.1v0.6h-3.8l-4.3-8.2h0v5.1c0,0.9,0.1,1.5,0.3,1.9c0.2,0.3,0.6,0.5,1.3,0.5v0.7
			h-6.2V240z M324.4,230.9c0.5-0.5,0.8-1.5,0.8-3.2c0-1-0.1-1.8-0.3-2.4c-0.3-1-1-1.5-1.9-1.5c-0.5,0-0.8,0.1-1,0.3
			c-0.2,0.2-0.2,0.5-0.2,0.9v6.7C323,231.6,323.9,231.3,324.4,230.9z"/>
		<path class="st2" d="M330.5,240c0.5,0,0.9-0.1,1.1-0.3c0.4-0.3,0.6-0.8,0.6-1.6v-12.7c0-0.8-0.2-1.3-0.5-1.6
			c-0.2-0.2-0.6-0.3-1.2-0.3v-0.7h6.4v0.7c-0.6,0-1,0.1-1.2,0.3c-0.4,0.3-0.5,0.8-0.5,1.6v12.7c0,0.7,0.1,1.2,0.4,1.5
			c0.3,0.2,0.7,0.4,1.3,0.4v0.7h-6.4V240z"/>
		<path class="st2" d="M337.7,240.6V240c0.5,0,0.9-0.1,1.1-0.3c0.3-0.3,0.5-0.8,0.5-1.5v-12.7c0-0.8-0.2-1.3-0.5-1.5
			c-0.2-0.2-0.6-0.3-1.1-0.3v-0.7h10.6v5.3h-0.4c-0.2-1.7-0.6-2.8-1.2-3.5c-0.6-0.6-1.6-0.9-3.1-0.9c-0.6,0-0.9,0.1-1.1,0.2
			c-0.2,0.2-0.2,0.5-0.2,1v6.1c1,0,1.8-0.3,2.1-0.8c0.4-0.6,0.7-1.6,0.9-3.1h0.5v8.9h-0.5c-0.1-1.5-0.4-2.5-0.8-3.2
			s-1.1-0.9-2.2-0.9v6.4c0,0.6,0.1,0.9,0.3,1.1c0.2,0.2,0.6,0.3,1.2,0.3c1.2,0,2.1-0.3,2.9-1c0.7-0.6,1.4-1.9,2-3.7h0.5l-0.7,5.5
			H337.7z M346.2,218.2c-0.1,0.2-0.3,0.4-0.5,0.6l-2.5,2.3h-1l2.4-4.1c0.1-0.2,0.2-0.3,0.3-0.4c0.2-0.2,0.4-0.3,0.6-0.3
			c0.3,0,0.5,0.1,0.6,0.3c0.1,0.2,0.2,0.5,0.2,0.8C346.4,217.7,346.3,218,346.2,218.2z"/>
		<path class="st2" d="M350.2,222.9h11.1l0,5.3h-0.5c-0.2-1.9-0.7-3.2-1.5-3.8c-0.5-0.4-1.2-0.6-2.1-0.6v13.8c0,1,0.1,1.6,0.4,1.9
			c0.2,0.3,0.7,0.5,1.5,0.5v0.7h-6.6V240c0.7,0,1.2-0.2,1.4-0.5c0.2-0.3,0.4-1,0.4-1.9v-13.8c-0.9,0-1.6,0.2-2.1,0.6
			c-0.9,0.7-1.4,2-1.5,3.8h-0.5L350.2,222.9z"/>
		<path class="st2" d="M361,240c0.4,0,0.8-0.3,1.1-0.9c0.2-0.3,0.4-1.1,0.7-2.2l4.1-14.4h0.5l4.1,13.8c0.5,1.5,0.8,2.5,1,3
			s0.6,0.7,1,0.6v0.7h-6V240c0.6,0,1-0.1,1.2-0.2c0.2-0.1,0.3-0.4,0.3-0.8c0-0.2,0-0.5-0.1-0.9c-0.1-0.2-0.1-0.5-0.2-0.9l-0.5-1.6
			H364c-0.3,1-0.4,1.7-0.5,2c-0.2,0.7-0.2,1.2-0.2,1.5c0,0.4,0.2,0.6,0.5,0.8c0.2,0.1,0.5,0.1,0.9,0.2v0.7H361V240z M367.9,234.5
			l-1.8-6.1H366l-1.7,6.1H367.9z"/>
		<path class="st2" d="M374.2,240c0.5,0,0.9-0.1,1.1-0.3c0.4-0.3,0.6-0.8,0.6-1.6v-12.7c0-0.8-0.2-1.3-0.5-1.6
			c-0.2-0.2-0.6-0.3-1.2-0.3v-0.7h6.4v0.7c-0.6,0-1,0.1-1.2,0.3c-0.4,0.3-0.5,0.8-0.5,1.6v12.7c0,0.7,0.1,1.2,0.4,1.5
			c0.3,0.2,0.7,0.4,1.3,0.4v0.7h-6.4V240z"/>
		<path class="st2" d="M381.4,240c0.6,0,1-0.2,1.3-0.5c0.2-0.3,0.3-0.9,0.3-1.9V226c0-1-0.1-1.7-0.4-2c-0.2-0.2-0.6-0.3-1.2-0.4
			v-0.7h5.9c1.2,0,2.2,0.2,3,0.6c1.5,0.7,2.2,2.1,2.2,4c0,1.4-0.4,2.5-1.2,3.4c-0.6,0.6-1.2,1-1.9,1.2l3.9,7.5
			c0.1,0.2,0.2,0.3,0.3,0.4c0.1,0.1,0.3,0.1,0.4,0.1v0.6h-3.8l-4.3-8.2h0v5.1c0,0.9,0.1,1.5,0.3,1.9c0.2,0.3,0.6,0.5,1.3,0.5v0.7
			h-6.2V240z M388.6,230.9c0.5-0.5,0.8-1.5,0.8-3.2c0-1-0.1-1.8-0.3-2.4c-0.3-1-1-1.5-1.9-1.5c-0.5,0-0.8,0.1-1,0.3
			c-0.2,0.2-0.2,0.5-0.2,0.9v6.7C387.2,231.6,388.1,231.3,388.6,230.9z"/>
		<path class="st2" d="M394.7,240.6V240c0.5,0,0.9-0.1,1.1-0.3c0.3-0.3,0.5-0.8,0.5-1.5v-12.7c0-0.8-0.2-1.3-0.5-1.5
			c-0.2-0.2-0.6-0.3-1.1-0.3v-0.7h10.6v5.3h-0.5c-0.2-1.7-0.6-2.8-1.2-3.5c-0.6-0.6-1.6-0.9-3.1-0.9c-0.6,0-0.9,0.1-1.1,0.2
			c-0.2,0.2-0.2,0.5-0.2,1v6.1c1,0,1.8-0.3,2.1-0.8c0.4-0.6,0.7-1.6,0.9-3.1h0.5v8.9h-0.5c-0.1-1.5-0.4-2.5-0.8-3.2
			s-1.1-0.9-2.2-0.9v6.4c0,0.6,0.1,0.9,0.3,1.1c0.2,0.2,0.6,0.3,1.2,0.3c1.2,0,2.1-0.3,2.9-1c0.7-0.6,1.4-1.9,2-3.7h0.5l-0.7,5.5
			H394.7z"/>
		<path class="st2" d="M407.4,234.5h0.5c0.3,2,0.8,3.4,1.4,4.3c0.7,0.9,1.4,1.3,2.2,1.3c0.8,0,1.4-0.3,1.8-0.9
			c0.3-0.6,0.5-1.3,0.5-1.9c0-0.8-0.2-1.4-0.5-1.9c-0.2-0.3-0.7-0.7-1.5-1.3l-1.2-0.8c-1.2-0.8-2-1.7-2.5-2.5
			c-0.5-0.8-0.7-1.8-0.7-3c0-1.3,0.3-2.5,1-3.6c0.6-1.1,1.6-1.7,2.9-1.7c0.7,0,1.3,0.1,1.9,0.4c0.6,0.3,1,0.4,1.1,0.4
			c0.2,0,0.3-0.1,0.4-0.2c0.1-0.2,0.1-0.4,0.2-0.7h0.5v5.7H415c-0.2-1.3-0.7-2.5-1.3-3.4s-1.3-1.4-2.2-1.4c-0.6,0-1.1,0.2-1.4,0.7
			c-0.4,0.5-0.5,1.1-0.5,1.8c0,0.8,0.2,1.4,0.5,1.9c0.3,0.4,1.1,1,2.2,1.8l1.4,1c0.6,0.4,1.1,0.9,1.5,1.4c0.7,1,1,2.2,1,3.6
			c0,1.3-0.4,2.6-1.1,3.7c-0.7,1.2-1.9,1.8-3.5,1.8c-0.4,0-0.7,0-1.1-0.1c-0.4-0.1-0.7-0.2-1.1-0.5l-0.4-0.2c-0.1,0-0.2-0.1-0.2-0.1
			c-0.1,0-0.1,0-0.2,0c-0.2,0-0.3,0.1-0.4,0.2c-0.1,0.2-0.1,0.4-0.2,0.7h-0.5V234.5z"/>
		<path class="st2" d="M421.9,240c0.5,0,0.9-0.1,1.1-0.3c0.4-0.3,0.6-0.8,0.6-1.6v-12.7c0-0.8-0.2-1.3-0.5-1.6
			c-0.2-0.2-0.6-0.3-1.2-0.3v-0.7h6.4v0.7c-0.6,0-1,0.1-1.2,0.3c-0.4,0.3-0.5,0.8-0.5,1.6v12.7c0,0.7,0.1,1.2,0.4,1.5
			c0.3,0.2,0.7,0.4,1.3,0.4v0.7h-6.4V240z"/>
		<path class="st2" d="M429,240c0.7,0,1.2-0.2,1.4-0.5c0.2-0.3,0.3-0.9,0.3-1.6v-12.5c0-0.7-0.1-1.2-0.4-1.4
			c-0.2-0.2-0.7-0.4-1.3-0.4v-0.7h4.6l3.6,12.1h0.2l3.6-12.1h4.6v0.7c-0.6,0.1-1,0.2-1.3,0.5c-0.2,0.3-0.3,0.9-0.3,1.9v11.6
			c0,1,0.1,1.6,0.3,1.9c0.2,0.3,0.7,0.5,1.3,0.5v0.7h-6.1V240c0.5,0,1-0.2,1.2-0.4c0.3-0.2,0.4-0.7,0.4-1.5v-12.8h-0.1l-4.5,15.4
			h-0.5l-4.6-15.1h-0.1v11.9c0,0.9,0.1,1.5,0.3,1.9s0.7,0.6,1.5,0.7v0.7H429V240z"/>
		<path class="st2" d="M446.4,240c0.7,0,1.2-0.2,1.4-0.5c0.2-0.3,0.3-0.9,0.3-1.6v-12.5c0-0.7-0.1-1.2-0.4-1.4
			c-0.2-0.2-0.7-0.4-1.3-0.4v-0.7h4.6l3.6,12.1h0.2l3.6-12.1h4.6v0.7c-0.6,0.1-1,0.2-1.3,0.5c-0.2,0.3-0.3,0.9-0.3,1.9v11.6
			c0,1,0.1,1.6,0.3,1.9c0.2,0.3,0.7,0.5,1.3,0.5v0.7H457V240c0.5,0,1-0.2,1.2-0.4c0.3-0.2,0.4-0.7,0.4-1.5v-12.8h-0.1l-4.5,15.4
			h-0.5l-4.6-15.1h-0.1v11.9c0,0.9,0.1,1.5,0.3,1.9s0.7,0.6,1.5,0.7v0.7h-4.3V240z"/>
		<path class="st2" d="M475.3,225.1c1.3,1.8,1.9,4,1.9,6.8c0,2.8-0.6,5-1.9,6.8c-1.2,1.7-2.8,2.6-4.6,2.6c-2,0-3.6-0.9-4.8-2.8
			c-1.2-1.8-1.7-3.9-1.7-6.4c0-2.7,0.6-5,1.8-6.8c1.2-1.8,2.8-2.7,4.7-2.7C472.5,222.5,474.1,223.4,475.3,225.1z M473.5,236.8
			c0.3-1.3,0.4-2.9,0.4-4.9c0-2.8-0.3-4.9-0.9-6.3c-0.6-1.4-1.4-2.1-2.4-2.1c-1.4,0-2.3,1.2-2.9,3.5c-0.3,1.3-0.4,2.9-0.4,4.9
			c0,2,0.1,3.7,0.4,4.9c0.5,2.3,1.5,3.5,2.9,3.5C472,240.3,473,239.1,473.5,236.8z"/>
		<path class="st2" d="M478.1,240c0.5,0,0.9-0.1,1.1-0.3c0.4-0.3,0.5-0.8,0.5-1.6v-12.7c0-0.8-0.2-1.3-0.5-1.5
			c-0.2-0.2-0.6-0.3-1.1-0.3v-0.7h5.7c1.1,0,2,0.2,2.7,0.5c1.4,0.7,2.1,1.9,2.1,3.7c0,1.1-0.3,1.9-0.8,2.6c-0.6,0.6-1.2,1-1.8,1.2
			v0.2c0.7,0.2,1.3,0.5,1.8,0.9c1,0.9,1.5,2.1,1.5,3.6c0,1.5-0.5,2.6-1.4,3.5c-0.9,0.9-2.2,1.4-3.8,1.4h-5.9V240z M485,230.1
			c0.4-0.5,0.6-1.5,0.6-2.8c0-1-0.1-1.8-0.4-2.5c-0.3-0.7-0.7-1-1.5-1c-0.4,0-0.7,0.1-0.8,0.3c-0.1,0.2-0.2,0.5-0.2,1v5.9
			C483.8,230.9,484.6,230.6,485,230.1z M482.9,239.2c0.1,0.4,0.4,0.6,0.9,0.6c0.9,0,1.5-0.3,1.8-1c0.4-0.7,0.5-1.6,0.5-2.9
			c0-1.9-0.4-3.1-1.2-3.7c-0.5-0.4-1.2-0.6-2.2-0.5v6.6C482.7,238.7,482.8,239,482.9,239.2z"/>
		<path class="st2" d="M490.4,240c0.5,0,0.9-0.1,1.1-0.3c0.4-0.3,0.6-0.8,0.6-1.6v-12.7c0-0.8-0.2-1.3-0.5-1.6
			c-0.2-0.2-0.6-0.3-1.2-0.3v-0.7h6.4v0.7c-0.6,0-1,0.1-1.2,0.3c-0.4,0.3-0.5,0.8-0.5,1.6v12.7c0,0.7,0.1,1.2,0.4,1.5
			c0.3,0.2,0.7,0.4,1.3,0.4v0.7h-6.4V240z"/>
		<path class="st2" d="M497.6,240c0.5,0,0.9-0.1,1.1-0.3c0.4-0.3,0.5-0.8,0.5-1.6v-12.7c0-0.8-0.2-1.3-0.5-1.5
			c-0.2-0.2-0.6-0.3-1.1-0.3v-0.7h6.4v0.7c-0.8,0-1.2,0.2-1.5,0.4c-0.2,0.3-0.4,0.9-0.4,1.9v12.4c0,0.6,0.1,1,0.3,1.2
			c0.2,0.2,0.6,0.3,1.2,0.3c1.1,0,2-0.3,2.8-1c0.8-0.7,1.4-2.1,1.9-4.1h0.5l-0.7,5.9h-10.7V240z"/>
		<path class="st2" d="M509.9,240c0.5,0,0.9-0.1,1.1-0.3c0.4-0.3,0.6-0.8,0.6-1.6v-12.7c0-0.8-0.2-1.3-0.5-1.6
			c-0.2-0.2-0.6-0.3-1.2-0.3v-0.7h6.4v0.7c-0.6,0-1,0.1-1.2,0.3c-0.4,0.3-0.5,0.8-0.5,1.6v12.7c0,0.7,0.1,1.2,0.4,1.5
			c0.3,0.2,0.7,0.4,1.3,0.4v0.7h-6.4V240z"/>
		<path class="st2" d="M517.1,240.6V240c0.5,0,0.9-0.1,1.1-0.3c0.3-0.3,0.5-0.8,0.5-1.5v-12.7c0-0.8-0.2-1.3-0.5-1.5
			c-0.2-0.2-0.6-0.3-1.1-0.3v-0.7h10.6v5.3h-0.4c-0.2-1.7-0.6-2.8-1.2-3.5c-0.6-0.6-1.6-0.9-3.1-0.9c-0.6,0-0.9,0.1-1.1,0.2
			c-0.2,0.2-0.2,0.5-0.2,1v6.1c1,0,1.8-0.3,2.1-0.8c0.4-0.6,0.7-1.6,0.9-3.1h0.5v8.9h-0.5c-0.1-1.5-0.4-2.5-0.8-3.2
			c-0.4-0.6-1.1-0.9-2.2-0.9v6.4c0,0.6,0.1,0.9,0.3,1.1c0.2,0.2,0.6,0.3,1.2,0.3c1.2,0,2.1-0.3,2.9-1c0.7-0.6,1.4-1.9,2-3.7h0.5
			l-0.7,5.5H517.1z"/>
		<path class="st2" d="M529.4,240c0.6,0,1-0.2,1.3-0.5c0.2-0.3,0.3-0.9,0.3-1.9V226c0-1-0.1-1.7-0.4-2c-0.2-0.2-0.6-0.3-1.2-0.4
			v-0.7h5.9c1.2,0,2.2,0.2,3,0.6c1.5,0.7,2.2,2.1,2.2,4c0,1.4-0.4,2.5-1.2,3.4c-0.6,0.6-1.2,1-1.9,1.2l3.9,7.5
			c0.1,0.2,0.2,0.3,0.3,0.4c0.1,0.1,0.3,0.1,0.4,0.1v0.6h-3.8l-4.3-8.2h0v5.1c0,0.9,0.1,1.5,0.3,1.9c0.2,0.3,0.6,0.5,1.3,0.5v0.7
			h-6.2V240z M536.6,230.9c0.5-0.5,0.8-1.5,0.8-3.2c0-1-0.1-1.8-0.3-2.4c-0.3-1-1-1.5-1.9-1.5c-0.5,0-0.8,0.1-1,0.3
			c-0.2,0.2-0.2,0.5-0.2,0.9v6.7C535.2,231.6,536,231.3,536.6,230.9z"/>
		<path class="st2" d="M543,234.5h0.5c0.3,2,0.8,3.4,1.4,4.3c0.7,0.9,1.4,1.3,2.2,1.3c0.8,0,1.4-0.3,1.8-0.9
			c0.3-0.6,0.5-1.3,0.5-1.9c0-0.8-0.2-1.4-0.5-1.9c-0.2-0.3-0.7-0.7-1.5-1.3l-1.2-0.8c-1.2-0.8-2-1.7-2.5-2.5
			c-0.5-0.8-0.7-1.8-0.7-3c0-1.3,0.3-2.5,1-3.6c0.6-1.1,1.6-1.7,2.9-1.7c0.7,0,1.3,0.1,1.9,0.4c0.6,0.3,1,0.4,1.1,0.4
			c0.2,0,0.3-0.1,0.4-0.2c0.1-0.2,0.1-0.4,0.2-0.7h0.5v5.7h-0.5c-0.2-1.3-0.7-2.5-1.3-3.4s-1.3-1.4-2.2-1.4c-0.6,0-1.1,0.2-1.4,0.7
			c-0.4,0.5-0.5,1.1-0.5,1.8c0,0.8,0.2,1.4,0.5,1.9c0.3,0.4,1.1,1,2.2,1.8l1.4,1c0.6,0.4,1.1,0.9,1.5,1.4c0.7,1,1,2.2,1,3.6
			c0,1.3-0.4,2.6-1.1,3.7c-0.7,1.2-1.9,1.8-3.5,1.8c-0.4,0-0.7,0-1.1-0.1c-0.4-0.1-0.7-0.2-1.1-0.5l-0.4-0.2c-0.1,0-0.2-0.1-0.2-0.1
			c-0.1,0-0.1,0-0.2,0c-0.2,0-0.3,0.1-0.4,0.2c-0.1,0.2-0.1,0.4-0.2,0.7H543V234.5z"/>
	</g>
</g>
<g id="Calque_3" class="st3">
	<text transform="matrix(1 0 0 1 229.8333 394.1667)" class="st4" style="font-family:'Times-Bold'; font-size:12px;">union nationale des propriétaires immobiliers</text>
	<text transform="matrix(0.6429 0 0 1 229.8333 445.029)" class="st4" style="font-family:'Times-Bold'; font-size:15.6124px;">union nationale des propriétaires immobiliers</text>
	<text transform="matrix(0.6733 0 0 1 80.4995 557.5928)" class="st4" style="font-family:'Times-Bold'; font-size:27.3218px;">union nationale des propriétaires immobiliers</text>
	<g class="st4">
		<path d="M52,222.9v0.7c-0.7,0-1.2,0.2-1.4,0.5c-0.2,0.3-0.4,0.9-0.4,1.9v8.8c0,1.3,0.1,2.4,0.3,3.1c0.4,1.4,1.2,2,2.3,2
			c1.4,0,2.4-0.7,2.9-2.2c0.3-0.8,0.4-2,0.4-3.4v-8c0-0.9-0.1-1.6-0.4-1.9c-0.2-0.4-0.7-0.6-1.4-0.6v-0.7h4v0.7
			c-0.6,0.2-1,0.4-1.2,0.6c-0.2,0.2-0.3,0.8-0.3,1.6v8.4c0,2.2-0.4,4-1.1,5.2c-0.8,1.2-1.9,1.8-3.6,1.8c-2.1,0-3.6-0.9-4.3-2.7
			c-0.4-1-0.6-2.2-0.6-3.7V226c0-1-0.1-1.6-0.3-1.9c-0.2-0.3-0.6-0.4-1.2-0.5v-0.7H52z"/>
		<path d="M59.1,240c0.7,0,1.1-0.2,1.3-0.6c0.2-0.3,0.3-0.9,0.3-1.5v-12.4c-0.6-0.9-0.9-1.4-1-1.6c-0.1-0.2-0.3-0.3-0.5-0.3v-0.7H63
			l6.3,11h0.1v-7.7c0-0.9-0.1-1.5-0.3-1.9c-0.2-0.4-0.7-0.6-1.4-0.7v-0.7h4v0.7c-0.6,0.1-1,0.3-1.2,0.5c-0.2,0.2-0.3,0.7-0.3,1.5
			v15.5h-0.5l-8.1-14h-0.1v10.3c0,0.8,0.1,1.4,0.2,1.7c0.2,0.5,0.7,0.8,1.5,0.9v0.7h-4.2V240z"/>
		<path d="M72.4,240c0.5,0,0.9-0.1,1.1-0.3c0.4-0.3,0.6-0.8,0.6-1.6v-12.7c0-0.8-0.2-1.3-0.5-1.6c-0.2-0.2-0.6-0.3-1.2-0.3v-0.7h6.4
			v0.7c-0.6,0-1,0.1-1.2,0.3c-0.4,0.3-0.5,0.8-0.5,1.6v12.7c0,0.7,0.1,1.2,0.4,1.5c0.3,0.2,0.7,0.4,1.3,0.4v0.7h-6.4V240z"/>
		<path d="M91,225.1c1.3,1.8,1.9,4,1.9,6.8c0,2.8-0.6,5-1.9,6.8c-1.2,1.7-2.8,2.6-4.6,2.6c-2,0-3.6-0.9-4.8-2.8
			c-1.2-1.8-1.7-3.9-1.7-6.4c0-2.7,0.6-5,1.8-6.8c1.2-1.8,2.8-2.7,4.7-2.7C88.2,222.5,89.8,223.4,91,225.1z M89.2,236.8
			c0.3-1.3,0.4-2.9,0.4-4.9c0-2.8-0.3-4.9-0.9-6.3c-0.6-1.4-1.4-2.1-2.4-2.1c-1.4,0-2.3,1.2-2.9,3.5c-0.3,1.3-0.4,2.9-0.4,4.9
			c0,2,0.1,3.7,0.4,4.9c0.5,2.3,1.5,3.5,2.9,3.5C87.8,240.3,88.7,239.1,89.2,236.8z"/>
		<path d="M93.9,240c0.7,0,1.1-0.2,1.3-0.6c0.2-0.3,0.3-0.9,0.3-1.5v-12.4c-0.6-0.9-0.9-1.4-1-1.6c-0.1-0.2-0.3-0.3-0.5-0.3v-0.7
			h3.9l6.3,11h0.1v-7.7c0-0.9-0.1-1.5-0.3-1.9c-0.2-0.4-0.7-0.6-1.4-0.7v-0.7h4v0.7c-0.6,0.1-1,0.3-1.2,0.5
			c-0.2,0.2-0.3,0.7-0.3,1.5v15.5h-0.5l-8.1-14h-0.1v10.3c0,0.8,0.1,1.4,0.2,1.7c0.2,0.5,0.7,0.8,1.5,0.9v0.7h-4.2V240z"/>
		<path d="M111.8,240c0.7,0,1.1-0.2,1.3-0.6c0.2-0.3,0.3-0.9,0.3-1.5v-12.4c-0.6-0.9-0.9-1.4-1-1.6c-0.1-0.2-0.3-0.3-0.5-0.3v-0.7
			h3.9l6.3,11h0.1v-7.7c0-0.9-0.1-1.5-0.3-1.9c-0.2-0.4-0.7-0.6-1.4-0.7v-0.7h4v0.7c-0.6,0.1-1,0.3-1.2,0.5
			c-0.2,0.2-0.3,0.7-0.3,1.5v15.5h-0.5l-8.1-14h-0.1v10.3c0,0.8,0.1,1.4,0.2,1.7c0.2,0.5,0.7,0.8,1.5,0.9v0.7h-4.2V240z"/>
		<path d="M125.1,240c0.4,0,0.8-0.3,1.1-0.9c0.2-0.3,0.4-1.1,0.7-2.2l4.1-14.4h0.5l4.1,13.8c0.5,1.5,0.8,2.5,1,3s0.6,0.7,1,0.6v0.7
			h-6V240c0.6,0,1-0.1,1.2-0.2c0.2-0.1,0.3-0.4,0.3-0.8c0-0.2,0-0.5-0.1-0.9c-0.1-0.2-0.1-0.5-0.2-0.9l-0.5-1.6h-4.1
			c-0.3,1-0.4,1.7-0.5,2c-0.2,0.7-0.2,1.2-0.2,1.5c0,0.4,0.2,0.6,0.5,0.8c0.2,0.1,0.5,0.1,0.9,0.2v0.7h-3.8V240z M132,234.5
			l-1.8-6.1h-0.2l-1.7,6.1H132z"/>
		<path d="M137.2,222.9h11.1l0,5.3h-0.5c-0.2-1.9-0.7-3.2-1.5-3.8c-0.5-0.4-1.2-0.6-2.1-0.6v13.8c0,1,0.1,1.6,0.4,1.9
			c0.2,0.3,0.7,0.5,1.5,0.5v0.7h-6.6V240c0.7,0,1.2-0.2,1.4-0.5c0.2-0.3,0.4-1,0.4-1.9v-13.8c-0.9,0-1.6,0.2-2.1,0.6
			c-0.9,0.7-1.4,2-1.5,3.8h-0.5L137.2,222.9z"/>
		<path d="M149.3,240c0.5,0,0.9-0.1,1.1-0.3c0.4-0.3,0.6-0.8,0.6-1.6v-12.7c0-0.8-0.2-1.3-0.5-1.6c-0.2-0.2-0.6-0.3-1.2-0.3v-0.7
			h6.4v0.7c-0.6,0-1,0.1-1.2,0.3c-0.4,0.3-0.5,0.8-0.5,1.6v12.7c0,0.7,0.1,1.2,0.4,1.5c0.3,0.2,0.7,0.4,1.3,0.4v0.7h-6.4V240z"/>
		<path d="M168,225.1c1.3,1.8,1.9,4,1.9,6.8c0,2.8-0.6,5-1.9,6.8c-1.2,1.7-2.8,2.6-4.6,2.6c-2,0-3.6-0.9-4.8-2.8
			c-1.2-1.8-1.7-3.9-1.7-6.4c0-2.7,0.6-5,1.8-6.8c1.2-1.8,2.8-2.7,4.7-2.7C165.2,222.5,166.7,223.4,168,225.1z M166.2,236.8
			c0.3-1.3,0.4-2.9,0.4-4.9c0-2.8-0.3-4.9-0.9-6.3c-0.6-1.4-1.4-2.1-2.4-2.1c-1.4,0-2.3,1.2-2.9,3.5c-0.3,1.3-0.4,2.9-0.4,4.9
			c0,2,0.1,3.7,0.4,4.9c0.5,2.3,1.5,3.5,2.9,3.5C164.7,240.3,165.7,239.1,166.2,236.8z"/>
		<path d="M170.8,240c0.7,0,1.1-0.2,1.3-0.6c0.2-0.3,0.3-0.9,0.3-1.5v-12.4c-0.6-0.9-0.9-1.4-1-1.6c-0.1-0.2-0.3-0.3-0.5-0.3v-0.7
			h3.9l6.3,11h0.1v-7.7c0-0.9-0.1-1.5-0.3-1.9c-0.2-0.4-0.7-0.6-1.4-0.7v-0.7h4v0.7c-0.6,0.1-1,0.3-1.2,0.5
			c-0.2,0.2-0.3,0.7-0.3,1.5v15.5h-0.5l-8.1-14h-0.1v10.3c0,0.8,0.1,1.4,0.2,1.7c0.2,0.5,0.7,0.8,1.5,0.9v0.7h-4.2V240z"/>
		<path d="M184.2,240c0.4,0,0.8-0.3,1.1-0.9c0.2-0.3,0.4-1.1,0.7-2.2l4.1-14.4h0.5l4.1,13.8c0.5,1.5,0.8,2.5,1,3
			c0.2,0.4,0.6,0.7,1,0.6v0.7h-6V240c0.6,0,1-0.1,1.2-0.2c0.2-0.1,0.3-0.4,0.3-0.8c0-0.2,0-0.5-0.1-0.9c-0.1-0.2-0.1-0.5-0.2-0.9
			l-0.5-1.6h-4.1c-0.3,1-0.4,1.7-0.5,2c-0.2,0.7-0.2,1.2-0.2,1.5c0,0.4,0.2,0.6,0.5,0.8c0.2,0.1,0.5,0.1,0.9,0.2v0.7h-3.8V240z
			 M191.1,234.5l-1.8-6.1h-0.2l-1.7,6.1H191.1z"/>
		<path d="M197.5,240c0.5,0,0.9-0.1,1.1-0.3c0.4-0.3,0.5-0.8,0.5-1.6v-12.7c0-0.8-0.2-1.3-0.5-1.5c-0.2-0.2-0.6-0.3-1.1-0.3v-0.7
			h6.4v0.7c-0.7,0-1.2,0.2-1.5,0.4c-0.2,0.3-0.4,0.9-0.4,1.9v12.4c0,0.6,0.1,1,0.3,1.2c0.2,0.2,0.6,0.3,1.2,0.3c1.1,0,2-0.3,2.8-1
			c0.8-0.7,1.4-2.1,1.9-4.1h0.5l-0.7,5.9h-10.7V240z"/>
		<path d="M209.7,240.6V240c0.5,0,0.9-0.1,1.1-0.3c0.3-0.3,0.5-0.8,0.5-1.5v-12.7c0-0.8-0.2-1.3-0.5-1.5c-0.2-0.2-0.6-0.3-1.1-0.3
			v-0.7h10.6v5.3h-0.4c-0.2-1.7-0.6-2.8-1.2-3.5c-0.6-0.6-1.6-0.9-3.1-0.9c-0.6,0-0.9,0.1-1.1,0.2c-0.2,0.2-0.2,0.5-0.2,1v6.1
			c1,0,1.8-0.3,2.1-0.8c0.4-0.6,0.7-1.6,0.9-3.1h0.5v8.9h-0.5c-0.1-1.5-0.4-2.5-0.8-3.2c-0.4-0.6-1.1-0.9-2.2-0.9v6.4
			c0,0.6,0.1,0.9,0.3,1.1c0.2,0.2,0.6,0.3,1.2,0.3c1.2,0,2.1-0.3,2.9-1c0.7-0.6,1.4-1.9,2-3.7h0.5l-0.7,5.5H209.7z"/>
		<path d="M226.6,240c0.5,0,0.8-0.1,1-0.3c0.4-0.3,0.5-0.7,0.5-1.4v-12.9c0-0.7-0.2-1.1-0.5-1.4c-0.2-0.2-0.5-0.3-1-0.3v-0.7h5.6
			c2.3,0,4,0.9,5.2,2.6c1.1,1.6,1.6,3.7,1.6,6.3c0,2.4-0.5,4.4-1.6,6c-1.2,1.9-2.9,2.8-5,2.8h-5.8V240z M231.3,239.4
			c0.1,0.2,0.4,0.4,0.8,0.4c1.1,0,2-0.5,2.7-1.6c0.7-1.1,1.1-3.2,1.1-6.3c0-1.9-0.2-3.4-0.6-4.8c-0.6-2.1-1.6-3.2-3.1-3.2
			c-0.5,0-0.8,0.1-0.9,0.4c-0.1,0.2-0.1,0.6-0.1,1.1v12.9C231.1,238.8,231.2,239.2,231.3,239.4z"/>
		<path d="M239.9,240.6V240c0.5,0,0.9-0.1,1.1-0.3c0.3-0.3,0.5-0.8,0.5-1.5v-12.7c0-0.8-0.2-1.3-0.5-1.5c-0.2-0.2-0.6-0.3-1.1-0.3
			v-0.7h10.6v5.3h-0.4c-0.2-1.7-0.6-2.8-1.2-3.5c-0.6-0.6-1.6-0.9-3.1-0.9c-0.6,0-0.9,0.1-1.1,0.2c-0.2,0.2-0.2,0.5-0.2,1v6.1
			c1,0,1.8-0.3,2.1-0.8c0.4-0.6,0.7-1.6,0.9-3.1h0.5v8.9h-0.5c-0.1-1.5-0.4-2.5-0.8-3.2c-0.4-0.6-1.1-0.9-2.2-0.9v6.4
			c0,0.6,0.1,0.9,0.3,1.1s0.6,0.3,1.2,0.3c1.2,0,2.1-0.3,2.9-1c0.7-0.6,1.4-1.9,2-3.7h0.5l-0.7,5.5H239.9z"/>
		<path d="M252.6,234.5h0.5c0.3,2,0.8,3.4,1.4,4.3c0.7,0.9,1.4,1.3,2.2,1.3c0.8,0,1.4-0.3,1.8-0.9c0.3-0.6,0.5-1.3,0.5-1.9
			c0-0.8-0.2-1.4-0.5-1.9c-0.2-0.3-0.7-0.7-1.5-1.3l-1.2-0.8c-1.2-0.8-2-1.7-2.5-2.5s-0.7-1.8-0.7-3c0-1.3,0.3-2.5,1-3.6
			c0.6-1.1,1.6-1.7,2.9-1.7c0.7,0,1.3,0.1,1.9,0.4c0.6,0.3,1,0.4,1.1,0.4c0.2,0,0.3-0.1,0.4-0.2c0.1-0.2,0.1-0.4,0.2-0.7h0.5v5.7
			h-0.5c-0.2-1.3-0.7-2.5-1.3-3.4c-0.6-1-1.3-1.4-2.2-1.4c-0.6,0-1.1,0.2-1.4,0.7c-0.4,0.5-0.5,1.1-0.5,1.8c0,0.8,0.2,1.4,0.5,1.9
			c0.3,0.4,1.1,1,2.2,1.8l1.4,1c0.6,0.4,1.1,0.9,1.5,1.4c0.7,1,1,2.2,1,3.6c0,1.3-0.4,2.6-1.1,3.7c-0.7,1.2-1.9,1.8-3.5,1.8
			c-0.4,0-0.7,0-1.1-0.1c-0.4-0.1-0.7-0.2-1.1-0.5l-0.4-0.2c-0.1,0-0.2-0.1-0.2-0.1c-0.1,0-0.1,0-0.2,0c-0.2,0-0.3,0.1-0.4,0.2
			c-0.1,0.2-0.1,0.4-0.2,0.7h-0.5V234.5z"/>
		<path d="M267.1,240c0.6-0.1,1-0.2,1.2-0.5c0.2-0.3,0.3-0.9,0.3-1.9V226c0-1-0.1-1.6-0.3-1.9c-0.2-0.3-0.6-0.4-1.2-0.5v-0.7h5.9
			c1.6,0,2.8,0.4,3.6,1.1c0.8,0.7,1.2,2,1.2,3.7c0,0.9-0.2,1.7-0.5,2.4c-0.3,0.8-0.9,1.4-1.6,1.8c-0.6,0.3-1.1,0.5-1.7,0.6
			c-0.6,0.1-1.4,0.1-2.5,0.1v4.9c0,1,0.1,1.6,0.3,1.9c0.2,0.3,0.7,0.5,1.3,0.5v0.7h-6.1V240z M273.8,231.2c0.6-0.5,0.9-1.7,0.9-3.4
			c0-1.2-0.1-2.2-0.4-2.9c-0.3-0.7-0.8-1.1-1.6-1.1c-0.4,0-0.6,0.1-0.8,0.2s-0.2,0.4-0.2,0.7v7C272.7,231.8,273.4,231.6,273.8,231.2
			z"/>
		<path d="M278.3,240c0.6,0,1-0.2,1.3-0.5c0.2-0.3,0.3-0.9,0.3-1.9V226c0-1-0.1-1.7-0.4-2c-0.2-0.2-0.6-0.3-1.2-0.4v-0.7h5.9
			c1.2,0,2.2,0.2,3,0.6c1.5,0.7,2.2,2.1,2.2,4c0,1.4-0.4,2.5-1.2,3.4c-0.6,0.6-1.2,1-1.9,1.2l3.9,7.5c0.1,0.2,0.2,0.3,0.3,0.4
			c0.1,0.1,0.3,0.1,0.4,0.1v0.6h-3.8l-4.3-8.2h0v5.1c0,0.9,0.1,1.5,0.3,1.9c0.2,0.3,0.6,0.5,1.3,0.5v0.7h-6.2V240z M285.5,230.9
			c0.5-0.5,0.8-1.5,0.8-3.2c0-1-0.1-1.8-0.3-2.4c-0.3-1-1-1.5-1.9-1.5c-0.5,0-0.8,0.1-1,0.3c-0.2,0.2-0.2,0.5-0.2,0.9v6.7
			C284.2,231.6,285,231.3,285.5,230.9z"/>
		<path d="M303.1,225.1c1.3,1.8,1.9,4,1.9,6.8c0,2.8-0.6,5-1.9,6.8c-1.2,1.7-2.8,2.6-4.6,2.6c-2,0-3.6-0.9-4.8-2.8
			c-1.2-1.8-1.7-3.9-1.7-6.4c0-2.7,0.6-5,1.8-6.8c1.2-1.8,2.8-2.7,4.7-2.7C300.4,222.5,301.9,223.4,303.1,225.1z M301.3,236.8
			c0.3-1.3,0.4-2.9,0.4-4.9c0-2.8-0.3-4.9-0.9-6.3c-0.6-1.4-1.4-2.1-2.4-2.1c-1.4,0-2.3,1.2-2.9,3.5c-0.3,1.3-0.4,2.9-0.4,4.9
			c0,2,0.1,3.7,0.4,4.9c0.5,2.3,1.5,3.5,2.9,3.5C299.9,240.3,300.8,239.1,301.3,236.8z"/>
		<path d="M306,240c0.6-0.1,1-0.2,1.2-0.5c0.2-0.3,0.3-0.9,0.3-1.9V226c0-1-0.1-1.6-0.3-1.9c-0.2-0.3-0.6-0.4-1.2-0.5v-0.7h5.9
			c1.6,0,2.8,0.4,3.6,1.1c0.8,0.7,1.2,2,1.2,3.7c0,0.9-0.2,1.7-0.5,2.4s-0.9,1.4-1.6,1.8c-0.6,0.3-1.1,0.5-1.7,0.6
			c-0.6,0.1-1.4,0.1-2.5,0.1v4.9c0,1,0.1,1.6,0.3,1.9c0.2,0.3,0.7,0.5,1.3,0.5v0.7H306V240z M312.7,231.2c0.6-0.5,0.9-1.7,0.9-3.4
			c0-1.2-0.1-2.2-0.4-2.9c-0.3-0.7-0.8-1.1-1.6-1.1c-0.4,0-0.6,0.1-0.8,0.2c-0.2,0.1-0.2,0.4-0.2,0.7v7
			C311.6,231.8,312.3,231.6,312.7,231.2z"/>
		<path d="M317.2,240c0.6,0,1-0.2,1.3-0.5c0.2-0.3,0.3-0.9,0.3-1.9V226c0-1-0.1-1.7-0.4-2c-0.2-0.2-0.6-0.3-1.2-0.4v-0.7h5.9
			c1.2,0,2.2,0.2,3,0.6c1.5,0.7,2.2,2.1,2.2,4c0,1.4-0.4,2.5-1.2,3.4c-0.6,0.6-1.2,1-1.9,1.2l3.9,7.5c0.1,0.2,0.2,0.3,0.3,0.4
			c0.1,0.1,0.3,0.1,0.4,0.1v0.6h-3.8l-4.3-8.2h0v5.1c0,0.9,0.1,1.5,0.3,1.9c0.2,0.3,0.6,0.5,1.3,0.5v0.7h-6.2V240z M324.4,230.9
			c0.5-0.5,0.8-1.5,0.8-3.2c0-1-0.1-1.8-0.3-2.4c-0.3-1-1-1.5-1.9-1.5c-0.5,0-0.8,0.1-1,0.3c-0.2,0.2-0.2,0.5-0.2,0.9v6.7
			C323,231.6,323.9,231.3,324.4,230.9z"/>
		<path d="M330.5,240c0.5,0,0.9-0.1,1.1-0.3c0.4-0.3,0.6-0.8,0.6-1.6v-12.7c0-0.8-0.2-1.3-0.5-1.6c-0.2-0.2-0.6-0.3-1.2-0.3v-0.7
			h6.4v0.7c-0.6,0-1,0.1-1.2,0.3c-0.4,0.3-0.5,0.8-0.5,1.6v12.7c0,0.7,0.1,1.2,0.4,1.5c0.3,0.2,0.7,0.4,1.3,0.4v0.7h-6.4V240z"/>
		<path d="M337.7,240.6V240c0.5,0,0.9-0.1,1.1-0.3c0.3-0.3,0.5-0.8,0.5-1.5v-12.7c0-0.8-0.2-1.3-0.5-1.5c-0.2-0.2-0.6-0.3-1.1-0.3
			v-0.7h10.6v5.3h-0.4c-0.2-1.7-0.6-2.8-1.2-3.5c-0.6-0.6-1.6-0.9-3.1-0.9c-0.6,0-0.9,0.1-1.1,0.2c-0.2,0.2-0.2,0.5-0.2,1v6.1
			c1,0,1.8-0.3,2.1-0.8c0.4-0.6,0.7-1.6,0.9-3.1h0.5v8.9h-0.5c-0.1-1.5-0.4-2.5-0.8-3.2s-1.1-0.9-2.2-0.9v6.4c0,0.6,0.1,0.9,0.3,1.1
			c0.2,0.2,0.6,0.3,1.2,0.3c1.2,0,2.1-0.3,2.9-1c0.7-0.6,1.4-1.9,2-3.7h0.5l-0.7,5.5H337.7z M346.2,218.2c-0.1,0.2-0.3,0.4-0.5,0.6
			l-2.5,2.3h-1l2.4-4.1c0.1-0.2,0.2-0.3,0.3-0.4c0.2-0.2,0.4-0.3,0.6-0.3c0.3,0,0.5,0.1,0.6,0.3c0.1,0.2,0.2,0.5,0.2,0.8
			C346.4,217.7,346.3,218,346.2,218.2z"/>
		<path d="M350.2,222.9h11.1l0,5.3h-0.5c-0.2-1.9-0.7-3.2-1.5-3.8c-0.5-0.4-1.2-0.6-2.1-0.6v13.8c0,1,0.1,1.6,0.4,1.9
			c0.2,0.3,0.7,0.5,1.5,0.5v0.7h-6.6V240c0.7,0,1.2-0.2,1.4-0.5c0.2-0.3,0.4-1,0.4-1.9v-13.8c-0.9,0-1.6,0.2-2.1,0.6
			c-0.9,0.7-1.4,2-1.5,3.8h-0.5L350.2,222.9z"/>
		<path d="M361,240c0.4,0,0.8-0.3,1.1-0.9c0.2-0.3,0.4-1.1,0.7-2.2l4.1-14.4h0.5l4.1,13.8c0.5,1.5,0.8,2.5,1,3s0.6,0.7,1,0.6v0.7h-6
			V240c0.6,0,1-0.1,1.2-0.2c0.2-0.1,0.3-0.4,0.3-0.8c0-0.2,0-0.5-0.1-0.9c-0.1-0.2-0.1-0.5-0.2-0.9l-0.5-1.6H364
			c-0.3,1-0.4,1.7-0.5,2c-0.2,0.7-0.2,1.2-0.2,1.5c0,0.4,0.2,0.6,0.5,0.8c0.2,0.1,0.5,0.1,0.9,0.2v0.7H361V240z M367.9,234.5
			l-1.8-6.1H366l-1.7,6.1H367.9z"/>
		<path d="M374.2,240c0.5,0,0.9-0.1,1.1-0.3c0.4-0.3,0.6-0.8,0.6-1.6v-12.7c0-0.8-0.2-1.3-0.5-1.6c-0.2-0.2-0.6-0.3-1.2-0.3v-0.7
			h6.4v0.7c-0.6,0-1,0.1-1.2,0.3c-0.4,0.3-0.5,0.8-0.5,1.6v12.7c0,0.7,0.1,1.2,0.4,1.5c0.3,0.2,0.7,0.4,1.3,0.4v0.7h-6.4V240z"/>
		<path d="M381.4,240c0.6,0,1-0.2,1.3-0.5c0.2-0.3,0.3-0.9,0.3-1.9V226c0-1-0.1-1.7-0.4-2c-0.2-0.2-0.6-0.3-1.2-0.4v-0.7h5.9
			c1.2,0,2.2,0.2,3,0.6c1.5,0.7,2.2,2.1,2.2,4c0,1.4-0.4,2.5-1.2,3.4c-0.6,0.6-1.2,1-1.9,1.2l3.9,7.5c0.1,0.2,0.2,0.3,0.3,0.4
			c0.1,0.1,0.3,0.1,0.4,0.1v0.6h-3.8l-4.3-8.2h0v5.1c0,0.9,0.1,1.5,0.3,1.9c0.2,0.3,0.6,0.5,1.3,0.5v0.7h-6.2V240z M388.6,230.9
			c0.5-0.5,0.8-1.5,0.8-3.2c0-1-0.1-1.8-0.3-2.4c-0.3-1-1-1.5-1.9-1.5c-0.5,0-0.8,0.1-1,0.3c-0.2,0.2-0.2,0.5-0.2,0.9v6.7
			C387.2,231.6,388.1,231.3,388.6,230.9z"/>
		<path d="M394.7,240.6V240c0.5,0,0.9-0.1,1.1-0.3c0.3-0.3,0.5-0.8,0.5-1.5v-12.7c0-0.8-0.2-1.3-0.5-1.5c-0.2-0.2-0.6-0.3-1.1-0.3
			v-0.7h10.6v5.3h-0.5c-0.2-1.7-0.6-2.8-1.2-3.5c-0.6-0.6-1.6-0.9-3.1-0.9c-0.6,0-0.9,0.1-1.1,0.2c-0.2,0.2-0.2,0.5-0.2,1v6.1
			c1,0,1.8-0.3,2.1-0.8c0.4-0.6,0.7-1.6,0.9-3.1h0.5v8.9h-0.5c-0.1-1.5-0.4-2.5-0.8-3.2s-1.1-0.9-2.2-0.9v6.4c0,0.6,0.1,0.9,0.3,1.1
			c0.2,0.2,0.6,0.3,1.2,0.3c1.2,0,2.1-0.3,2.9-1c0.7-0.6,1.4-1.9,2-3.7h0.5l-0.7,5.5H394.7z"/>
		<path d="M407.4,234.5h0.5c0.3,2,0.8,3.4,1.4,4.3c0.7,0.9,1.4,1.3,2.2,1.3c0.8,0,1.4-0.3,1.8-0.9c0.3-0.6,0.5-1.3,0.5-1.9
			c0-0.8-0.2-1.4-0.5-1.9c-0.2-0.3-0.7-0.7-1.5-1.3l-1.2-0.8c-1.2-0.8-2-1.7-2.5-2.5c-0.5-0.8-0.7-1.8-0.7-3c0-1.3,0.3-2.5,1-3.6
			c0.6-1.1,1.6-1.7,2.9-1.7c0.7,0,1.3,0.1,1.9,0.4c0.6,0.3,1,0.4,1.1,0.4c0.2,0,0.3-0.1,0.4-0.2c0.1-0.2,0.1-0.4,0.2-0.7h0.5v5.7
			H415c-0.2-1.3-0.7-2.5-1.3-3.4s-1.3-1.4-2.2-1.4c-0.6,0-1.1,0.2-1.4,0.7c-0.4,0.5-0.5,1.1-0.5,1.8c0,0.8,0.2,1.4,0.5,1.9
			c0.3,0.4,1.1,1,2.2,1.8l1.4,1c0.6,0.4,1.1,0.9,1.5,1.4c0.7,1,1,2.2,1,3.6c0,1.3-0.4,2.6-1.1,3.7c-0.7,1.2-1.9,1.8-3.5,1.8
			c-0.4,0-0.7,0-1.1-0.1c-0.4-0.1-0.7-0.2-1.1-0.5l-0.4-0.2c-0.1,0-0.2-0.1-0.2-0.1c-0.1,0-0.1,0-0.2,0c-0.2,0-0.3,0.1-0.4,0.2
			c-0.1,0.2-0.1,0.4-0.2,0.7h-0.5V234.5z"/>
		<path d="M421.9,240c0.5,0,0.9-0.1,1.1-0.3c0.4-0.3,0.6-0.8,0.6-1.6v-12.7c0-0.8-0.2-1.3-0.5-1.6c-0.2-0.2-0.6-0.3-1.2-0.3v-0.7
			h6.4v0.7c-0.6,0-1,0.1-1.2,0.3c-0.4,0.3-0.5,0.8-0.5,1.6v12.7c0,0.7,0.1,1.2,0.4,1.5c0.3,0.2,0.7,0.4,1.3,0.4v0.7h-6.4V240z"/>
		<path d="M429,240c0.7,0,1.2-0.2,1.4-0.5c0.2-0.3,0.3-0.9,0.3-1.6v-12.5c0-0.7-0.1-1.2-0.4-1.4c-0.2-0.2-0.7-0.4-1.3-0.4v-0.7h4.6
			l3.6,12.1h0.2l3.6-12.1h4.6v0.7c-0.6,0.1-1,0.2-1.3,0.5c-0.2,0.3-0.3,0.9-0.3,1.9v11.6c0,1,0.1,1.6,0.3,1.9
			c0.2,0.3,0.7,0.5,1.3,0.5v0.7h-6.1V240c0.5,0,1-0.2,1.2-0.4c0.3-0.2,0.4-0.7,0.4-1.5v-12.8h-0.1l-4.5,15.4h-0.5l-4.6-15.1h-0.1
			v11.9c0,0.9,0.1,1.5,0.3,1.9s0.7,0.6,1.5,0.7v0.7H429V240z"/>
		<path d="M446.4,240c0.7,0,1.2-0.2,1.4-0.5c0.2-0.3,0.3-0.9,0.3-1.6v-12.5c0-0.7-0.1-1.2-0.4-1.4c-0.2-0.2-0.7-0.4-1.3-0.4v-0.7
			h4.6l3.6,12.1h0.2l3.6-12.1h4.6v0.7c-0.6,0.1-1,0.2-1.3,0.5c-0.2,0.3-0.3,0.9-0.3,1.9v11.6c0,1,0.1,1.6,0.3,1.9
			c0.2,0.3,0.7,0.5,1.3,0.5v0.7H457V240c0.5,0,1-0.2,1.2-0.4c0.3-0.2,0.4-0.7,0.4-1.5v-12.8h-0.1l-4.5,15.4h-0.5l-4.6-15.1h-0.1
			v11.9c0,0.9,0.1,1.5,0.3,1.9s0.7,0.6,1.5,0.7v0.7h-4.3V240z"/>
		<path d="M475.3,225.1c1.3,1.8,1.9,4,1.9,6.8c0,2.8-0.6,5-1.9,6.8c-1.2,1.7-2.8,2.6-4.6,2.6c-2,0-3.6-0.9-4.8-2.8
			c-1.2-1.8-1.7-3.9-1.7-6.4c0-2.7,0.6-5,1.8-6.8c1.2-1.8,2.8-2.7,4.7-2.7C472.5,222.5,474.1,223.4,475.3,225.1z M473.5,236.8
			c0.3-1.3,0.4-2.9,0.4-4.9c0-2.8-0.3-4.9-0.9-6.3c-0.6-1.4-1.4-2.1-2.4-2.1c-1.4,0-2.3,1.2-2.9,3.5c-0.3,1.3-0.4,2.9-0.4,4.9
			c0,2,0.1,3.7,0.4,4.9c0.5,2.3,1.5,3.5,2.9,3.5C472,240.3,473,239.1,473.5,236.8z"/>
		<path d="M478.1,240c0.5,0,0.9-0.1,1.1-0.3c0.4-0.3,0.5-0.8,0.5-1.6v-12.7c0-0.8-0.2-1.3-0.5-1.5c-0.2-0.2-0.6-0.3-1.1-0.3v-0.7
			h5.7c1.1,0,2,0.2,2.7,0.5c1.4,0.7,2.1,1.9,2.1,3.7c0,1.1-0.3,1.9-0.8,2.6c-0.6,0.6-1.2,1-1.8,1.2v0.2c0.7,0.2,1.3,0.5,1.8,0.9
			c1,0.9,1.5,2.1,1.5,3.6c0,1.5-0.5,2.6-1.4,3.5c-0.9,0.9-2.2,1.4-3.8,1.4h-5.9V240z M485,230.1c0.4-0.5,0.6-1.5,0.6-2.8
			c0-1-0.1-1.8-0.4-2.5c-0.3-0.7-0.7-1-1.5-1c-0.4,0-0.7,0.1-0.8,0.3c-0.1,0.2-0.2,0.5-0.2,1v5.9C483.8,230.9,484.6,230.6,485,230.1
			z M482.9,239.2c0.1,0.4,0.4,0.6,0.9,0.6c0.9,0,1.5-0.3,1.8-1c0.4-0.7,0.5-1.6,0.5-2.9c0-1.9-0.4-3.1-1.2-3.7
			c-0.5-0.4-1.2-0.6-2.2-0.5v6.6C482.7,238.7,482.8,239,482.9,239.2z"/>
		<path d="M490.4,240c0.5,0,0.9-0.1,1.1-0.3c0.4-0.3,0.6-0.8,0.6-1.6v-12.7c0-0.8-0.2-1.3-0.5-1.6c-0.2-0.2-0.6-0.3-1.2-0.3v-0.7
			h6.4v0.7c-0.6,0-1,0.1-1.2,0.3c-0.4,0.3-0.5,0.8-0.5,1.6v12.7c0,0.7,0.1,1.2,0.4,1.5c0.3,0.2,0.7,0.4,1.3,0.4v0.7h-6.4V240z"/>
		<path d="M497.6,240c0.5,0,0.9-0.1,1.1-0.3c0.4-0.3,0.5-0.8,0.5-1.6v-12.7c0-0.8-0.2-1.3-0.5-1.5c-0.2-0.2-0.6-0.3-1.1-0.3v-0.7
			h6.4v0.7c-0.8,0-1.2,0.2-1.5,0.4c-0.2,0.3-0.4,0.9-0.4,1.9v12.4c0,0.6,0.1,1,0.3,1.2c0.2,0.2,0.6,0.3,1.2,0.3c1.1,0,2-0.3,2.8-1
			c0.8-0.7,1.4-2.1,1.9-4.1h0.5l-0.7,5.9h-10.7V240z"/>
		<path d="M509.9,240c0.5,0,0.9-0.1,1.1-0.3c0.4-0.3,0.6-0.8,0.6-1.6v-12.7c0-0.8-0.2-1.3-0.5-1.6c-0.2-0.2-0.6-0.3-1.2-0.3v-0.7
			h6.4v0.7c-0.6,0-1,0.1-1.2,0.3c-0.4,0.3-0.5,0.8-0.5,1.6v12.7c0,0.7,0.1,1.2,0.4,1.5c0.3,0.2,0.7,0.4,1.3,0.4v0.7h-6.4V240z"/>
		<path d="M517.1,240.6V240c0.5,0,0.9-0.1,1.1-0.3c0.3-0.3,0.5-0.8,0.5-1.5v-12.7c0-0.8-0.2-1.3-0.5-1.5c-0.2-0.2-0.6-0.3-1.1-0.3
			v-0.7h10.6v5.3h-0.4c-0.2-1.7-0.6-2.8-1.2-3.5c-0.6-0.6-1.6-0.9-3.1-0.9c-0.6,0-0.9,0.1-1.1,0.2c-0.2,0.2-0.2,0.5-0.2,1v6.1
			c1,0,1.8-0.3,2.1-0.8c0.4-0.6,0.7-1.6,0.9-3.1h0.5v8.9h-0.5c-0.1-1.5-0.4-2.5-0.8-3.2c-0.4-0.6-1.1-0.9-2.2-0.9v6.4
			c0,0.6,0.1,0.9,0.3,1.1c0.2,0.2,0.6,0.3,1.2,0.3c1.2,0,2.1-0.3,2.9-1c0.7-0.6,1.4-1.9,2-3.7h0.5l-0.7,5.5H517.1z"/>
		<path d="M529.4,240c0.6,0,1-0.2,1.3-0.5c0.2-0.3,0.3-0.9,0.3-1.9V226c0-1-0.1-1.7-0.4-2c-0.2-0.2-0.6-0.3-1.2-0.4v-0.7h5.9
			c1.2,0,2.2,0.2,3,0.6c1.5,0.7,2.2,2.1,2.2,4c0,1.4-0.4,2.5-1.2,3.4c-0.6,0.6-1.2,1-1.9,1.2l3.9,7.5c0.1,0.2,0.2,0.3,0.3,0.4
			c0.1,0.1,0.3,0.1,0.4,0.1v0.6h-3.8l-4.3-8.2h0v5.1c0,0.9,0.1,1.5,0.3,1.9c0.2,0.3,0.6,0.5,1.3,0.5v0.7h-6.2V240z M536.6,230.9
			c0.5-0.5,0.8-1.5,0.8-3.2c0-1-0.1-1.8-0.3-2.4c-0.3-1-1-1.5-1.9-1.5c-0.5,0-0.8,0.1-1,0.3c-0.2,0.2-0.2,0.5-0.2,0.9v6.7
			C535.2,231.6,536,231.3,536.6,230.9z"/>
		<path d="M543,234.5h0.5c0.3,2,0.8,3.4,1.4,4.3c0.7,0.9,1.4,1.3,2.2,1.3c0.8,0,1.4-0.3,1.8-0.9c0.3-0.6,0.5-1.3,0.5-1.9
			c0-0.8-0.2-1.4-0.5-1.9c-0.2-0.3-0.7-0.7-1.5-1.3l-1.2-0.8c-1.2-0.8-2-1.7-2.5-2.5c-0.5-0.8-0.7-1.8-0.7-3c0-1.3,0.3-2.5,1-3.6
			c0.6-1.1,1.6-1.7,2.9-1.7c0.7,0,1.3,0.1,1.9,0.4c0.6,0.3,1,0.4,1.1,0.4c0.2,0,0.3-0.1,0.4-0.2c0.1-0.2,0.1-0.4,0.2-0.7h0.5v5.7
			h-0.5c-0.2-1.3-0.7-2.5-1.3-3.4s-1.3-1.4-2.2-1.4c-0.6,0-1.1,0.2-1.4,0.7c-0.4,0.5-0.5,1.1-0.5,1.8c0,0.8,0.2,1.4,0.5,1.9
			c0.3,0.4,1.1,1,2.2,1.8l1.4,1c0.6,0.4,1.1,0.9,1.5,1.4c0.7,1,1,2.2,1,3.6c0,1.3-0.4,2.6-1.1,3.7c-0.7,1.2-1.9,1.8-3.5,1.8
			c-0.4,0-0.7,0-1.1-0.1c-0.4-0.1-0.7-0.2-1.1-0.5l-0.4-0.2c-0.1,0-0.2-0.1-0.2-0.1c-0.1,0-0.1,0-0.2,0c-0.2,0-0.3,0.1-0.4,0.2
			c-0.1,0.2-0.1,0.4-0.2,0.7H543V234.5z"/>
	</g>
	<g class="st4">
		<path d="M57.3,295.4v0.6c-0.7,0-1.2,0.2-1.4,0.5c-0.2,0.3-0.4,0.9-0.4,1.9v8.5c0,1.3,0.1,2.3,0.3,3c0.4,1.3,1.2,2,2.3,2
			c1.4,0,2.4-0.7,2.9-2.2c0.3-0.8,0.4-1.9,0.4-3.3v-7.8c0-0.9-0.1-1.5-0.4-1.9c-0.2-0.3-0.7-0.6-1.4-0.6v-0.6h4v0.6
			c-0.6,0.2-1,0.3-1.2,0.6s-0.3,0.7-0.3,1.6v8.1c0,2.2-0.4,3.8-1.1,5c-0.8,1.2-1.9,1.8-3.6,1.8c-2.1,0-3.6-0.9-4.3-2.6
			c-0.4-0.9-0.6-2.1-0.6-3.6v-8.5c0-1-0.1-1.6-0.3-1.8c-0.2-0.2-0.6-0.4-1.2-0.5v-0.6H57.3z"/>
		<path d="M64.4,311.9c0.7,0,1.1-0.2,1.3-0.5s0.3-0.8,0.3-1.5v-12c-0.6-0.9-0.9-1.4-1-1.5s-0.3-0.2-0.5-0.3v-0.6h3.9l6.3,10.6h0.1
			v-7.5c0-0.9-0.1-1.5-0.3-1.8c-0.2-0.4-0.7-0.6-1.4-0.7v-0.6h4v0.6c-0.6,0.1-1,0.3-1.2,0.5c-0.2,0.2-0.3,0.7-0.3,1.5v15H75
			l-8.1-13.6h-0.1v10c0,0.8,0.1,1.3,0.2,1.7c0.2,0.5,0.7,0.8,1.5,0.8v0.6h-4.2V311.9z"/>
		<path d="M77.6,311.9c0.5,0,0.9-0.1,1.1-0.3c0.4-0.3,0.6-0.8,0.6-1.5v-12.3c0-0.7-0.2-1.2-0.5-1.5c-0.2-0.2-0.6-0.2-1.2-0.3v-0.6
			h6.4v0.6c-0.6,0-1,0.1-1.2,0.3c-0.4,0.3-0.5,0.8-0.5,1.5v12.3c0,0.7,0.1,1.2,0.4,1.4c0.3,0.2,0.7,0.4,1.3,0.4v0.6h-6.4V311.9z"/>
		<path d="M96.3,297.5c1.3,1.7,1.9,3.9,1.9,6.5c0,2.7-0.6,4.9-1.9,6.5c-1.2,1.7-2.8,2.5-4.6,2.5c-2,0-3.6-0.9-4.8-2.7
			c-1.2-1.7-1.7-3.8-1.7-6.2c0-2.7,0.6-4.8,1.8-6.6c1.2-1.7,2.8-2.6,4.7-2.6C93.5,295,95,295.9,96.3,297.5z M94.5,308.8
			c0.3-1.2,0.4-2.8,0.4-4.8c0-2.7-0.3-4.7-0.9-6.1c-0.6-1.4-1.4-2.1-2.4-2.1c-1.4,0-2.3,1.1-2.9,3.4c-0.3,1.2-0.4,2.8-0.4,4.7
			c0,2,0.1,3.6,0.4,4.8c0.5,2.3,1.5,3.4,2.9,3.4C93,312.2,94,311.1,94.5,308.8z"/>
		<path d="M99.1,311.9c0.7,0,1.1-0.2,1.3-0.5s0.3-0.8,0.3-1.5v-12c-0.6-0.9-0.9-1.4-1-1.5s-0.3-0.2-0.5-0.3v-0.6h3.9l6.3,10.6h0.1
			v-7.5c0-0.9-0.1-1.5-0.3-1.8c-0.2-0.4-0.7-0.6-1.4-0.7v-0.6h4v0.6c-0.6,0.1-1,0.3-1.2,0.5c-0.2,0.2-0.3,0.7-0.3,1.5v15h-0.5
			l-8.1-13.6h-0.1v10c0,0.8,0.1,1.3,0.2,1.7c0.2,0.5,0.7,0.8,1.5,0.8v0.6h-4.2V311.9z"/>
		<path d="M117,311.9c0.7,0,1.1-0.2,1.3-0.5s0.3-0.8,0.3-1.5v-12c-0.6-0.9-0.9-1.4-1-1.5s-0.3-0.2-0.5-0.3v-0.6h3.9l6.3,10.6h0.1
			v-7.5c0-0.9-0.1-1.5-0.3-1.8c-0.2-0.4-0.7-0.6-1.4-0.7v-0.6h4v0.6c-0.6,0.1-1,0.3-1.2,0.5c-0.2,0.2-0.3,0.7-0.3,1.5v15h-0.5
			l-8.1-13.6h-0.1v10c0,0.8,0.1,1.3,0.2,1.7c0.2,0.5,0.7,0.8,1.5,0.8v0.6H117V311.9z"/>
		<path d="M130.3,311.9c0.4,0,0.8-0.3,1.1-0.8c0.2-0.3,0.4-1,0.7-2.1l4.1-13.9h0.5l4.1,13.3c0.5,1.5,0.8,2.5,1,2.9
			c0.2,0.4,0.6,0.6,1,0.6v0.6h-6v-0.6c0.6,0,1-0.1,1.2-0.2c0.2-0.1,0.3-0.4,0.3-0.8c0-0.2,0-0.5-0.1-0.9c-0.1-0.2-0.1-0.5-0.2-0.9
			l-0.5-1.5h-4.1c-0.3,1-0.4,1.7-0.5,2c-0.2,0.7-0.2,1.1-0.2,1.4c0,0.4,0.2,0.6,0.5,0.8c0.2,0.1,0.5,0.1,0.9,0.1v0.6h-3.8V311.9z
			 M137.2,306.6l-1.8-5.9h-0.2l-1.7,5.9H137.2z"/>
		<path d="M142.4,295.4h11.1l0,5.1H153c-0.2-1.8-0.7-3.1-1.5-3.7c-0.5-0.4-1.2-0.6-2.1-0.6v13.4c0,0.9,0.1,1.6,0.4,1.9
			c0.2,0.3,0.7,0.5,1.5,0.5v0.6h-6.6v-0.6c0.7,0,1.2-0.2,1.4-0.5c0.2-0.3,0.4-0.9,0.4-1.9v-13.4c-0.9,0-1.6,0.2-2.1,0.6
			c-0.9,0.7-1.4,1.9-1.5,3.7h-0.5L142.4,295.4z"/>
		<path d="M154.5,311.9c0.5,0,0.9-0.1,1.1-0.3c0.4-0.3,0.6-0.8,0.6-1.5v-12.3c0-0.7-0.2-1.2-0.5-1.5c-0.2-0.2-0.6-0.2-1.2-0.3v-0.6
			h6.4v0.6c-0.6,0-1,0.1-1.2,0.3c-0.4,0.3-0.5,0.8-0.5,1.5v12.3c0,0.7,0.1,1.2,0.4,1.4c0.3,0.2,0.7,0.4,1.3,0.4v0.6h-6.4V311.9z"/>
		<path d="M173.1,297.5c1.3,1.7,1.9,3.9,1.9,6.5c0,2.7-0.6,4.9-1.9,6.5c-1.2,1.7-2.8,2.5-4.6,2.5c-2,0-3.6-0.9-4.8-2.7
			c-1.2-1.7-1.7-3.8-1.7-6.2c0-2.7,0.6-4.8,1.8-6.6c1.2-1.7,2.8-2.6,4.7-2.6C170.4,295,171.9,295.9,173.1,297.5z M171.3,308.8
			c0.3-1.2,0.4-2.8,0.4-4.8c0-2.7-0.3-4.7-0.9-6.1c-0.6-1.4-1.4-2.1-2.4-2.1c-1.4,0-2.3,1.1-2.9,3.4c-0.3,1.2-0.4,2.8-0.4,4.7
			c0,2,0.1,3.6,0.4,4.8c0.5,2.3,1.5,3.4,2.9,3.4C169.9,312.2,170.8,311.1,171.3,308.8z"/>
		<path d="M176,311.9c0.7,0,1.1-0.2,1.3-0.5c0.2-0.3,0.3-0.8,0.3-1.5v-12c-0.6-0.9-0.9-1.4-1-1.5s-0.3-0.2-0.5-0.3v-0.6h3.9
			l6.3,10.6h0.1v-7.5c0-0.9-0.1-1.5-0.3-1.8c-0.2-0.4-0.7-0.6-1.4-0.7v-0.6h4v0.6c-0.6,0.1-1,0.3-1.2,0.5c-0.2,0.2-0.3,0.7-0.3,1.5
			v15h-0.5l-8.1-13.6h-0.1v10c0,0.8,0.1,1.3,0.2,1.7c0.2,0.5,0.7,0.8,1.5,0.8v0.6H176V311.9z"/>
		<path d="M189.3,311.9c0.4,0,0.8-0.3,1.1-0.8c0.2-0.3,0.4-1,0.7-2.1l4.1-13.9h0.5l4.1,13.3c0.5,1.5,0.8,2.5,1,2.9
			c0.2,0.4,0.6,0.6,1,0.6v0.6h-6v-0.6c0.6,0,1-0.1,1.2-0.2c0.2-0.1,0.3-0.4,0.3-0.8c0-0.2,0-0.5-0.1-0.9c-0.1-0.2-0.1-0.5-0.2-0.9
			l-0.5-1.5h-4.1c-0.3,1-0.4,1.7-0.5,2c-0.2,0.7-0.2,1.1-0.2,1.4c0,0.4,0.2,0.6,0.5,0.8c0.2,0.1,0.5,0.1,0.9,0.1v0.6h-3.8V311.9z
			 M196.2,306.6l-1.8-5.9h-0.2l-1.7,5.9H196.2z"/>
		<path d="M202.6,311.9c0.5,0,0.9-0.1,1.1-0.3c0.4-0.3,0.5-0.8,0.5-1.5v-12.3c0-0.7-0.2-1.2-0.5-1.5c-0.2-0.2-0.6-0.3-1.1-0.3v-0.6
			h6.4v0.6c-0.7,0-1.2,0.2-1.5,0.4c-0.2,0.3-0.4,0.9-0.4,1.9v12c0,0.6,0.1,0.9,0.3,1.1s0.6,0.3,1.2,0.3c1.1,0,2-0.3,2.8-1
			s1.4-2,1.9-3.9h0.5l-0.7,5.8h-10.7V311.9z"/>
		<path d="M214.8,312.6v-0.6c0.5,0,0.9-0.1,1.1-0.3c0.3-0.3,0.5-0.8,0.5-1.5v-12.3c0-0.7-0.2-1.2-0.5-1.5c-0.2-0.2-0.6-0.3-1.1-0.3
			v-0.6h10.6v5.1H225c-0.2-1.6-0.6-2.8-1.2-3.4c-0.6-0.6-1.6-0.9-3.1-0.9c-0.6,0-0.9,0.1-1.1,0.2s-0.2,0.5-0.2,1v5.9
			c1,0,1.8-0.2,2.1-0.8c0.4-0.5,0.7-1.5,0.9-3h0.5v8.6h-0.5c-0.1-1.4-0.4-2.5-0.8-3.1c-0.4-0.6-1.1-0.9-2.2-0.9v6.1
			c0,0.5,0.1,0.9,0.3,1.1c0.2,0.2,0.6,0.3,1.2,0.3c1.2,0,2.1-0.3,2.9-0.9s1.4-1.8,2-3.5h0.5l-0.7,5.3H214.8z"/>
		<path d="M231.7,311.9c0.5,0,0.8-0.1,1-0.3c0.4-0.3,0.5-0.7,0.5-1.4v-12.5c0-0.7-0.2-1.1-0.5-1.4c-0.2-0.1-0.5-0.3-1-0.3v-0.6h5.6
			c2.3,0,4,0.8,5.2,2.5c1.1,1.5,1.6,3.6,1.6,6.1c0,2.3-0.5,4.2-1.6,5.8c-1.2,1.8-2.9,2.7-5,2.7h-5.8V311.9z M236.4,311.4
			c0.1,0.2,0.4,0.3,0.8,0.3c1.1,0,2-0.5,2.7-1.6s1.1-3.1,1.1-6.1c0-1.8-0.2-3.3-0.6-4.6c-0.6-2.1-1.6-3.1-3.1-3.1
			c-0.5,0-0.8,0.1-0.9,0.4c-0.1,0.2-0.1,0.5-0.1,1.1v12.5C236.2,310.8,236.3,311.1,236.4,311.4z"/>
		<path d="M245,312.6v-0.6c0.5,0,0.9-0.1,1.1-0.3c0.3-0.3,0.5-0.8,0.5-1.5v-12.3c0-0.7-0.2-1.2-0.5-1.5c-0.2-0.2-0.6-0.3-1.1-0.3
			v-0.6h10.6v5.1h-0.4c-0.2-1.6-0.6-2.8-1.2-3.4c-0.6-0.6-1.6-0.9-3.1-0.9c-0.6,0-0.9,0.1-1.1,0.2s-0.2,0.5-0.2,1v5.9
			c1,0,1.8-0.2,2.1-0.8c0.4-0.5,0.7-1.5,0.9-3h0.5v8.6h-0.5c-0.1-1.4-0.4-2.5-0.8-3.1c-0.4-0.6-1.1-0.9-2.2-0.9v6.1
			c0,0.5,0.1,0.9,0.3,1.1c0.2,0.2,0.6,0.3,1.2,0.3c1.2,0,2.1-0.3,2.9-0.9s1.4-1.8,2-3.5h0.5l-0.7,5.3H245z"/>
		<path d="M257.6,306.6h0.5c0.3,1.9,0.8,3.3,1.4,4.1s1.4,1.3,2.2,1.3c0.8,0,1.4-0.3,1.7-0.9c0.3-0.6,0.5-1.2,0.5-1.9
			c0-0.8-0.2-1.4-0.5-1.9c-0.2-0.3-0.7-0.7-1.5-1.2l-1.2-0.8c-1.2-0.8-2-1.6-2.5-2.4c-0.5-0.8-0.7-1.8-0.7-2.9c0-1.2,0.3-2.4,1-3.5
			c0.6-1.1,1.6-1.6,2.9-1.6c0.7,0,1.3,0.1,1.9,0.4c0.6,0.3,1,0.4,1.1,0.4c0.2,0,0.3-0.1,0.4-0.2c0.1-0.2,0.1-0.4,0.2-0.6h0.5v5.5
			h-0.5c-0.2-1.3-0.7-2.4-1.3-3.3c-0.6-0.9-1.3-1.4-2.2-1.4c-0.6,0-1.1,0.2-1.4,0.7c-0.4,0.5-0.5,1-0.5,1.7c0,0.8,0.2,1.4,0.5,1.8
			c0.3,0.4,1.1,1,2.2,1.8l1.4,0.9c0.6,0.4,1.1,0.9,1.4,1.4c0.7,1,1,2.1,1,3.5c0,1.3-0.4,2.5-1.1,3.6c-0.7,1.1-1.9,1.7-3.5,1.7
			c-0.4,0-0.7,0-1.1-0.1c-0.4-0.1-0.7-0.2-1.1-0.4l-0.4-0.2c-0.1,0-0.2-0.1-0.2-0.1c-0.1,0-0.1,0-0.2,0c-0.2,0-0.3,0.1-0.4,0.2
			c-0.1,0.2-0.1,0.4-0.2,0.7h-0.5V306.6z"/>
		<path d="M272.1,311.9c0.6-0.1,1-0.2,1.2-0.5s0.3-0.9,0.3-1.8v-11.2c0-1-0.1-1.6-0.3-1.8c-0.2-0.3-0.6-0.4-1.2-0.5v-0.6h5.9
			c1.6,0,2.8,0.4,3.6,1.1c0.8,0.7,1.2,1.9,1.2,3.6c0,0.8-0.2,1.6-0.5,2.3c-0.3,0.7-0.8,1.3-1.6,1.8c-0.6,0.3-1.1,0.5-1.7,0.6
			s-1.4,0.1-2.5,0.1v4.7c0,0.9,0.1,1.5,0.3,1.8c0.2,0.3,0.7,0.5,1.3,0.5v0.6h-6.1V311.9z M278.8,303.5c0.6-0.5,0.9-1.6,0.9-3.3
			c0-1.2-0.1-2.1-0.4-2.8c-0.3-0.7-0.8-1.1-1.6-1.1c-0.4,0-0.6,0.1-0.8,0.2c-0.2,0.1-0.2,0.4-0.2,0.7v6.8
			C277.7,304,278.4,303.8,278.8,303.5z"/>
		<path d="M283.3,311.9c0.6,0,1-0.2,1.3-0.5s0.3-0.9,0.3-1.8v-11.2c0-1-0.1-1.6-0.4-1.9c-0.2-0.2-0.6-0.3-1.2-0.4v-0.6h5.9
			c1.2,0,2.2,0.2,3,0.5c1.5,0.7,2.2,2,2.2,3.9c0,1.4-0.4,2.5-1.2,3.3c-0.6,0.6-1.2,1-1.9,1.1l3.9,7.2c0.1,0.2,0.2,0.3,0.3,0.4
			c0.1,0.1,0.3,0.1,0.4,0.1v0.6h-3.8l-4.3-7.9h0v5c0,0.9,0.1,1.5,0.3,1.8c0.2,0.3,0.6,0.5,1.3,0.5v0.6h-6.2V311.9z M290.5,303.1
			c0.5-0.4,0.8-1.5,0.8-3.1c0-1-0.1-1.8-0.3-2.3c-0.3-1-1-1.5-1.9-1.5c-0.5,0-0.8,0.1-1,0.3c-0.2,0.2-0.2,0.4-0.2,0.8v6.5
			C289.2,303.8,290,303.6,290.5,303.1z"/>
		<path d="M308.1,297.5c1.3,1.7,1.9,3.9,1.9,6.5c0,2.7-0.6,4.9-1.9,6.5c-1.2,1.7-2.8,2.5-4.6,2.5c-2,0-3.6-0.9-4.8-2.7
			c-1.2-1.7-1.7-3.8-1.7-6.2c0-2.7,0.6-4.8,1.8-6.6c1.2-1.7,2.8-2.6,4.7-2.6C305.3,295,306.9,295.9,308.1,297.5z M306.3,308.8
			c0.3-1.2,0.4-2.8,0.4-4.8c0-2.7-0.3-4.7-0.9-6.1c-0.6-1.4-1.4-2.1-2.4-2.1c-1.4,0-2.3,1.1-2.9,3.4c-0.3,1.2-0.4,2.8-0.4,4.7
			c0,2,0.1,3.6,0.4,4.8c0.5,2.3,1.5,3.4,2.9,3.4C304.9,312.2,305.8,311.1,306.3,308.8z"/>
		<path d="M311,311.9c0.6-0.1,1-0.2,1.2-0.5s0.3-0.9,0.3-1.8v-11.2c0-1-0.1-1.6-0.3-1.8c-0.2-0.3-0.6-0.4-1.2-0.5v-0.6h5.9
			c1.6,0,2.8,0.4,3.6,1.1s1.2,1.9,1.2,3.6c0,0.8-0.2,1.6-0.5,2.3c-0.3,0.7-0.8,1.3-1.6,1.8c-0.6,0.3-1.1,0.5-1.7,0.6
			c-0.6,0.1-1.4,0.1-2.5,0.1v4.7c0,0.9,0.1,1.5,0.3,1.8c0.2,0.3,0.7,0.5,1.3,0.5v0.6H311V311.9z M317.7,303.5
			c0.6-0.5,0.9-1.6,0.9-3.3c0-1.2-0.1-2.1-0.4-2.8c-0.3-0.7-0.8-1.1-1.6-1.1c-0.4,0-0.6,0.1-0.8,0.2s-0.2,0.4-0.2,0.7v6.8
			C316.6,304,317.3,303.8,317.7,303.5z"/>
		<path d="M322.2,311.9c0.6,0,1-0.2,1.3-0.5c0.2-0.3,0.3-0.9,0.3-1.8v-11.2c0-1-0.1-1.6-0.4-1.9c-0.2-0.2-0.6-0.3-1.2-0.4v-0.6h5.9
			c1.2,0,2.2,0.2,3,0.5c1.5,0.7,2.2,2,2.2,3.9c0,1.4-0.4,2.5-1.2,3.3c-0.6,0.6-1.2,1-1.9,1.1l3.9,7.2c0.1,0.2,0.2,0.3,0.3,0.4
			s0.3,0.1,0.4,0.1v0.6h-3.8l-4.3-7.9h0v5c0,0.9,0.1,1.5,0.3,1.8s0.6,0.5,1.3,0.5v0.6h-6.2V311.9z M329.4,303.1
			c0.5-0.4,0.8-1.5,0.8-3.1c0-1-0.1-1.8-0.3-2.3c-0.3-1-1-1.5-1.9-1.5c-0.5,0-0.8,0.1-1,0.3c-0.2,0.2-0.2,0.4-0.2,0.8v6.5
			C328,303.8,328.9,303.6,329.4,303.1z"/>
		<path d="M335.5,311.9c0.5,0,0.9-0.1,1.1-0.3c0.4-0.3,0.6-0.8,0.6-1.5v-12.3c0-0.7-0.2-1.2-0.5-1.5c-0.2-0.2-0.6-0.2-1.2-0.3v-0.6
			h6.4v0.6c-0.6,0-1,0.1-1.2,0.3c-0.4,0.3-0.5,0.8-0.5,1.5v12.3c0,0.7,0.1,1.2,0.4,1.4s0.7,0.4,1.3,0.4v0.6h-6.4V311.9z"/>
		<path d="M342.6,312.6v-0.6c0.5,0,0.9-0.1,1.1-0.3c0.3-0.3,0.5-0.8,0.5-1.5v-12.3c0-0.7-0.2-1.2-0.5-1.5c-0.2-0.2-0.6-0.3-1.1-0.3
			v-0.6h10.6v5.1h-0.4c-0.2-1.6-0.6-2.8-1.2-3.4c-0.6-0.6-1.6-0.9-3.1-0.9c-0.6,0-0.9,0.1-1.1,0.2s-0.2,0.5-0.2,1v5.9
			c1,0,1.8-0.2,2.1-0.8c0.4-0.5,0.7-1.5,0.9-3h0.5v8.6h-0.5c-0.1-1.4-0.4-2.5-0.8-3.1c-0.4-0.6-1.1-0.9-2.2-0.9v6.1
			c0,0.5,0.1,0.9,0.3,1.1c0.2,0.2,0.6,0.3,1.2,0.3c1.2,0,2.1-0.3,2.9-0.9c0.7-0.6,1.4-1.8,2-3.5h0.5l-0.7,5.3H342.6z M351.1,290.8
			c-0.1,0.2-0.3,0.4-0.5,0.6l-2.5,2.2h-1l2.4-4c0.1-0.2,0.2-0.3,0.3-0.4c0.2-0.2,0.4-0.3,0.6-0.3c0.3,0,0.5,0.1,0.6,0.3
			c0.1,0.2,0.2,0.5,0.2,0.8C351.3,290.4,351.2,290.6,351.1,290.8z"/>
		<path d="M355.1,295.4h11.1l0,5.1h-0.5c-0.2-1.8-0.7-3.1-1.5-3.7c-0.5-0.4-1.2-0.6-2.1-0.6v13.4c0,0.9,0.1,1.6,0.4,1.9
			c0.2,0.3,0.7,0.5,1.5,0.5v0.6h-6.6v-0.6c0.7,0,1.2-0.2,1.4-0.5c0.2-0.3,0.4-0.9,0.4-1.9v-13.4c-0.9,0-1.6,0.2-2.1,0.6
			c-0.9,0.7-1.4,1.9-1.5,3.7h-0.5L355.1,295.4z"/>
		<path d="M365.9,311.9c0.4,0,0.8-0.3,1.1-0.8c0.2-0.3,0.4-1,0.7-2.1l4.1-13.9h0.5l4.1,13.3c0.5,1.5,0.8,2.5,1,2.9
			c0.2,0.4,0.6,0.6,1,0.6v0.6h-6v-0.6c0.6,0,1-0.1,1.2-0.2c0.2-0.1,0.3-0.4,0.3-0.8c0-0.2,0-0.5-0.1-0.9c-0.1-0.2-0.1-0.5-0.2-0.9
			l-0.5-1.5h-4.1c-0.3,1-0.4,1.7-0.5,2c-0.2,0.7-0.2,1.1-0.2,1.4c0,0.4,0.2,0.6,0.5,0.8c0.2,0.1,0.5,0.1,0.9,0.1v0.6h-3.8V311.9z
			 M372.8,306.6l-1.8-5.9h-0.2l-1.7,5.9H372.8z"/>
		<path d="M379.1,311.9c0.5,0,0.9-0.1,1.1-0.3c0.4-0.3,0.6-0.8,0.6-1.5v-12.3c0-0.7-0.2-1.2-0.5-1.5c-0.2-0.2-0.6-0.2-1.2-0.3v-0.6
			h6.4v0.6c-0.6,0-1,0.1-1.2,0.3c-0.4,0.3-0.5,0.8-0.5,1.5v12.3c0,0.7,0.1,1.2,0.4,1.4s0.7,0.4,1.3,0.4v0.6h-6.4V311.9z"/>
		<path d="M386.3,311.9c0.6,0,1-0.2,1.3-0.5c0.2-0.3,0.3-0.9,0.3-1.8v-11.2c0-1-0.1-1.6-0.4-1.9c-0.2-0.2-0.6-0.3-1.2-0.4v-0.6h5.9
			c1.2,0,2.2,0.2,3,0.5c1.5,0.7,2.2,2,2.2,3.9c0,1.4-0.4,2.5-1.2,3.3c-0.6,0.6-1.2,1-1.9,1.1l3.9,7.2c0.1,0.2,0.2,0.3,0.3,0.4
			c0.1,0.1,0.3,0.1,0.4,0.1v0.6h-3.8l-4.3-7.9h0v5c0,0.9,0.1,1.5,0.3,1.8s0.6,0.5,1.3,0.5v0.6h-6.2V311.9z M393.5,303.1
			c0.5-0.4,0.8-1.5,0.8-3.1c0-1-0.1-1.8-0.3-2.3c-0.3-1-1-1.5-1.9-1.5c-0.5,0-0.8,0.1-1,0.3c-0.2,0.2-0.2,0.4-0.2,0.8v6.5
			C392.1,303.8,393,303.6,393.5,303.1z"/>
		<path d="M399.6,312.6v-0.6c0.5,0,0.9-0.1,1.1-0.3c0.3-0.3,0.5-0.8,0.5-1.5v-12.3c0-0.7-0.2-1.2-0.5-1.5c-0.2-0.2-0.6-0.3-1.1-0.3
			v-0.6h10.6v5.1h-0.4c-0.2-1.6-0.6-2.8-1.2-3.4c-0.6-0.6-1.6-0.9-3.1-0.9c-0.6,0-0.9,0.1-1.1,0.2c-0.2,0.2-0.2,0.5-0.2,1v5.9
			c1,0,1.8-0.2,2.1-0.8s0.7-1.5,0.9-3h0.5v8.6h-0.5c-0.1-1.4-0.4-2.5-0.8-3.1c-0.4-0.6-1.1-0.9-2.2-0.9v6.1c0,0.5,0.1,0.9,0.3,1.1
			s0.6,0.3,1.2,0.3c1.2,0,2.1-0.3,2.9-0.9c0.7-0.6,1.4-1.8,2-3.5h0.5l-0.7,5.3H399.6z"/>
		<path d="M412.2,306.6h0.5c0.3,1.9,0.8,3.3,1.4,4.1c0.7,0.9,1.4,1.3,2.2,1.3c0.8,0,1.4-0.3,1.7-0.9c0.3-0.6,0.5-1.2,0.5-1.9
			c0-0.8-0.2-1.4-0.5-1.9c-0.2-0.3-0.7-0.7-1.5-1.2l-1.2-0.8c-1.2-0.8-2-1.6-2.5-2.4c-0.5-0.8-0.7-1.8-0.7-2.9
			c0-1.2,0.3-2.4,0.9-3.5c0.6-1.1,1.6-1.6,2.9-1.6c0.7,0,1.3,0.1,1.9,0.4c0.6,0.3,1,0.4,1.1,0.4c0.2,0,0.3-0.1,0.4-0.2
			s0.1-0.4,0.2-0.6h0.5v5.5h-0.5c-0.2-1.3-0.7-2.4-1.3-3.3c-0.6-0.9-1.3-1.4-2.2-1.4c-0.6,0-1.1,0.2-1.4,0.7c-0.4,0.5-0.5,1-0.5,1.7
			c0,0.8,0.2,1.4,0.5,1.8c0.3,0.4,1.1,1,2.2,1.8l1.4,0.9c0.6,0.4,1.1,0.9,1.4,1.4c0.7,1,1,2.1,1,3.5c0,1.3-0.4,2.5-1.1,3.6
			c-0.7,1.1-1.9,1.7-3.5,1.7c-0.4,0-0.7,0-1.1-0.1c-0.4-0.1-0.7-0.2-1.1-0.4l-0.4-0.2c-0.1,0-0.2-0.1-0.2-0.1c-0.1,0-0.1,0-0.2,0
			c-0.2,0-0.3,0.1-0.4,0.2c-0.1,0.2-0.1,0.4-0.2,0.7h-0.5V306.6z"/>
		<path d="M426.7,311.9c0.5,0,0.9-0.1,1.1-0.3c0.4-0.3,0.6-0.8,0.6-1.5v-12.3c0-0.7-0.2-1.2-0.5-1.5c-0.2-0.2-0.6-0.2-1.2-0.3v-0.6
			h6.4v0.6c-0.6,0-1,0.1-1.2,0.3c-0.4,0.3-0.5,0.8-0.5,1.5v12.3c0,0.7,0.1,1.2,0.4,1.4c0.3,0.2,0.7,0.4,1.3,0.4v0.6h-6.4V311.9z"/>
		<path d="M433.8,311.9c0.7,0,1.2-0.2,1.4-0.5s0.3-0.8,0.3-1.5v-12.1c0-0.7-0.1-1.1-0.4-1.4c-0.2-0.2-0.7-0.4-1.3-0.4v-0.6h4.6
			l3.6,11.8h0.2l3.6-11.8h4.6v0.6c-0.6,0.1-1,0.2-1.3,0.5c-0.2,0.2-0.3,0.9-0.3,1.8v11.2c0,0.9,0.1,1.5,0.3,1.8
			c0.2,0.3,0.7,0.5,1.3,0.5v0.6h-6.1v-0.6c0.5,0,1-0.2,1.2-0.4c0.3-0.2,0.4-0.7,0.4-1.5v-12.4h-0.1l-4.5,14.9h-0.5l-4.6-14.6h-0.1
			v11.5c0,0.8,0.1,1.5,0.3,1.9c0.2,0.4,0.7,0.6,1.5,0.6v0.6h-4.3V311.9z"/>
		<path d="M451.2,311.9c0.7,0,1.2-0.2,1.4-0.5s0.3-0.8,0.3-1.5v-12.1c0-0.7-0.1-1.1-0.4-1.4c-0.2-0.2-0.7-0.4-1.3-0.4v-0.6h4.6
			l3.6,11.8h0.2l3.6-11.8h4.6v0.6c-0.6,0.1-1,0.2-1.3,0.5c-0.2,0.2-0.3,0.9-0.3,1.8v11.2c0,0.9,0.1,1.5,0.3,1.8
			c0.2,0.3,0.7,0.5,1.3,0.5v0.6h-6.1v-0.6c0.5,0,1-0.2,1.2-0.4c0.3-0.2,0.4-0.7,0.4-1.5v-12.4h-0.1l-4.5,14.9h-0.5l-4.6-14.6h-0.1
			v11.5c0,0.8,0.1,1.5,0.3,1.9c0.2,0.4,0.7,0.6,1.5,0.6v0.6h-4.3V311.9z"/>
		<path d="M480.1,297.5c1.3,1.7,1.9,3.9,1.9,6.5c0,2.7-0.6,4.9-1.9,6.5c-1.2,1.7-2.8,2.5-4.6,2.5c-2,0-3.6-0.9-4.8-2.7
			c-1.2-1.7-1.7-3.8-1.7-6.2c0-2.7,0.6-4.8,1.8-6.6c1.2-1.7,2.8-2.6,4.7-2.6C477.3,295,478.8,295.9,480.1,297.5z M478.3,308.8
			c0.3-1.2,0.4-2.8,0.4-4.8c0-2.7-0.3-4.7-0.9-6.1c-0.6-1.4-1.4-2.1-2.4-2.1c-1.4,0-2.3,1.1-2.9,3.4c-0.3,1.2-0.4,2.8-0.4,4.7
			c0,2,0.1,3.6,0.4,4.8c0.5,2.3,1.5,3.4,2.9,3.4C476.8,312.2,477.8,311.1,478.3,308.8z"/>
		<path d="M482.9,311.9c0.5,0,0.9-0.1,1.1-0.3c0.4-0.3,0.5-0.8,0.5-1.5v-12.3c0-0.7-0.2-1.2-0.5-1.5c-0.2-0.2-0.6-0.3-1.1-0.3v-0.6
			h5.7c1.1,0,2,0.2,2.7,0.5c1.4,0.7,2,1.8,2,3.6c0,1-0.3,1.9-0.8,2.5c-0.6,0.6-1.2,1-1.8,1.2v0.2c0.7,0.2,1.3,0.5,1.8,0.9
			c1,0.8,1.5,2,1.5,3.5c0,1.4-0.5,2.5-1.4,3.4c-0.9,0.9-2.2,1.3-3.8,1.3h-5.9V311.9z M489.8,302.3c0.4-0.5,0.6-1.4,0.6-2.7
			c0-1-0.1-1.8-0.4-2.4c-0.3-0.7-0.7-1-1.5-1c-0.4,0-0.6,0.1-0.8,0.3s-0.2,0.5-0.2,1v5.7C488.6,303.1,489.4,302.8,489.8,302.3z
			 M487.6,311.2c0.1,0.4,0.4,0.5,0.9,0.5c0.9,0,1.5-0.3,1.8-1c0.4-0.7,0.5-1.6,0.5-2.8c0-1.8-0.4-3-1.2-3.6
			c-0.5-0.4-1.2-0.5-2.2-0.5v6.3C487.5,310.7,487.5,311,487.6,311.2z"/>
		<path d="M495.2,311.9c0.5,0,0.9-0.1,1.1-0.3c0.4-0.3,0.6-0.8,0.6-1.5v-12.3c0-0.7-0.2-1.2-0.5-1.5c-0.2-0.2-0.6-0.2-1.2-0.3v-0.6
			h6.4v0.6c-0.6,0-1,0.1-1.2,0.3c-0.4,0.3-0.5,0.8-0.5,1.5v12.3c0,0.7,0.1,1.2,0.4,1.4s0.7,0.4,1.3,0.4v0.6h-6.4V311.9z"/>
		<path d="M502.4,311.9c0.5,0,0.9-0.1,1.1-0.3c0.4-0.3,0.5-0.8,0.5-1.5v-12.3c0-0.7-0.2-1.2-0.5-1.5c-0.2-0.2-0.6-0.3-1.1-0.3v-0.6
			h6.4v0.6c-0.7,0-1.2,0.2-1.5,0.4c-0.2,0.3-0.4,0.9-0.4,1.9v12c0,0.6,0.1,0.9,0.3,1.1c0.2,0.2,0.6,0.3,1.2,0.3c1.1,0,2-0.3,2.8-1
			c0.8-0.7,1.4-2,1.9-3.9h0.5l-0.7,5.8h-10.7V311.9z"/>
		<path d="M514.6,311.9c0.5,0,0.9-0.1,1.1-0.3c0.4-0.3,0.6-0.8,0.6-1.5v-12.3c0-0.7-0.2-1.2-0.5-1.5c-0.2-0.2-0.6-0.2-1.2-0.3v-0.6
			h6.4v0.6c-0.6,0-1,0.1-1.2,0.3c-0.4,0.3-0.5,0.8-0.5,1.5v12.3c0,0.7,0.1,1.2,0.4,1.4s0.7,0.4,1.3,0.4v0.6h-6.4V311.9z"/>
		<path d="M521.8,312.6v-0.6c0.5,0,0.9-0.1,1.1-0.3c0.3-0.3,0.5-0.8,0.5-1.5v-12.3c0-0.7-0.2-1.2-0.5-1.5c-0.2-0.2-0.6-0.3-1.1-0.3
			v-0.6h10.6v5.1h-0.4c-0.2-1.6-0.6-2.8-1.2-3.4c-0.6-0.6-1.6-0.9-3.1-0.9c-0.6,0-0.9,0.1-1.1,0.2s-0.2,0.5-0.2,1v5.9
			c1,0,1.8-0.2,2.1-0.8s0.7-1.5,0.9-3h0.5v8.6h-0.5c-0.1-1.4-0.4-2.5-0.8-3.1c-0.4-0.6-1.1-0.9-2.2-0.9v6.1c0,0.5,0.1,0.9,0.3,1.1
			s0.6,0.3,1.2,0.3c1.2,0,2.1-0.3,2.9-0.9c0.7-0.6,1.4-1.8,2-3.5h0.5l-0.7,5.3H521.8z"/>
		<path d="M534,311.9c0.6,0,1-0.2,1.3-0.5c0.2-0.3,0.3-0.9,0.3-1.8v-11.2c0-1-0.1-1.6-0.4-1.9c-0.2-0.2-0.6-0.3-1.2-0.4v-0.6h5.9
			c1.2,0,2.2,0.2,3,0.5c1.5,0.7,2.2,2,2.2,3.9c0,1.4-0.4,2.5-1.2,3.3c-0.6,0.6-1.2,1-1.9,1.1l3.9,7.2c0.1,0.2,0.2,0.3,0.3,0.4
			s0.3,0.1,0.4,0.1v0.6H543l-4.3-7.9h0v5c0,0.9,0.1,1.5,0.3,1.8s0.6,0.5,1.3,0.5v0.6H534V311.9z M541.2,303.1
			c0.5-0.4,0.8-1.5,0.8-3.1c0-1-0.1-1.8-0.3-2.3c-0.3-1-1-1.5-1.9-1.5c-0.5,0-0.8,0.1-1,0.3c-0.2,0.2-0.2,0.4-0.2,0.8v6.5
			C539.9,303.8,540.7,303.6,541.2,303.1z"/>
		<path d="M547.7,306.6h0.5c0.3,1.9,0.8,3.3,1.4,4.1c0.7,0.9,1.4,1.3,2.2,1.3c0.8,0,1.4-0.3,1.7-0.9c0.3-0.6,0.5-1.2,0.5-1.9
			c0-0.8-0.2-1.4-0.5-1.9c-0.2-0.3-0.7-0.7-1.5-1.2l-1.2-0.8c-1.2-0.8-2-1.6-2.5-2.4c-0.5-0.8-0.7-1.8-0.7-2.9
			c0-1.2,0.3-2.4,0.9-3.5c0.6-1.1,1.6-1.6,2.9-1.6c0.7,0,1.3,0.1,1.9,0.4s1,0.4,1.1,0.4c0.2,0,0.3-0.1,0.4-0.2
			c0.1-0.2,0.1-0.4,0.2-0.6h0.5v5.5h-0.5c-0.2-1.3-0.7-2.4-1.3-3.3c-0.6-0.9-1.3-1.4-2.2-1.4c-0.6,0-1.1,0.2-1.4,0.7
			c-0.4,0.5-0.5,1-0.5,1.7c0,0.8,0.2,1.4,0.5,1.8c0.3,0.4,1.1,1,2.2,1.8l1.4,0.9c0.6,0.4,1.1,0.9,1.4,1.4c0.7,1,1,2.1,1,3.5
			c0,1.3-0.4,2.5-1.1,3.6c-0.7,1.1-1.9,1.7-3.5,1.7c-0.4,0-0.7,0-1.1-0.1c-0.4-0.1-0.7-0.2-1.1-0.4l-0.4-0.2c-0.1,0-0.2-0.1-0.2-0.1
			c-0.1,0-0.1,0-0.2,0c-0.2,0-0.3,0.1-0.4,0.2s-0.1,0.4-0.2,0.7h-0.5V306.6z"/>
	</g>
</g>
</svg>
