<svg xmlns="http://www.w3.org/2000/svg" viewBox="0 0 991 393"><defs><style>.cls-1{fill:#fefefe;}.cls-2{fill:#005e99;}.cls-3{fill:#6289b5;}.cls-4{fill:#6288b5;}.cls-5{fill:#8e9dbc;}.cls-6{fill:#db1e4e;}.cls-7{fill:#cdd0d4;}.cls-8{fill:#a4b1ce;}.cls-9{fill:#a2acc3;}.cls-10{fill:#aeb9d2;}.cls-11{fill:#6884b2;}.cls-12{fill:#9fadcb;}.cls-13{fill:#a9b1c6;}.cls-14{fill:#b4bed5;}.cls-15{fill:#db1f4e;}.cls-16{fill:#d5d7d8;}.cls-17{fill:#b9bfcc;}.cls-18{fill:#9ca7c1;}.cls-19{fill:#607dae;}.cls-20{fill:#aeb5c8;}.cls-21{fill:#99a8c8;}.cls-22{fill:#b9c3d7;}.cls-23{fill:#db1f4f;}.cls-24{fill:#6480b0;}.cls-25{fill:#8a9dc2;}.cls-26{fill:#a8b4cf;}.cls-27{fill:#bec3ce;}.cls-28{fill:#c2c7d0;}.cls-29{fill:#5b7aac;}.cls-30{fill:#5576aa;}.cls-31{fill:#b5bbca;}.cls-32{fill:#c5c9d1;}.cls-33{fill:#8498bf;}.cls-34{fill:#93a1be;}.cls-35{fill:#d2d4d6;}.cls-36{fill:#b3b8c9;}.cls-37{fill:#6e88b5;}.cls-38{fill:#899aba;}.cls-39{fill:#bfc7da;}.cls-40{fill:#8496b8;}.cls-41{fill:#abb7d1;}.cls-42{fill:#6781ad;}.cls-43{fill:#97a6c7;}.cls-44{fill:#8fa0c4;}.cls-45{fill:#778fb9;}.cls-46{fill:#92a2c5;}.cls-47{fill:#c9ccd2;}.cls-48{fill:#7f95bd;}.cls-49{fill:#7c91b5;}.cls-50{fill:#98a4bf;}.cls-51{fill:#738cb7;}.cls-52{fill:#7289b1;}.cls-53{fill:#768cb2;}.cls-54{fill:#6d86af;}.cls-55{fill:#4f72a7;}.cls-56{fill:#c4cbdc;}.cls-57{fill:#fefdfd;}.cls-58{fill:#617cab;}.cls-59{fill:#5c79a9;}.cls-60{fill:#5575a7;}.cls-61{fill:#7f93b6;}.cls-62{fill:#c7cede;}.cls-63{fill:#7b92bb;}.cls-64{fill:#748db8;}.cls-65{fill:#4e70a4;}.cls-66{fill:#456ca4;}.cls-67{fill:#4b6fa6;}.cls-68{fill:#ccd3e1;}.cls-69{fill:#3f69a2;}.cls-70{fill:#d0d6e3;}.cls-71{fill:#7991ba;}.cls-72{fill:#d5dbe6;}.cls-73{fill:#466ca2;}.cls-74{fill:#dae0e9;}.cls-75{fill:#3666a0;}.cls-76{fill:#8499c0;}.cls-77{fill:#37669f;}.cls-78{fill:#93a3c6;}.cls-79{fill:#4069a0;}.cls-80{fill:#e6e9ef;}.cls-81{fill:#e1e5ec;}.cls-82{fill:#eff0f4;}.cls-83{fill:#db204f;}.cls-84{fill:#9eaccb;}.cls-85{fill:#f6f6f8;}.cls-86{fill:#4676a9;}.cls-87{fill:#d4dae8;}.cls-88{fill:#c4d4e4;}.cls-89{fill:#97b3cf;}.cls-90{fill:#6d95bc;}.cls-91{fill:#fbfcfd;}.cls-92{fill:#fdfafb;}.cls-93{fill:#fefcfd;}.cls-94{fill:#fefbfc;}.cls-95{fill:#fdf7f8;}.cls-96{fill:#fdf7f9;}</style></defs><g id="Calque_2" data-name="Calque 2"><g id="Calque_1-2" data-name="Calque 1"><path class="cls-1" d="M495.5.05q246.6,0,493.2,0c1.88,0,2.3.42,2.3,2.3q-.07,194.21,0,388.4c0,1.88-.42,2.3-2.3,2.3q-493.2-.08-986.4,0c-1.88,0-2.3-.42-2.3-2.3Q.08,196.5,0,2.3C0,.42.42,0,2.3,0Q248.9.08,495.5.05Z"/><path class="cls-2" d="M307.17,235.2v-2.68c0-22,0-44-.05-66,0-2,.46-2.64,2.57-2.64,22.91.08,45.82,0,68.73.06,20.26,0,39.82,16.66,42.44,36.72,1.64,12.62-2.43,24-10.22,34-6.68,8.57-15.06,14.48-26,16.12a36,36,0,0,1-5,.28c-9.08,0-18.16.06-27.24,0-1.79,0-2.22.53-2.21,2.25.06,13.49,0,27,.08,40.48,0,2-.57,2.47-2.51,2.46q-21.74-.12-43.48,0a4.05,4.05,0,0,1-4-2.18Q285,269.49,269.5,245l-1.39-2.2c-.5,4.4-.5,8.42-.92,12.42-2.44,23.14-15.26,34.87-36.21,40.2-13,3.3-26.27,3.88-39.64,3.22-12.25-.61-24.14-2.55-35.11-8.28-12.06-6.29-20.09-15.87-23-29.4a23.18,23.18,0,0,1-.33-5q0-44,0-88c0-2,.44-2.64,2.57-2.61q21.61.31,43.23.34c2.11,0,2.38.76,2.37,2.57,0,27.15.12,54.31-.12,81.46-.08,8.75,4.83,13.92,12.33,15.72,6.79,1.62,13.37,1.37,19.59-2.1,4.47-2.49,6.6-6.32,6.6-11.45,0-28.08,0-56.15-.06-84.22,0-2.16.38-2.94,2.78-2.91,12.41.14,24.82.1,37.24,0a4,4,0,0,1,4,2.16q20.88,33.14,41.9,66.18l1.32,2.07Z"/><path class="cls-2" d="M479.11,230c0,21,0,42,0,63,0,2.05-.44,2.63-2.56,2.61q-21.61-.15-43.23,0c-2.23,0-2.5-.74-2.5-2.68q.08-63,0-125.93c0-2,.44-2.65,2.57-2.64q21.48.17,43,0c2.13,0,2.78.42,2.77,2.69C479.06,188,479.11,209,479.11,230Z"/><path class="cls-3" d="M541.62,283.16c0-7.73.08-15.45-.06-23.17,0-2.36.55-3.17,3-3.09,5.51.17,5.51,0,5.51,5.68,0,9.9,0,19.81,0,29.72,0,1.76-.6,2-2.23,2.26-6.26,1.06-10-1.23-12.74-7.08-3.19-6.79-7.47-13.08-11.62-20.19-.07,1.43-.13,2.21-.13,3,0,7.41,0,14.82,0,22.23,0,1.48-.37,2-1.94,2-6,.09-6,.15-6-5.91,0-9.82,0-19.65,0-29.47,0-1.75.55-2,2.2-2.27,6-1,9.47,1.33,12.1,6.83,3.24,6.78,7.47,13.1,11.27,19.61Z"/><path class="cls-3" d="M639.14,269.54c0-4.84.05-9.08,0-13.32,0-1.58.44-2.15,2.11-2.18,6.39-.1,6.39-.16,6.39,6.32,0,10.57-.05,21.13,0,31.69,0,2-.58,2.69-2.53,2.45a11.89,11.89,0,0,0-3,0c-1.83.22-3.12-.09-2.67-2.77a15.07,15.07,0,0,1-9,3.3c-8.13.33-12.82-4.29-13.74-11.69-.89-7,.94-16.18,11.38-17.21A13.89,13.89,0,0,1,639.14,269.54Z"/><path class="cls-3" d="M693.63,269.37c0-4.57.07-8.8,0-13,0-1.7.47-2.29,2.25-2.3,6.26,0,6.26-.1,6.26,6.2,0,10.57-.06,21.13,0,31.69,0,2.12-.61,2.83-2.66,2.57a12.55,12.55,0,0,0-3.24,0c-1.86.26-2.66-.44-2.24-2.75a14.61,14.61,0,0,1-9.2,3.26c-8.11-.09-12.21-3.49-13.6-11.55-1.19-6.89,1.48-13.48,6.47-16C682.44,265.05,688.17,265.65,693.63,269.37Z"/><path class="cls-3" d="M574.17,295c-5.67.16-10.35-1.11-13.82-5.09a14.12,14.12,0,0,1,4.91-22c6.39-2.8,12.78-2.66,18.83,1.18,5.33,3.38,6.69,8.54,5.82,14.34-.81,5.43-4.3,8.84-9.4,10.64A15,15,0,0,1,574.17,295Z"/><path class="cls-3" d="M833.72,291.05a13.79,13.79,0,0,1-15.05,3c-3.78-1.36-5.64-4-5.67-7.4,0-3.65,2-6.52,5.71-8,3.88-1.5,8-1.36,12.06-1.59.85-.05,2.07.51,2.47-.51a3.13,3.13,0,0,0-.9-3c-1.69-2-4.07-2.17-6.41-2a16.3,16.3,0,0,0-7.6,2.21c-1.52.94-1.83.34-1.8-1.13.12-5.16-1.37-4.49,4.58-5.89a24.75,24.75,0,0,1,13.78.32,8.4,8.4,0,0,1,6.05,8c.34,5.9.38,11.81.6,17.72.05,1.18-.3,1.7-1.52,1.61-.83-.07-1.67,0-2.5,0C834.17,294.48,834.17,294.48,833.72,291.05Z"/><path class="cls-3" d="M856.83,270.24c4.26-3.78,8.54-4.78,13.31-3.87s7.69,4.06,7.84,8.93c.18,5.82.06,11.65.13,17.47,0,1.29-.43,1.68-1.72,1.74-6.78.31-6.77.35-6.78-6.4,0-3.5,0-7-.08-10.49-.08-3.21-1.34-5-3.64-5.56a6.45,6.45,0,0,0-7,3.17,12.62,12.62,0,0,0-1.39,6.26c0,3.66-.07,7.33,0,11,0,1.43-.25,2.17-1.9,2a27.79,27.79,0,0,0-4.74,0c-1.63.14-1.91-.6-1.9-2,0-7.91.07-15.82,0-23.73,0-1.66.53-2.27,2.14-2.14a13.94,13.94,0,0,0,2.74,0C856.12,266.33,857.69,266.74,856.83,270.24Z"/><path class="cls-3" d="M726.93,283c-2.92,0-5.84.07-8.75,0-2-.07-2.07.79-1.35,2.24,1.42,2.82,3.86,4,6.85,4.29a19,19,0,0,0,9.92-2c1.58-.75,1.93-.35,1.93,1.32,0,4.46,0,4.74-4.34,5.58a27.81,27.81,0,0,1-14.06-.43c-6.29-2-9.62-7.47-9.07-14.63.53-7,4.71-11.81,11.1-12.92a18.41,18.41,0,0,1,12.36,1.65c3.94,2.16,7.24,9.68,6.33,13.87-.27,1.23-1.14,1-1.93,1C732.92,283,729.92,283,726.93,283Z"/><path class="cls-3" d="M938.69,287c.11.22.18.29.18.36.09,6.43,1.36,5.77-5.47,7.2a24.49,24.49,0,0,1-13.06-.66c-6-2.07-9.25-7.36-8.81-14.34s4.43-11.88,10.65-13c5.22-1,10.34-.78,14.64,2.91,3.75,3.22,4.18,7.76,4.49,12.29.1,1.42-1,1.23-1.94,1.23-5.66,0-11.32,0-17,0-.78,0-1.87-.43-2.31.36-.54,1,.17,1.94.75,2.73,2.79,3.8,6.76,3.75,10.85,3.19C934.13,288.92,936.36,287.72,938.69,287Z"/><path class="cls-4" d="M761.84,275.63c0-5.49.07-11,0-16.49,0-1.78.55-2.25,2.27-2.22q9.75.13,19.49,0c1.64,0,2.32.49,2.09,2.13a4.29,4.29,0,0,0,0,1.24c.34,2.16-.43,2.94-2.7,2.8-3.41-.2-6.83,0-10.25-.08-1.54,0-2.18.29-2.2,2-.09,6.94-.16,6.94,6.75,6.94,2,0,4,.06,6,0,1.24,0,1.73.28,1.78,1.65.15,4.47.21,4.47-4.23,4.47-2.67,0-5.34.09-8,0-1.7-.08-2.34.4-2.29,2.21.13,4.08,0,8.16.07,12.24,0,1.47-.34,2-1.93,2-6.8.12-6.8.18-6.8-6.64Z"/><path class="cls-5" d="M438.51,330.41c-8.5.17-17,.76-25.5.51a13.88,13.88,0,0,1,0-10c12.91-.12,25.82-.34,38.72-.34q156.07,0,312.14,0a6.42,6.42,0,0,1,3.19.29c-1.72,1.43-3.76.69-5.67.82-12.46.12-24.92.1-37.38,0q-16.74.12-33.48,0c-9.67,0-19.34.11-29,0q-14.5.17-29,0-17,.17-34,0c-8.83.1-17.67.12-26.5,0q-12.25.15-24.5,0c-7.67.1-15.34.12-23,0-7.49.11-15,.09-22.48,0-5.51,0-11,.1-16.54,0-7.76.1-15.53.12-23.29,0-6.38.07-12.77,0-19.15,0-3.87,0-4.12.31-3.91,4.12C439.25,327.41,439.63,329,438.51,330.41Z"/><path class="cls-6" d="M746.94,384.67c-3.23.58-6.48.17-9.72.27-.45,0-1.05.16-1.17-.55s.23-.87.8-1c1.37-.34,1.75-1.4,1.75-2.66,0-6.74,0-13.47,0-20.62a11.52,11.52,0,0,0-1.55,4.28c-1.74,6.24-3.39,12.51-5.12,18.75-.18.65,0,1.71-1,1.76s-.88-1-1.06-1.69c-2-6.87-3.9-13.75-5.84-20.62a3.37,3.37,0,0,0-.94-1.66c0,6.29,0,12.58,0,18.87,0,1.52.31,3.05,2.13,3.55.56.16.88.44.78,1s-.71.57-1.17.58h-5c-.39,0-.88.08-1-.47a.79.79,0,0,1,.68-1.08c1.78-.43,2-1.86,2-3.32q0-10.86,0-21.73c0-1.29-.13-2.53-1.63-3-.59-.2-1.1-.51-.89-1.25s.78-.48,1.25-.52h.25c6.09-.35,6.1-.35,7.76,5.53C729.6,364,731,369,732.8,373.94c1.63-5.92,3.35-11.8,4.82-17.75.52-2.07,1.36-2.94,3.53-2.68a39.46,39.46,0,0,0,4.74,0c1.3.64.88,1.45.1,2.13a5.84,5.84,0,0,0-1.77,4.74c0,5.83,0,11.65,0,17.48a7.16,7.16,0,0,0,2.91,6A.89.89,0,0,1,746.94,384.67Z"/><path class="cls-6" d="M746.94,384.67l0-.94c1.67-2,1.91-4.25,1.86-6.73-.11-5.57,0-11.13,0-16.7,0-1.69-.06-3.29-1.41-4.59a1.51,1.51,0,0,1-.26-2.21c1.92,0,3.84.13,5.74,0,1.46-.09,2,.46,2.38,1.83,1.52,5.7,3.15,11.37,4.75,17,.15.54.38,1.06.72,2,1.82-6.52,3.59-12.62,5.17-18.77.42-1.62,1.06-2.22,2.69-2.08s3,0,4.5,0c.54,0,1,.09,1.21.64s-.31.94-.79,1.06c-1.6.42-1.72,1.75-1.73,3q-.08,11,0,22c0,1.32.16,2.74,1.83,3.18.57.15.86.48.72,1.08s-.61.48-1,.48q-4.12,0-8.24,0c-.39,0-.86.06-1-.52s.16-.9.75-1.05a2,2,0,0,0,1.71-1.89c0-7,0-14.05-.35-21.13-1.88,6.85-3.73,13.72-5.67,20.55-.39,1.37-.24,3.82-1.55,3.79-1.62,0-1.37-2.46-1.78-3.87-1.8-6.05-3.45-12.15-5.15-18.23a3.07,3.07,0,0,0-.93-1.88c0,6.56,0,12.92,0,19.28,0,1.44.39,2.86,2.09,3.33.54.15.9.39.81,1s-.69.63-1.15.6C750.88,384.81,748.88,385.3,746.94,384.67Z"/><path class="cls-3" d="M900.75,295.05a35,35,0,0,1-4.48-.27c-7.67-1.43-12-6.82-11.77-14.64.19-7.6,4.74-12.6,12.45-13.83a29,29,0,0,1,9.44.31c1.2.19,1.79.77,1.39,2a4.86,4.86,0,0,0-.18.73c-.5,3.26-.49,3.17-3.61,2.72-3.55-.52-7-.12-9.09,3.21a9.47,9.47,0,0,0-.08,10.4c1.82,3.16,5.71,4.16,10.49,3.09.85-.19,2.27-1.92,2.81.46.87,3.87.52,4.85-1.91,5.32a13.2,13.2,0,0,1-1.71.33c-1.25.06-2.5,0-3.75,0Z"/><path class="cls-6" d="M544.11,372.2c0,2.41-.08,4.83,0,7.24.07,1.6-.1,3.46,2.11,4,.48.13.57.56.46,1s-.61.47-1,.48h-8.24c-.4,0-.86.06-1-.49a.84.84,0,0,1,.67-1.11c1.6-.49,1.81-1.82,1.81-3.2,0-7.24,0-14.48,0-21.72,0-1.35-.16-2.7-1.79-3.21a.88.88,0,0,1-.68-1.14c.18-.65.77-.53,1.24-.52,3.41,0,6.82,0,10.22.18s5.78,1.86,6.47,5.22c.77,3.71.71,7.48-2.83,9.89-1.45,1-1.39,1.65-.68,2.88,2.24,3.94,3.47,8.42,6.41,12,.62.76,0,1.2-.85,1.21-1.58,0-3.16,0-4.74,0-1.15,0-1.3-.89-1.64-1.59-1.86-3.77-3.7-7.56-5.54-11.34Z"/><path class="cls-6" d="M641.09,353.5c3.74.06,7.49,0,11.22.22,3.27.19,5.69,1.78,6.59,5.11C660,363,659,367,656,368.93c-1.3.86-1.37,1.47-.67,2.68,2.28,3.93,3.45,8.44,6.39,12,.49.61.26,1.31-.73,1.31h-5c-1,0-1.1-.91-1.41-1.54-1.87-3.78-3.7-7.57-5.87-12,0,3.6-.05,6.44,0,9.28,0,1.18.33,2.35,1.73,2.73.57.15.89.45.75,1.05s-.76.52-1.22.53h-9a1.33,1.33,0,0,1,.23-2c1.49-1.31,1.51-3,1.5-4.79,0-5.72,0-11.43,0-17.15,0-2,0-4-1.63-5.53A1.29,1.29,0,0,1,641.09,353.5Z"/><path class="cls-6" d="M890.14,372.14c0,2.71-.06,5.41,0,8.12,0,1.32.2,2.72,1.87,3.14a.77.77,0,0,1,.67.89c-.05.73-.62.66-1.1.66h-8c-.46,0-1,.14-1.2-.55s.19-.9.74-1.07c1.47-.46,1.74-1.68,1.75-3q0-11,0-22c0-1.36-.2-2.69-1.81-3.19a.86.86,0,0,1-.65-1.15c.14-.52.59-.51,1-.5,3.49,0,7,0,10.47.19,3.29.2,5.76,1.87,6.45,5.22.77,3.71.71,7.48-2.83,9.88-1.45,1-1.39,1.64-.69,2.88,2.18,3.89,3.47,8.24,6.24,11.82.66.86.29,1.39-.77,1.4-1.49,0-3-.06-4.49,0-1.27.08-1.45-.9-1.83-1.68q-2.78-5.62-5.51-11.29Z"/><path class="cls-6" d="M480.68,372.14c0,2.71-.06,5.41,0,8.11,0,1.32.2,2.73,1.88,3.15a.78.78,0,0,1,.67.88c-.05.73-.61.67-1.1.67h-8c-.46,0-1.05.15-1.2-.54s.18-.9.74-1.08c1.46-.46,1.74-1.67,1.75-3q0-11,0-22c0-1.35-.19-2.69-1.81-3.19a.88.88,0,0,1-.66-1.15c.14-.51.6-.51,1-.5,3.49,0,7,0,10.47.19,3.3.19,5.77,1.86,6.46,5.21.77,3.71.71,7.48-2.83,9.89-1.43,1-1.39,1.63-.69,2.88,2.18,3.88,3.47,8.24,6.23,11.82.64.83.32,1.39-.75,1.4-1.5,0-3-.06-4.49,0-1.27.08-1.46-.89-1.84-1.67-1.85-3.76-3.68-7.53-5.52-11.29Z"/><path class="cls-7" d="M172.57,336c-.61.62-1.39.44-2.12.44H152.52c-3.89-.51-7.8-.14-11.7-.21-4.08-.07-8.16,0-12.24,0a1.57,1.57,0,0,1-.89-.29,3.45,3.45,0,0,1-.9-2.75c-.06-2.58,0-5.16,0-7.73,0-1.9.61-3,2.79-2.74a7.1,7.1,0,0,0,3.45-.18c10.34.18,20.65-.85,31-.5-.31,1.36-1.47,1.11-2.38,1.18-1.9.13-3.81,0-5.71.06-1.45,0-2.11.68-2.11,2.12,0,2.49,0,5,0,7.45,0,1.69.67,2.39,2.35,2.39,3.65,0,7.29-.07,10.93,0C168.93,335.33,170.88,334.7,172.57,336Z"/><path class="cls-8" d="M413.48,94.13a118.9,118.9,0,0,1-14-4.1,4.21,4.21,0,0,1-.79-3c0-6.36-.07-12.72,0-19.08,0-1.36-.39-3.17,1.85-3.43L414,70.93a24,24,0,0,1,.47,8.08c-.24,4.21.55,8.42-.24,12.6C414.1,92.49,414.25,93.45,413.48,94.13Z"/><path class="cls-9" d="M356.6,332a4.34,4.34,0,0,1-1.17.35q-18,.3-35.91.54c-.67-4-1.66-8,.5-11.86l29.5,0c1.31,1.95.65,4.15.72,6.23.13,3.71.11,3.77,3.86,4A3.18,3.18,0,0,1,356.6,332Z"/><path class="cls-10" d="M369,69.44c4.71-2.91,8.81-6.79,14.07-8.8,1,1,.75,2.31.76,3.52q0,8.67,0,17.34a12.4,12.4,0,0,0,.83,5.08l-15.09,5.47c-1.37-2.1-1-4.55-.92-6.76.09-4.88-.07-9.77.1-14.64A3.58,3.58,0,0,1,369,69.44Z"/><path class="cls-6" d="M812.16,368.13c4.32,2.26,5.92,6,4.75,10.83-.91,3.73-4,5.93-8.43,6-2.74,0-5.49,0-8.24,0-.45,0-1,.21-1.26-.44s.24-1,.85-1.2c1.4-.54,1.61-1.81,1.61-3.1q0-11,0-22c0-1.3-.29-2.5-1.73-3-.5-.18-.9-.46-.76-1.09s.72-.58,1.19-.57c3.24,0,6.5-.11,9.72.21,3.56.35,5.59,2.11,6,5,.55,3.41.4,6.7-3.07,8.76A6,6,0,0,0,812.16,368.13Z"/><path class="cls-11" d="M591.49,138.58c-5.67-.1-11.36.17-17-.53-.26-2.51-1.42-5,0-7.55h6l0-.7-6.07-1.34a2.13,2.13,0,0,1-.65-1.54c.1-3.46-.4-7,.65-10.35l16.72,3a14.1,14.1,0,0,1,1.4.43c-.65,5-.19,10.06-.34,15.09C592.23,136.27,592.44,137.56,591.49,138.58Z"/><path class="cls-6" d="M394.48,385H390c-.47,0-1.05.1-1.17-.59a.76.76,0,0,1,.58-.94c1.89-.57,1.88-2.21,1.89-3.67q.08-10.49,0-21c0-1.46,0-3.08-1.91-3.64a.76.76,0,0,1-.56-1,.84.84,0,0,1,1-.61c3.9.12,7.86-.49,11.68.56,3.39.93,5.44,3.46,6.56,6.67a24.19,24.19,0,0,1,0,16.63c-1.91,5.25-5.25,7.52-10.76,7.55Z"/><path class="cls-12" d="M413.48,94.13c.68-4.95-.06-9.94.38-14.93.23-2.69-.61-5.51.18-8.27l14.53,6c.48,6.48.2,13,.13,19.46a2.11,2.11,0,0,1-.69,1.56Z"/><path class="cls-6" d="M149.41,368a18.54,18.54,0,0,1,3.87-11.57c3.75-4.67,9.92-4.69,13.75-.08,5.35,6.45,5.33,19.64,0,26.14a8.57,8.57,0,0,1-13.6.09C150.73,379.41,149.37,375,149.41,368Z"/><path class="cls-6" d="M494.89,368.3a18.79,18.79,0,0,1,3.79-11.8c3.79-4.8,10-4.81,13.9-.06,5.3,6.51,5.2,19.71-.2,26.14a8.58,8.58,0,0,1-13.45.06C496.2,379.47,494.81,374.93,494.89,368.3Z"/><path class="cls-6" d="M797.46,369.29c-.11,4.77-.85,9.39-4.07,13.25a8.58,8.58,0,0,1-13.45.14c-5.61-6.45-5.54-20.35.14-26.73a8.54,8.54,0,0,1,13.12.07C796.51,359.81,797.33,364.42,797.46,369.29Z"/><path class="cls-6" d="M274.91,369.19c0-4.47.8-9,3.88-12.81,3.75-4.65,9.93-4.65,13.75,0,5.33,6.47,5.3,19.65-.08,26.14a8.54,8.54,0,0,1-13.59,0C275.74,378.74,274.85,374.24,274.91,369.19Z"/><path class="cls-13" d="M320,321c-1.09,3.92.08,7.93-.5,11.86-8.83.09-17.66.82-26.5.53a3.71,3.71,0,0,1-.77-3c.22-3-.68-6,.63-8.95,4.13-.54,8.28-.09,12.41-.25,2.07-.08,4.15.24,6.21-.18Z"/><path class="cls-3" d="M604.15,271.09c2.33-3.47,5.17-5.16,9-5.09,1.39,0,2,.5,1.85,1.92a10.24,10.24,0,0,0,0,1.24c0,1.33.44,2.94-.16,3.92-.72,1.19-2.34,0-3.57.11-3.68.2-5.81,2.47-6.31,6.74a94.24,94.24,0,0,0-.3,12.46c0,1.62-.45,2.11-2.1,2.13-6.41.05-6.41.11-6.41-6.32s.06-12.81,0-19.21c0-1.86.55-2.65,2.42-2.38a6.26,6.26,0,0,0,.75,0C603.52,266.61,603.52,266.61,604.15,271.09Z"/><path class="cls-3" d="M810.48,273.63l-2-.23c-4.9-.58-7.5,1.53-8.08,6.49a95.83,95.83,0,0,0-.31,12.45c0,1.55-.33,2.17-2,2.18-6.46.06-6.46.13-6.46-6.28s.06-12.81,0-19.21c0-1.8.44-2.71,2.37-2.42a6.09,6.09,0,0,0,.74,0c4.36,0,4.36,0,4.86,4.42,2-2.72,4.28-4.64,7.53-5s3.38-.14,3.38,3.06Z"/><path class="cls-14" d="M369,69.44a3.71,3.71,0,0,1,.5,1.39c-.27,4.6.24,9.2-.17,13.81a57.46,57.46,0,0,0,.24,7.41,95.74,95.74,0,0,1-13,5c-1.2.49-1.59-.42-1.63-1.21A127.47,127.47,0,0,1,355,78.68a2.86,2.86,0,0,1,.55-1.12Z"/><path class="cls-15" d="M301.64,362.23c0,6.08,0,12,0,18a3,3,0,0,0,2.05,3.11c.56.17.84.49.74,1.08s-.72.55-1.17.56c-1.58,0-3.17,0-4.75,0-.48,0-1,.05-1.07-.68a.79.79,0,0,1,.66-.89c1.73-.53,1.85-2,1.86-3.42,0-6.82,0-13.64,0-20.47,0-1.73-1-2.91-2-4.15s-.79-1.79.81-1.79a21,21,0,0,0,2.75,0c1.81-.25,2.82.44,3.66,2.11,2.31,4.6,4.83,9.1,7.28,13.63.37.7.78,1.38,1.48,2.6,0-5.3,0-10,0-14.64a2.17,2.17,0,0,0-1.7-2,1,1,0,0,1-.72-1.14c.13-.72.71-.57,1.17-.58a21,21,0,0,1,2.75,0c.86.08,2-.51,2.52.45.67,1.27-.92,1.27-1.43,1.9-.78.94-.62,2-.62,3.1,0,8.15,0,16.31,0,24.46,0,.78.41,1.95-.56,2.22s-1.18-1-1.54-1.63c-3.56-6.58-7.07-13.18-10.63-19.76C302.8,363.63,302.65,362.76,301.64,362.23Z"/><path class="cls-15" d="M218.13,371.18c0-4.24,0-8.47,0-12.71,0-1.4-.29-2.66-1.85-3.19a.93.93,0,0,1-.72-1.13c.12-.73.7-.58,1.17-.59a16.74,16.74,0,0,1,2.24,0c1,.11,2.43-.56,3,.47.76,1.33-1.12,1.28-1.58,2.08a5.44,5.44,0,0,0-.45,2.91c0,8.15,0,16.31,0,24.46,0,.78.41,1.94-.56,2.22s-1.18-1-1.54-1.63c-3.56-6.58-7.07-13.18-10.63-19.75-.37-.69-.52-1.56-1.53-2.09,0,6.08,0,12,0,18a3,3,0,0,0,2,3.11c.56.18.85.5.75,1.09s-.72.55-1.17.56c-1.58,0-3.16,0-4.75,0-.48,0-1,.06-1.07-.68a.78.78,0,0,1,.66-.89c1.72-.52,1.85-2,1.86-3.42,0-6.82,0-13.64,0-20.46,0-1.74-1-2.92-2-4.16s-.81-1.79.8-1.79a20.85,20.85,0,0,0,2.74,0c1.82-.25,2.83.43,3.67,2.11,2.31,4.6,4.83,9.1,7.27,13.63.38.7.79,1.38,1.19,2.07Z"/><path class="cls-15" d="M188.54,371.4c0-4.76,0-9.35,0-13.95a2.31,2.31,0,0,0-1.77-2.18.93.93,0,0,1-.69-1.15c.14-.7.72-.55,1.19-.56a18.81,18.81,0,0,1,2.49,0c.94.1,2.22-.52,2.76.48.67,1.24-.95,1.26-1.46,1.89-.76.95-.6,2.06-.6,3.11,0,8,0,16,0,24,0,.5,0,1,0,1.49s0,1.08-.59,1.25-.83-.41-1.08-.82-.48-.87-.72-1.31q-5.17-9.67-10.36-19.33c-.37-.69-.79-1.36-1.52-2.59,0,6.63,0,12.57,0,18.52a3,3,0,0,0,2.07,3.09.88.88,0,0,1,.72,1.1c-.15.71-.74.53-1.2.54-1.58,0-3.16,0-4.74,0-.39,0-.87.09-1-.46a.82.82,0,0,1,.63-1.12c1.73-.53,1.83-2,1.84-3.43,0-6.83,0-13.65,0-20.47,0-1.73-1.05-2.91-2-4.15s-.72-1.79.85-1.77a21.28,21.28,0,0,0,3,0c1.64-.2,2.53.44,3.28,1.93,2.37,4.66,4.91,9.24,7.41,13.84A4.37,4.37,0,0,0,188.54,371.4Z"/><path class="cls-15" d="M119.62,362.42c0,5.64,0,11.29,0,16.93,0,1.72.26,3.38,2.25,4a.83.83,0,0,1,.61.94c0,.57-.4.64-.84.64h-5.24c-.43,0-.86,0-.92-.59a.78.78,0,0,1,.57-.95c2-.59,2-2.27,2-3.85,0-6.58,0-13.15,0-19.72a6.81,6.81,0,0,0-2-4.42c-.39-.49-.78-.91-.44-1.53s.88-.27,1.34-.34h.25c3.41-.55,5.59.49,7.08,4A111.11,111.11,0,0,0,132,371.29a97.68,97.68,0,0,0,0-14.21c-.1-1-.91-1.53-1.82-1.87a.88.88,0,0,1-.53-1.21c.16-.54.63-.44,1-.44,1.42,0,2.83,0,4.25,0,.49,0,1.05,0,1.23.58a.93.93,0,0,1-.63,1.19c-1.72.7-1.53,2.21-1.54,3.6q0,12.1,0,24.22c0,.58,0,1.16,0,1.74a.83.83,0,0,1-.69.89c-.4.06-.59-.24-.76-.53-.33-.57-.65-1.16-1-1.74l-11.4-21.25Z"/><path class="cls-6" d="M378.47,363c-1.72-1-1.4-2.43-1.89-3.63-.62-1.53-1.35-2.82-3-3.41-3.66-1.32-4.94-.48-4.95,3.34,0,2.33.09,4.67,0,7-.1,2,.9,1.78,2.1,1.17a3.7,3.7,0,0,0,1.81-2.57c.29-1.17.58-2.33.87-3.52,1.22.27.93,1.06.94,1.63,0,4.09,0,8.17,0,12.25,0,.57.4,1.59-.57,1.6s-.6-1-.71-1.6c-.33-1.81-.55-3.67-2.31-4.76-1.27-.79-2.16-.89-2.12,1.09.08,3,0,6,0,9,0,1.9.9,2.66,2.8,2.57,3.31-.16,5.07-2.16,6.23-4.95.22-.54.42-1.09.68-1.61s.13-1.6,1.09-1.3.36,1.13.29,1.74c-.19,1.49-.4,3-.6,4.46-.47,3.51-.47,3.51-3.9,3.51-4.16,0-8.33,0-12.49,0-.59,0-1.43.4-1.73-.48s.6-1,1.13-1.26a2.79,2.79,0,0,0,1.37-2.75q0-11.11,0-22.23c0-1.32-.31-2.49-1.75-3-.51-.18-.91-.46-.78-1.09s.72-.58,1.19-.58h15c.74,0,1.32.2,1.32,1.1Z"/><path class="cls-6" d="M428,363.49c-1.76-1.34-1.39-2.84-1.83-4-1.08-2.85-2.86-4.11-5.86-4-1.33,0-2.09.58-2.11,1.89-.05,3.17,0,6.33-.06,9.5,0,1.24.7,1.08,1.47.83,2.24-.73,2.38-2.78,2.88-4.6.17-.59-.15-1.62.74-1.61s.6,1,.61,1.59q0,6.26,0,12.5c0,.49.29,1.33-.66,1.27-.65,0-.53-.73-.59-1.2-.27-1.9-.45-3.83-2.21-5.08-.56-.4-1.15-.79-1.84-.47s-.37,1-.38,1.56c0,3,0,6,0,9,0,1.76.84,2.54,2.64,2.48,3.29-.09,5.14-2,6.32-4.81.32-.77.64-1.53.91-2.32.14-.42.36-.87.79-.81.64.08.63.65.56,1.18-.31,2.39-.66,4.78-.9,7.18-.12,1.2-.73,1.45-1.82,1.44-4.92,0-9.83,0-14.74,0-.52,0-1.26.28-1.44-.56s.51-.87,1-1.11a2.81,2.81,0,0,0,1.52-2.91q0-11,0-22c0-1.41-.28-2.67-1.85-3.19-.54-.18-.85-.55-.67-1.13s.79-.5,1.26-.5h14.74c.68,0,1.45,0,1.47.94C428,357.33,428,360.16,428,363.49Z"/><path class="cls-6" d="M587.46,363.31c-1.48-.75-1.25-1.7-1.5-2.45a17.08,17.08,0,0,0-1.24-3.24c-.91-1.57-4.08-2.68-5.78-2.07-2,.71-1.26,2.49-1.32,3.87-.1,2.25.07,4.51,0,6.75s1,1.87,2.23,1.17,1.4-1.75,1.81-2.87,0-2.35,1.06-3.15c.94.55.61,1.38.62,2.07q0,5.75,0,11.49c0,.67.44,1.83-.5,1.93s-.66-1.1-.79-1.75c-.36-1.81-.62-3.66-2.44-4.69-1.21-.7-2-.69-2,1.09.06,3,0,6,0,9,0,2.06,1,2.8,3,2.65a6,6,0,0,0,5.09-3.11,39.33,39.33,0,0,0,1.83-4.08c.18-.4.36-.81.85-.72s.56.53.51,1c-.33,2.56-.68,5.12-1,7.68-.12,1-.74,1.12-1.58,1.11-5,0-10,0-15,0-.52,0-1.25.28-1.37-.63-.09-.66.38-.79.88-1,1.41-.52,1.68-1.73,1.68-3q0-11,0-22c0-1.42-.36-2.64-1.91-3.14a.8.8,0,0,1-.63-.93c.08-.7.62-.67,1.11-.68h15c.88,0,1.43.25,1.42,1.26C587.44,357.52,587.46,360.22,587.46,363.31Z"/><path class="cls-6" d="M680.43,363.36c-1.62-.95-1.32-2.17-1.59-3.11-1-3.42-2.8-4.86-6-4.8-1.48,0-2.18.69-2.19,2.1,0,3.08,0,6.16,0,9.24,0,1.19.6,1.18,1.43.91,2.25-.71,2.41-2.75,2.92-4.57.17-.59-.15-1.66.7-1.64,1.06,0,.64,1.13.65,1.77,0,3.92.05,7.83,0,11.74,0,.64.46,1.75-.61,1.81-.87,0-.55-1-.67-1.62-.33-1.72-.52-3.49-2.13-4.62a2,2,0,0,0-1.84-.52c-.73.29-.42,1-.42,1.53,0,2.92,0,5.83,0,8.75,0,2.18,1,2.94,3.1,2.76,3.07-.26,4.74-2.14,5.86-4.74.29-.69.57-1.38.85-2.08.2-.5.2-1.3,1.05-1,.61.19.41.81.34,1.29-.21,1.48-.4,3-.63,4.45-.6,4-.61,4-4.75,4s-8,0-12,0c-.51,0-1.24.3-1.46-.51s.41-.91,1-1.14a2.75,2.75,0,0,0,1.56-2.88q0-11.12,0-22.23c0-1.33-.35-2.48-1.79-3-.52-.17-.88-.5-.73-1.1s.75-.55,1.22-.55h14.75c.66,0,1.49,0,1.5.89C680.47,357.29,680.43,360.13,680.43,363.36Z"/><path class="cls-6" d="M862.56,353.5c5.08,0,10.16.08,15.24,0,1.58,0,2.26.37,2.17,2.08-.13,2.44,0,4.9,0,7.7-1.55-.76-1.33-1.86-1.54-2.73-.89-3.64-2.71-5.13-6-5.11-1.44,0-2.25.56-2.27,2,0,3.08,0,6.16-.05,9.24,0,1.39.7,1.25,1.59.93,1.4-.5,1.91-1.66,2.4-3,.41-1.09,0-2.52,1.46-3.58V377c-1.29-.42-.89-1.32-1-2-.32-1.37-.41-2.83-1.49-3.89-.66-.64-1.4-1.43-2.37-1.08s-.48,1.45-.5,2.2c-.07,2.67,0,5.33,0,8,0,2.34,1.09,3.08,3.28,2.82a6.1,6.1,0,0,0,4.43-2.48,18.09,18.09,0,0,0,1.92-3.77c.25-.59.12-1.84,1.16-1.57s.35,1.27.28,1.95a25.13,25.13,0,0,0-.53,4.45c.21,3-1.28,3.47-3.88,3.36-4.74-.2-9.5-.05-14.25-.05a1.37,1.37,0,0,1,.26-2c1.49-1.32,1.5-3,1.5-4.8,0-6,0-11.94,0-17.91,0-1.7-.1-3.29-1.45-4.57A1.4,1.4,0,0,1,862.56,353.5Z"/><path class="cls-16" d="M128,336.43H75.88c3-1.36,5.35-2.35,7.64-3.48,5.28-2.62,10.65-5.08,15.57-8.36a7.32,7.32,0,0,1,3.52-1.06c3.63-.27,7.27-.36,10.91-.52-3.69,2.95-1.91,7-2.09,10.66-.08,1.47,1.28,1.5,2.37,1.52,3.55.05,7.11,0,10.66,0A5.7,5.7,0,0,1,128,336c.17.1.22.2.17.3S128.09,336.43,128,336.43Z"/><path class="cls-17" d="M239.07,334.5c-.63.57-1.41.41-2.14.41l-19.41.08a4.36,4.36,0,0,1-.77-3.07c0-2.58,0-5.15,0-7.73,0-1.55.61-2.52,2.25-2.66l19,0a2.17,2.17,0,0,1,1.17,2.06A80,80,0,0,1,239.07,334.5Z"/><path class="cls-6" d="M520.36,369.28c0-3.32.06-6.65,0-10,0-1.61.18-3.43-1.93-4.14a.84.84,0,0,1-.47-1c.11-.52.54-.57,1-.56,3.9.14,7.83-.43,11.69.41a5.73,5.73,0,0,1,4.59,4.41,14.2,14.2,0,0,1,.12,6.67c-.86,3.92-3.34,5.83-7.77,5.88-1.63,0-2.18.46-2.08,2.1.14,2.24,0,4.49,0,6.73,0,1.53,0,3.08,1.9,3.63a.78.78,0,0,1,.62.92c0,.75-.64.63-1.1.64h-7.74c-.46,0-1.05.16-1.23-.5s.12-.91.67-1.13c1.78-.71,1.67-2.35,1.71-3.81C520.41,376.1,520.36,372.69,520.36,369.28Z"/><path class="cls-6" d="M460.67,353.55a33.74,33.74,0,0,1,6.12.33,6.06,6.06,0,0,1,5,4.9,14.68,14.68,0,0,1,0,6.19c-.81,3.84-3.37,6-7.46,5.94-2,0-2.57.64-2.41,2.53s0,3.83,0,5.74c0,1.73-.23,3.62,2.06,4.28.52.15.52.59.43,1-.11.56-.59.49-1,.49h-8c-.38,0-.87.11-1-.42a.84.84,0,0,1,.57-1.17c1.8-.67,1.77-2.3,1.78-3.76q.07-10.37,0-20.71c0-1.46,0-3.08-1.84-3.69a.84.84,0,0,1-.55-1c.1-.7.65-.64,1.14-.64C457.17,353.54,458.75,353.55,460.67,353.55Z"/><path class="cls-18" d="M356.6,332l-3.75-.05c-3.16,0-3.32-.17-3.33-3.45,0-2.5,0-5,0-7.5l24,0a8.56,8.56,0,0,1,1,5.47c-.3,4.11-.34,4.1,3.62,4.3.89.05,1.83,0,2.51.76a3.78,3.78,0,0,1-2.4.37Z"/><path class="cls-19" d="M622,139.5a148.94,148.94,0,0,1-16.5-.49c-1.23-1.6-.63-3.54-1-5.31-.57-3.13.35-6.28.08-9.44-.11-1.32.75-2.42,2.46-1.78A139.73,139.73,0,0,1,622,124.89a3.93,3.93,0,0,1,.73,2.34q.09,5,0,10A3.3,3.3,0,0,1,622,139.5Z"/><path class="cls-20" d="M293,321.48v11.95c-7.16.12-14.32.79-21.5.48-1.38-3.77-1.18-7.63-.56-11.5a1.27,1.27,0,0,1,1.38-1.17C279.24,321.37,286.14,320.92,293,321.48Z"/><path class="cls-21" d="M428,97.93Q428,89,428,80a5.51,5.51,0,0,1,.57-3.12q5,1.77,10,3.56c.84.31,1.65.7,2.48,1a2.88,2.88,0,0,1,.44,2.15c-.37,5,.05,10-.23,15a3.3,3.3,0,0,1-.71,2.32Z"/><path class="cls-22" d="M355.52,77.56c0,5.7,0,11.39,0,17.09,0,.88-.5,2.1,1,2.39-4.62,2.3-9.63,3.5-14.52,5a3.37,3.37,0,0,1-1.11-3.14c.56-4.1-.34-8.21.16-12.31a2.24,2.24,0,0,1,.43-1.14Z"/><path class="cls-23" d="M95.87,368c0-2.83.07-5.66,0-8.49-.06-1.67.32-3.62-1.93-4.38a.81.81,0,0,1-.41-1.06c.14-.5.58-.52,1-.52h8.24a.93.93,0,0,1,1,.56c.22.64-.22.93-.74,1.05-1.79.4-2,1.73-2,3.25q0,9.1,0,18.21a11.5,11.5,0,0,0,.75,3.9,3.56,3.56,0,0,0,3,2.69,4,4,0,0,0,4-2,8.8,8.8,0,0,0,1.32-4.23c.3-6.15.2-12.31.09-18.46,0-1.42-.32-2.65-1.87-3.17-.49-.17-.89-.46-.81-1.09s.63-.66,1.12-.67h4.5c.42,0,.85.06,1,.53a.9.9,0,0,1-.53,1.22c-1.73.67-1.57,2.16-1.61,3.57-.19,6.39.41,12.81-.42,19.19-.79,6.08-4.58,8.9-9.91,7.45-3.18-.86-5.33-3.81-5.55-8-.17-3.16,0-6.32,0-9.48Z"/><path class="cls-24" d="M607.08,122.48c-2.05.11-2.11,1.53-1.83,3a13.74,13.74,0,0,1-.09,4.91c-.48,2.87.72,5.73.33,8.63-4.67,0-9.35.22-14-.43,0-5.41,0-10.83,0-16.24,0-.92-.4-2.12,1.11-2.38A131.05,131.05,0,0,1,607.08,122.48Z"/><path class="cls-25" d="M473,92,490.08,97c-1.21,3.88-.73,7.86-.71,11.82,0,1,.47,2-.4,2.82-5.23-.74-10.35-2-15.49-3.2a2,2,0,0,1-1.12-1.79c-.3-4.35-.07-8.71-.06-13.07A2,2,0,0,1,473,92Z"/><path class="cls-26" d="M400.6,64.47c-1.28.56-1.09,1.71-1.09,2.77V90c-2.95-.49-5.67-1.75-8.52-2.57-1.21-.7-1.25-1.9-1.25-3.07q-.06-10.62,0-21.24c0-1.16,0-2.38,1.25-3A20.45,20.45,0,0,1,400.6,64.47Z"/><path class="cls-27" d="M219,321.53a2.46,2.46,0,0,0-1.52,2.72c.11,3.58,0,7.16,0,10.74-6.14.88-12.32.32-18.49.46-.6-4-.28-8.07-.15-12.11,0-1.4,1-1.64,2.26-1.63,4.14.05,8.28,0,12.42,0a5.52,5.52,0,0,0,2.45-.2Z"/><path class="cls-6" d="M431,379.56c0-1.5,0-3,0-4.5,0-.37-.16-.9.42-1s.77.48.9.92a45.13,45.13,0,0,0,1.32,4.79c.79,2,1.9,3.77,4.4,3.86a2.93,2.93,0,0,0,2.84-2.06c1-2.22,1-4.46-.73-6.31a27.53,27.53,0,0,0-4-3.38c-4.57-3.39-5.73-7.93-4.58-13.26,1.08-5,4.52-6.87,9.3-5.05.91.34,1.66,1,2.5-.33.54-.84,1.14-.3,1.15.61,0,2.75,0,5.49,0,8.24,0,.42,0,.9-.6.87s-.71-.43-.79-.85a15.68,15.68,0,0,0-1.33-4c-.81-1.71-1.75-3.34-3.86-3.48a2.64,2.64,0,0,0-2.63,2c-.75,2.06-.81,4.17.83,5.83a30.56,30.56,0,0,0,4.58,3.84c5.62,3.81,5.68,11.42,3,16.1-1.84,3.17-5.42,4.1-9.16,2.45-.86-.38-1.6-1.24-2.42.25-.47.87-1.11.5-1.12-.5C431,382.89,431,381.22,431,379.56Z"/><path class="cls-6" d="M683.45,379.65c0-1.42,0-2.83,0-4.25,0-.5-.31-1.34.57-1.37s.69.82.84,1.34a38.62,38.62,0,0,0,1.28,4.54c.79,1.86,1.89,3.58,4.25,3.71a2.89,2.89,0,0,0,2.89-2c1-2.2,1.05-4.47-.62-6.32a31.82,31.82,0,0,0-4.36-3.72c-5.21-4-5.52-9.5-3.73-14.55,1.36-3.85,4.3-5,8.21-3.71,1,.35,2.11,1.53,3.16-.22.38-.64,1-.16,1,.63,0,2.75,0,5.49,0,8.24,0,.39.06.89-.51.95s-.75-.34-.84-.75a17.68,17.68,0,0,0-1.44-4.24c-.78-1.63-1.72-3.14-3.7-3.33a2.61,2.61,0,0,0-2.67,1.88c-.78,2-.9,4,.58,5.64a26.86,26.86,0,0,0,4.72,4.05c5.52,3.76,5.77,11,3.21,15.87-1.74,3.29-5.36,4.4-9,2.88-1-.4-1.81-1.49-2.85.2-.55.9-1,0-1-.75C683.44,382.81,683.45,381.23,683.45,379.65Z"/><path class="cls-6" d="M904.42,379.65c0-1.41,0-2.83,0-4.24,0-.51-.32-1.35.57-1.38s.69.81.84,1.33a37.56,37.56,0,0,0,1.28,4.54c.79,1.87,1.88,3.59,4.25,3.72a2.89,2.89,0,0,0,2.89-2c1-2.2,1.05-4.46-.62-6.32a31.82,31.82,0,0,0-4.36-3.72c-5.21-4-5.52-9.5-3.73-14.55,1.36-3.85,4.3-5,8.2-3.71,1,.35,2.12,1.54,3.17-.22.38-.64,1-.16,1,.63q0,4.11,0,8.24c0,.39.06.89-.51.95s-.75-.34-.84-.75a17.61,17.61,0,0,0-1.44-4.23c-.78-1.63-1.72-3.15-3.69-3.34a2.62,2.62,0,0,0-2.68,1.88c-.78,2-.9,4,.58,5.64a26.51,26.51,0,0,0,4.72,4.05c5.52,3.76,5.77,11,3.21,15.86-1.74,3.3-5.35,4.41-9,2.89-1-.4-1.81-1.49-2.85.2-.55.9-1,0-1-.75C904.42,382.81,904.43,381.23,904.42,379.65Z"/><path class="cls-28" d="M216,321.52c-1.47.92-3.08.38-4.62.42-3.24.1-6.49.1-9.73,0-1.61,0-2.23.47-2.16,2.13.11,2.82,0,5.65,0,8.48a5.1,5.1,0,0,1-.5,2.9l-5,0c-3.36.49-6.74.1-10.11.21-.77,0-1.4-.34-1.44-1.06-.24-4.24-1-8.51.51-12.67C194,321.34,205,321.45,216,321.52Z"/><path class="cls-29" d="M622,139.5q0-7.31,0-14.61c5.53.62,11,1.39,16.48,2.5,1.64,1.2,1,3,.82,4.38-.31,2.74,1,5.65-.84,8.21A154,154,0,0,1,622,139.5Z"/><path class="cls-15" d="M602,368.77v11.5c0,1.51.26,2.86,2.1,3.15.58.09.92.34.83,1s-.54.55-.94.55q-4.49,0-9,0c-.4,0-.86.05-1-.5a.76.76,0,0,1,.7-1.05c1.69-.3,2-1.59,2-3,.06-7.91.07-15.82.13-23.73,0-1.32-.68-1.32-1.6-1-2.67,1-3.33,3.26-3.74,5.72-.1.61.12,1.59-.78,1.56s-.62-1-.61-1.59c0-2.49-.82-5.69.41-7.26s4.67-.46,7.13-.55c3-.1,6,.07,9-.06,1.6-.07,2,.52,1.93,2-.11,2.16,0,4.33,0,6.5,0,.39,0,.9-.52.95s-.63-.43-.73-.82c-.26-1-.43-2.12-.76-3.14a4.78,4.78,0,0,0-2.42-3c-1.43-.71-2.26-.74-2.19,1.32.12,3.83,0,7.66,0,11.49Z"/><path class="cls-15" d="M254.46,368.73c0,3.67,0,7.33,0,11,0,1.71,0,3.44,2.32,3.73.5.06.67.43.63.89s-.5.59-.9.59q-4.5,0-9,0c-.5,0-1,0-1.07-.7a.74.74,0,0,1,.71-.84c1.68-.29,2-1.55,2.05-3,.06-7.91.07-15.82.14-23.73,0-1.28-.6-1.38-1.57-1-2.59.89-3.27,3.09-3.75,5.44-.14.68.21,1.88-.78,1.82-1.21-.07-.65-1.33-.62-2,.1-2.39-1.07-5.45.49-7s4.44-.35,6.75-.4c3.16-.06,6.33,0,9.49,0,1.33,0,1.76.41,1.7,1.71-.08,2.08,0,4.16,0,6.25,0,.51.31,1.38-.48,1.45s-.8-.9-.9-1.48a8.35,8.35,0,0,0-2-4.74c-.72-.72-1.68-1.42-2.65-1.11-1.13.37-.51,1.58-.53,2.39-.07,3.58,0,7.16,0,10.74Z"/><path class="cls-30" d="M638.49,140c.52-3.62-.26-7.3.43-10.92.1-.51-.26-1.11-.41-1.67,7.23.85,14.46,1.72,21.62,3.06-2,2.09-.78,4.75-1.21,7.13-.19,1,.05,2.15-.94,2.93Q648.23,140.68,638.49,140Z"/><path class="cls-31" d="M239.07,334.5c-1-1-.42-2.34-.53-3.51-.31-3.16.55-6.38-.51-9.5l18-.05c1.21,2,.75,4.31.86,6.49a18.51,18.51,0,0,1-.12,2.46c-.16,1.89.42,3,2.57,2.88a2.54,2.54,0,0,1,2.26.73,2.86,2.86,0,0,1-2.13.41Z"/><path class="cls-32" d="M183,322c0,3.8.06,7.6,0,11.4,0,1.64.53,2.18,2.14,2.13,3-.1,6,0,8.93,0-.61.61-1.39.44-2.12.44l-19.38.07L167,336c-1.3-2.35-1-5-.94-7.46.06-2.14-.42-4.49.94-6.48Z"/><path class="cls-33" d="M489,111.63c-1-3.81-.08-7.71-.43-11.55-.12-1.24-.51-2.83,1.54-3.09a128.22,128.22,0,0,1,14.52,4,133.06,133.06,0,0,1-.12,14C499.29,113.92,494.07,113.07,489,111.63Z"/><path class="cls-34" d="M413,320.93q0,5,0,10c-7.17.11-14.32.76-21.5.47a2.45,2.45,0,0,1-1.11-1.87c0-2.87-.84-5.8.61-8.56Z"/><path class="cls-35" d="M128,336c-5,0-10-.08-15,0-1.89.05-2.76-.4-2.57-2.48a35,35,0,0,0,0-6c-.2-2.41,0-4.38,3-4.55,6.51.17,13-.86,19.5-.49-.51.6-1.21.45-1.86.46-3.93,0-3.7-.57-3.59,3.85C127.64,329.87,127,333,128,336Z"/><path class="cls-6" d="M623.1,385c-1.25,0-2.5,0-3.75,0-.45,0-1.06.19-1.22-.5s.18-.92.78-1c1.83-.25,1.65-1.54,1.44-2.83a3.87,3.87,0,0,0-.2-.72c-.44-1.3-.14-3.31-1.47-3.73-1.66-.54-3.61-.17-5.44-.17-.68,0-.71.55-.82,1-.28,1.21-.62,2.41-.86,3.63s-.14,2.38,1.37,2.75c.54.13,1,.3.86.95s-.71.57-1.19.59-.83,0-1.25,0c-1.24,0-3.06.4-3.6-.25-1.14-1.32,1.16-1.77,1.47-2.93,1.19-4.41,2.49-8.78,3.69-13.19s2.37-9,3.58-13.48c.2-.75,0-1.93,1.06-2,1.18-.09.94,1.19,1.14,1.9,2.2,7.75,4.3,15.52,6.53,23.26.54,1.86.73,3.92,2.51,5.29.69.53.56,1.39-.64,1.41Z"/><path class="cls-6" d="M238.63,385c-1.25,0-2.5,0-3.75,0-.44,0-1,.19-1.21-.5s.18-.92.78-1c1.83-.25,1.65-1.54,1.44-2.83a4.56,4.56,0,0,0-.21-.72c-.44-1.3-.13-3.31-1.46-3.73-1.67-.54-3.62-.17-5.45-.17-.67,0-.71.55-.82,1-.28,1.21-.61,2.42-.85,3.64s-.14,2.37,1.37,2.74c.54.13,1,.3.85.95s-.71.57-1.19.59-.83,0-1.25,0c-1.24,0-3.06.39-3.6-.25-1.13-1.32,1.17-1.78,1.48-2.93,1.19-4.41,2.49-8.79,3.69-13.19s2.37-9,3.58-13.48c.2-.75.05-1.93,1.06-2,1.17-.09.94,1.2,1.14,1.9,2.2,7.75,4.3,15.52,6.53,23.26.53,1.87.72,3.92,2.51,5.29.69.53.55,1.39-.64,1.41Z"/><path class="cls-6" d="M335,385c-.83,0-1.67.06-2.49,0s-1.91.47-2.25-.43c-.51-1.34,1-.92,1.57-1.32a1.5,1.5,0,0,0,.69-1.49,12.21,12.21,0,0,0-.29-1.71c-.92-3.94-2.85-5.06-6.84-4a1.06,1.06,0,0,0-.9,1c-.29,1.38-.65,2.75-.92,4.13a1.81,1.81,0,0,0,1.32,2.33c.5.14,1.05.19,1,.88-.1.86-.82.66-1.36.68-1.25,0-2.5,0-3.74,0-.46,0-1.05.17-1.22-.52a1,1,0,0,1,.37-1.09c1.89-1.36,2-3.56,2.58-5.52,2.07-7.61,4-15.25,6.09-22.87.19-.71,0-1.92,1.17-1.87.95,0,.79,1.15,1,1.81,2.28,8.07,4.51,16.16,6.81,24.22.44,1.57.74,3.19,2.17,4.37.94.78.55,1.47-.71,1.47Z"/><path class="cls-36" d="M261.59,334l-.74,0c-5.15-.05-5.1-.05-4.85-5.14.13-2.45,0-4.92,0-7.39,18.49-.79,37-.36,55.48-.4-.86.76-1.9.41-2.86.41-5.2,0-10.41,0-15.62,0-6.3,0-12.6,0-18.9,0-1.78,0-2.6.25-2.69,2.39-.15,3.37.34,6.72.09,10.08Z"/><path class="cls-6" d="M830.58,353.5c2.91,0,5.82,0,8.74.06.61,0,1.47-.32,1.71.56s-.64,1-1.24,1.18c-1.46.4-1.63,1.65-1.64,2.77-.06,7.58,0,15.15,0,22.73,0,1.64.89,2.36,2.55,2.31a5.86,5.86,0,0,0,5.4-3.41c.73-1.48,1.25-3.07,1.84-4.61.15-.41.28-.82.82-.72s.51.53.46,1c-.34,2.81-.7,5.61-1,8.43-.14,1.4-1.08,1.19-2,1.19l-15.73,0a1.32,1.32,0,0,1,.22-2c1.49-1.31,1.51-3,1.5-4.8,0-5.8,0-11.6,0-17.41,0-1.93,0-3.8-1.56-5.28A1.25,1.25,0,0,1,830.58,353.5Z"/><path class="cls-6" d="M343.53,369c0-3.5,0-7,0-10.49,0-1.38-.14-2.69-1.72-3.25-.5-.17-.91-.41-.8-1.06s.7-.6,1.17-.6c2.75,0,5.49,0,8.24,0,.48,0,1-.08,1.19.6s-.3.91-.83,1c-1.84.33-2.09,1.77-2.1,3.21-.05,7.4,0,14.81,0,22.22,0,1.91,1,2.64,2.87,2.5a5.88,5.88,0,0,0,5.13-3.42c.7-1.4,1.18-2.92,1.76-4.38.17-.44.19-1.08.91-.9s.41.77.37,1.23a1.9,1.9,0,0,1,0,.25c-.36,3,.38,6.8-1.44,8.64-1.61,1.63-5.38.37-8.2.43-2.5.06-5,0-7.49,0-.51,0-1.23.32-1.48-.48s.32-.92.9-1.16c1.5-.62,1.6-2,1.6-3.36Z"/><path class="cls-37" d="M574.49,116.57c.47,4-.17,7.93,0,11.89l-16.52-3c-1.17-.21-1.52-1.05-1.75-2.09a17.2,17.2,0,0,1,.1-8.07c.29-1.19.69-2.28,2.31-1.8C564,114.19,569.24,115.37,574.49,116.57Z"/><path class="cls-38" d="M438.51,330.41c.32-2.54-.42-5.05-.11-7.61.18-1.56.83-1.86,2.22-1.85,7.13.07,14.26.05,21.4.07,1.29,3,.54,5.93,0,8.89l-8.4.1c-3.12.46-6.25.07-9.38.2a8.74,8.74,0,0,0-2.7.17Z"/><path class="cls-39" d="M341.5,85.49c.17,4.14.63,8.29,0,12.42-.21,1.46.47,2.77.5,4.17a75.46,75.46,0,0,1-12,4,1.34,1.34,0,0,1-2-1.19c-.3-4.27-1-8.57.48-12.78C332.87,89.91,336.94,87.21,341.5,85.49Z"/><path class="cls-40" d="M462,329.91c-.76-3,.26-5.93,0-8.89h23.49c1.2,2.74.92,5.56.49,8.4l-7.4.09c-3.36.44-6.75.07-10.12.21a9.12,9.12,0,0,0-3,.17Z"/><path class="cls-41" d="M391,60.1a4.07,4.07,0,0,0-.49,2.14q0,11.54,0,23.08a4.07,4.07,0,0,0,.49,2.14c-2.1-.45-4.18-1.16-6.38-.89-1.83-.2-1.6-1.58-1.6-2.81q0-11.57,0-23.13C385.61,59.46,388.33,60.22,391,60.1Z"/><path class="cls-42" d="M598.5,321l34,0a4.94,4.94,0,0,1,0,5.41c-10.12.61-20.24.57-30.37.56-1.18.18-2.72.79-3.37-.41C597.86,324.91,597.23,322.94,598.5,321Z"/><path class="cls-43" d="M440.51,100.94c0-5.92,0-11.83.08-17.75a7.3,7.3,0,0,1,.42-1.67A88.63,88.63,0,0,1,451,85c.76,2.59.28,5.24.32,7.85l.15,10.61Z"/><path class="cls-44" d="M473,92c0,4.59,0,9.18,0,13.77a4.49,4.49,0,0,0,.48,2.62L462,105.92a2.39,2.39,0,0,1-1.2-2.28c-.11-4.44-.12-8.88,0-13.33a2.25,2.25,0,0,1,.71-1.78A109.69,109.69,0,0,1,473,92Z"/><path class="cls-45" d="M527.5,106.55c5,1,10.07,2,15,3.46a20.75,20.75,0,0,1,0,12.43l-15.5-3C526.7,115.12,526.06,110.8,527.5,106.55Z"/><path class="cls-46" d="M461.5,88.53V103a4.85,4.85,0,0,0,.48,2.9,93.73,93.73,0,0,1-10.48-2.45c-1.51-1.57-.92-3.7-.83-5.35.23-4.37-.58-8.77.36-13.11Z"/><path class="cls-23" d="M267.73,385h-4.24c-.4,0-.87.07-1-.48s.07-.91.69-1.07c1.63-.42,1.86-1.74,1.86-3.13q0-11,0-22c0-1.41-.25-2.68-1.84-3.16-.55-.16-.88-.48-.7-1.09s.59-.5,1-.5H272c.52,0,1,.09,1.07.75s-.31.73-.73.84c-1.8.45-1.91,1.89-1.91,3.33q0,10.86,0,21.72c0,1.48.18,2.88,2,3.24a.74.74,0,0,1,.65.88c-.05.74-.64.63-1.11.64C270.56,385,269.15,385,267.73,385Z"/><path class="cls-23" d="M139.56,369.31c0-3.58,0-7.15,0-10.73,0-1.46-.09-2.89-1.83-3.42-.54-.16-.9-.47-.73-1.08s.77-.52,1.24-.52c2.66,0,5.33,0,8,0,.56,0,1.23-.11,1.34.73s-.48.79-.94.93c-1.38.42-1.67,1.52-1.67,2.74q0,11.35,0,22.71c0,1.26.35,2.32,1.72,2.7.5.14,1,.25.92.92s-.61.67-1.09.67H138c-.49,0-1,0-1.06-.7,0-.49.24-.72.71-.84,1.77-.47,1.88-1.91,1.89-3.37C139.58,376.47,139.56,372.89,139.56,369.31Z"/><path class="cls-23" d="M563.23,385H559c-.49,0-1,0-1.06-.7,0-.49.24-.72.71-.84,1.63-.42,1.88-1.72,1.88-3.11q0-11,0-22c0-1.4-.23-2.68-1.83-3.17-.53-.16-.89-.46-.73-1.07s.57-.53,1-.53h8.49c.51,0,1,.06,1.09.73s-.27.74-.7.85c-1.49.37-1.91,1.46-1.91,2.82q0,11.35,0,22.71c0,1.26.35,2.32,1.72,2.7.5.14,1,.25.92.92-.09.92-.82.65-1.34.66C565.89,385,564.56,385,563.23,385Z"/><path class="cls-23" d="M861.46,385c-3.07,0-6.15,0-9.23,0-.51,0-1.24.25-1.33-.66-.08-.67.42-.76.91-.93,1.45-.49,1.67-1.72,1.67-3q0-11.1,0-22.19c0-1.2-.21-2.34-1.52-2.86-.53-.22-1.22-.32-1-1.13s.9-.59,1.43-.59c3,0,6,0,9-.05.87.83.32,1.54-.28,2.12a4.73,4.73,0,0,0-1.32,3.63q0,10.08,0,20.18A4,4,0,0,0,861,382.8C861.67,383.36,862.1,384.06,861.46,385Z"/><path class="cls-23" d="M829.46,385c-3.07,0-6.15,0-9.22,0-.52,0-1.25.25-1.34-.66-.07-.67.42-.76.91-.93,1.45-.49,1.67-1.72,1.67-3q0-11.1,0-22.19c0-1.2-.21-2.34-1.52-2.86-.52-.21-1.21-.32-1-1.13s.9-.59,1.43-.59c3,0,6,0,9-.05.87.83.33,1.54-.28,2.12a4.73,4.73,0,0,0-1.32,3.63q0,10.08,0,20.18A4,4,0,0,0,829,382.8C829.67,383.36,830.11,384.06,829.46,385Z"/><path class="cls-23" d="M712.41,385c-1.42,0-2.83,0-4.25,0-.45,0-1,.16-1.22-.51s.13-.89.73-1.05c1.62-.43,1.82-1.77,1.83-3.15q0-11,0-22c0-1.42-.28-2.67-1.87-3.14-.56-.16-.86-.5-.66-1.1s.62-.48,1-.48h8.49c.42,0,.86,0,1,.53s-.17.92-.72,1.06c-1.65.41-1.87,1.72-1.87,3.1q0,11.12,0,22.22c0,1.32.26,2.52,1.79,2.9.54.14.94.33.86,1s-.67.61-1.14.62C715.07,385,713.74,385,712.41,385Z"/><path class="cls-23" d="M640,385c-3.07,0-6.15,0-9.22,0-.52,0-1.25.25-1.34-.66-.07-.67.42-.76.91-.93,1.45-.49,1.67-1.72,1.67-3q0-11.1,0-22.19c0-1.2-.21-2.33-1.52-2.86-.53-.21-1.22-.32-1-1.13s.9-.59,1.44-.59c3,0,6,0,9-.05.87.83.32,1.54-.28,2.12a4.73,4.73,0,0,0-1.32,3.63q0,10.08,0,20.18a4,4,0,0,0,1.26,3.36C640.19,383.36,640.62,384.06,640,385Z"/><path class="cls-47" d="M167,322V336c-3.9,0-7.81-.06-11.71,0-1.69,0-2.4-.41-2.32-2.22.13-3.07.11-6.16,0-9.23-.06-1.67.59-2.07,2.17-2.13,3-.11,5.94.62,8.84-.41Z"/><path class="cls-48" d="M504.48,114.93a35,35,0,0,1,.12-14L517.94,104a8.13,8.13,0,0,1,1.11.46c-1.41,2.84-.61,5.88-.81,8.83-.1,1.47.17,3-1.24,4.11Z"/><path class="cls-49" d="M502,321h22.52a3.7,3.7,0,0,1,.69,3c-.2,2.07.29,3.69,2.4,4.47-1.93.66-3.93.33-5.9.36-6.53.1-13.07.11-19.61.15-.17,0-.4.1-.47,0C500.37,327.52,500.6,322.6,502,321Z"/><path class="cls-50" d="M391,321c.21,3.48-.49,7,.5,10.43l-10.91.12c-1.25,0-2.5,0-3.75,0-3.49,0-3.75,0-3.25-3.37.36-2.43-.28-4.75-.09-7.12Z"/><path class="cls-51" d="M542.5,122.44V110l14.74,3a10.76,10.76,0,0,1,1.39.46c-.69.09-1.37.28-1.53,1a19.79,19.79,0,0,0,.17,10.22c.09.27.46.46.7.69Z"/><path class="cls-52" d="M547.5,321H572a3.26,3.26,0,0,1,1,3.19c-.36,1.82.25,2.67,2.15,2.6a2.2,2.2,0,0,1,2,.72c-2.52.64-5.1.32-7.65.37-6.05.13-12.1.15-18.15.22-4.49.26-4.57.19-4.52-4.3A3.74,3.74,0,0,1,547.5,321Z"/><path class="cls-53" d="M547.5,321c0,1.48,0,3,0,4.43,0,1.74.44,3,2.61,2.53a4,4,0,0,1,1.21.14c-7.91.56-15.82.34-23.73.4-2.67.42-3.43-.87-3.13-3.33a36.22,36.22,0,0,0,0-4.17Z"/><path class="cls-54" d="M577.12,327.53c-.41,0-.83-.06-1.25-.06-3.65-.05-3.61-.05-3.45-3.77A13.1,13.1,0,0,0,572,321h26.5c-.29,1.68.32,3.27.57,4.88.29,1.89,2,.7,3,1.11-2.27.69-4.59.33-6.89.38C589.19,327.5,583.16,327.49,577.12,327.53Z"/><path class="cls-55" d="M658,140.51a63.68,63.68,0,0,0,.29-7.67c-.12-1.67.32-2.3,1.86-2.39a146.14,146.14,0,0,1,15.87,2c1.68,2.84,1.15,5.68,0,8.52C670,141.08,664,141,658,140.51Z"/><path class="cls-1" d="M829.46,385c.06-.55.4-1.3-.41-1.46-2.3-.45-2.19-2.2-2.19-3.87,0-6.83,0-13.66,0-20.49,0-1.75-.1-3.56,2.24-4.13.81-.2.35-.95.24-1.49h1.25c-.09.55-.48,1.28.28,1.52,2.36.76,2.12,2.67,2.12,4.5q0,9.72,0,19.44c0,1.9.26,3.91-2.28,4.63-.51.14-.26.87-.2,1.35Z"/><path class="cls-1" d="M861.46,385c.06-.55.39-1.3-.41-1.46-2.3-.45-2.19-2.2-2.2-3.87q0-10.25,0-20.49c0-1.75-.1-3.56,2.24-4.13.81-.2.35-.95.24-1.49h1.23c-.14.55-.5,1.27.24,1.52,2.32.77,2.17,2.66,2.17,4.5,0,6.4,0,12.81,0,19.21,0,2,.36,4.11-2.31,4.87-.51.15-.28.87-.19,1.36Z"/><path class="cls-1" d="M640,385c.06-.55.39-1.3-.41-1.46-2.3-.45-2.19-2.2-2.2-3.87q0-10.25,0-20.49c0-1.75-.1-3.56,2.24-4.13.81-.2.35-.95.24-1.49h1.24c-.12.55-.48,1.29.24,1.53,2.33.79,2.13,2.7,2.14,4.51q0,9.57,0,19.16c0,1.95.36,4.09-2.28,4.89-.49.15-.25.88-.17,1.36Z"/><path class="cls-56" d="M328.52,92.06c0,3.87,0,7.75,0,11.62,0,1.13,0,2.22,1.52,2.35a113.65,113.65,0,0,1-13,4,2.33,2.33,0,0,1-1.11-1.84,53.86,53.86,0,0,1-.05-8.89A2.23,2.23,0,0,1,317,97.53Z"/><path class="cls-57" d="M747.07,353.5c-.2.64-.46,1.39.43,1.66,1.85.56,2,2,2,3.54,0,7,0,14.07,0,21.11,0,1.94-.6,3.35-2.58,3.92-2.38-.16-3.26-1.6-3.26-3.81,0-7.12,0-14.24,0-21.36,0-1.5.21-3,2.1-3.49,1-.29.42-1,.11-1.57Z"/><path class="cls-58" d="M632.49,326.45c0-1.8,0-3.61,0-5.41h29a5.27,5.27,0,0,1-.5,4.87C651.49,326.27,642,326.61,632.49,326.45Z"/><path class="cls-59" d="M661,325.92a17.35,17.35,0,0,1,.5-4.87h29c.74,3.15.74,3.16,4.13,3.17,2.08,0,4.16,0,6.24,0,1,0,2-.1,2.77.78a4,4,0,0,1-1,.25Z"/><path class="cls-37" d="M574.49,130.5c-.56,2.52,1.15,5,0,7.55-6.5.09-13-.12-19.48-.58-1.21-1.72-.88-3.65-.53-5.49.39-2.08,2.38-.76,3.5-1.38Z"/><path class="cls-60" d="M703.61,325,693.13,325c-3.28,0-3.73-.67-2.66-3.91l33.56,0c1,1.92,2.68,2.8,4.59,3.46-4.11.63-8.24.31-12.36.41S707.83,325,703.61,325Z"/><path class="cls-61" d="M502,321a15.06,15.06,0,0,0,.1,8c-5.35.72-10.72.34-16.09.39-.91-2.76-.35-5.6-.49-8.4Z"/><path class="cls-62" d="M317,97.53a32.66,32.66,0,0,0,0,12.54,68,68,0,0,1-11.51,3.45c-1.92-3.43-1.26-7-.52-10.53Z"/><path class="cls-63" d="M517,117.44c1-3.56.32-7.2.48-10.8,0-1.12-.08-2.24,1.57-2.14a47.33,47.33,0,0,1,8.45,2c-.25,4.29.54,8.62-.5,12.88Z"/><path class="cls-64" d="M558,130.6c-3,.09-3.28,2.05-3,4.42a20,20,0,0,1,0,2.45c-6.35.25-12.68-.41-19-.54a4.15,4.15,0,0,1,0-6C543.32,130.39,550.65,130.56,558,130.6Z"/><path class="cls-65" d="M728.62,324.54c-2.64.31-4.57-.3-4.59-3.46l37.46,0a2,2,0,0,1,0,2.82C750.53,324.45,739.57,324.56,728.62,324.54Z"/><path class="cls-66" d="M712,141.92l-21-.49a7.35,7.35,0,0,1-.79-5.46c.23-1.35,1-2.07,2.46-1.51,6.17.43,12.32,1.08,18.44,2-2.17,2.15-2,3.17.6,4.83A.59.59,0,0,1,712,141.92Z"/><path class="cls-67" d="M692.65,134.46c-2.38.11-2,2-1.9,3.36s.16,2.41.23,3.61h-.52c-3.36-.52-6.76.18-10.12-.37L676,141c-.05-2.84.89-5.68,0-8.52L690.48,134A4.18,4.18,0,0,1,692.65,134.46Z"/><path class="cls-68" d="M305,103c.16.45.56,1,.45,1.36-.93,3.07-.15,6.11.07,9.17a78.56,78.56,0,0,1-10.5,3c-1.37-3-.77-6-.54-9.06A71.64,71.64,0,0,1,305,103Z"/><path class="cls-69" d="M712,141.92c-1.79-.43-3.51-.67-3.07-3.4.25-1.59.71-2.17,2.2-2.06q10,.66,20,2c-.43,1.14-.28,2.47-1.12,3.48Z"/><path class="cls-70" d="M294.48,107.47c1.13,3,.27,6,.54,9.06a41.94,41.94,0,0,1-9,2.49c-1.68.68-2.63,0-2.7-1.69-.08-2-.59-4,.69-5.81A78.51,78.51,0,0,1,294.48,107.47Z"/><path class="cls-71" d="M536,131a8,8,0,0,0,0,6l-15-.5c-2.88-.47-3.49-2.11-2-5.34Z"/><path class="cls-72" d="M284,111.52c0,1.88.08,3.75,0,5.62-.09,1.58.63,2,2,1.88a112.32,112.32,0,0,1-13.49,3.51c-1.33-.1-1.18-1.21-1.19-2,0-1.5-.74-3,.18-4.5Z"/><path class="cls-73" d="M761.48,323.93c0-.94,0-1.88,0-2.82l5.56-.22,25.42.11a5.24,5.24,0,0,0,3.92,1.22c2.16,0,4.31,0,6.46,0,1,0,2-.08,2.76.8-4.93.63-9.89.31-14.83.43-3.55.09-7.1,0-10.65,0-3.47.43-7,.07-10.43.2a8.52,8.52,0,0,0-2.71.16Z"/><path class="cls-74" d="M271.53,116.05c.87,2.07-.06,4.43,1,6.48-4.34,1.81-9,2.57-13.52,3.49-1.69-1.69-1.48-3.55-.49-5.48Z"/><path class="cls-75" d="M730,141.93c.33-1.17-.87-2.84,1.12-3.48l28.35,2.3a83.16,83.16,0,0,1,9.64,1.18Z"/><path class="cls-48" d="M519,131.09a13.12,13.12,0,0,1,0,2.43c-.33,1.71.53,2.5,2,2.91-5,.23-10-.46-15-.5a3.16,3.16,0,0,0-1.72-.16c-1.72.2-2.45-.57-2.45-2.25s.74-2.29,2.46-2.28a104.79,104.79,0,0,0,11.21-.14Z"/><path class="cls-76" d="M515.47,131.1c-3.25.91-6.59.13-9.87.45-1.17.11-2.92-.91-3.15,1.59s1.2,2.48,2.89,2.44c.21,0,.42.23.63.35-5,.25-10-.48-15-.5a2.87,2.87,0,0,0-1.2-.17c-3.07-.08-3.54-.85-2.27-3.74C496.82,131.23,506.14,130.87,515.47,131.1Z"/><path class="cls-77" d="M822,321l55.46,0c-.46,1.24-1.51.52-2.27.64-1.22.18-2.47-.17-3.69.19-13.44.25-26.88.79-40.33.64-2.69.43-5.4.1-8.1.18C821.81,322.74,821.35,322.21,822,321Z"/><path class="cls-78" d="M467.5,134.52c-6.52.23-13-.38-19.52-.58-2.32-.54-4.72.19-7.05-.39l-1.43,0a1,1,0,0,1,0-1.47c11.49-.08,23-.78,34.47-.47-.49,1.54-1.84,1.09-2.84,1.08A3.63,3.63,0,0,0,467.5,134.52Z"/><path class="cls-25" d="M467.5,134.52c-.26-1.85.35-2.7,2.41-2.56,1.33.1,2.78.49,4.07-.37l13.52-.07c-.77,3,1.17,3.63,3.47,3.91l-14.49-.49c-2.49-.55-5.06.2-7.55-.4Z"/><path class="cls-79" d="M822,321c-.1,1.29.69,1.45,1.73,1.45,2.48,0,5,0,7.44,0-3.94.64-7.92.33-11.88.42-4.55.11-9.1.07-13.65.1-3.54,0-7.08-.11-10.62,0-1.51,0-2.37-.47-2.52-2Z"/><path class="cls-80" d="M249,128.51a131.64,131.64,0,0,1-14,3c-1.71-.29-1.82-.51-1.5-3l15-4.5C249.45,125.43,250,126.89,249,128.51Z"/><path class="cls-81" d="M249,128.51l-.51-4.49,10-3.48A15.35,15.35,0,0,0,259,126,95.29,95.29,0,0,1,249,128.51Z"/><path class="cls-82" d="M233.53,128.52c.92.79-.27,2.63,1.5,3-4.51,1.5-9.27,1.86-13.85,3-.88.22-1.77.34-2.65.51a1.43,1.43,0,0,1,0-2Z"/><path class="cls-83" d="M584.23,343.82c0,2.36-1.63,3.4-2.91,4.61-1,.95-2,3.13-3.42,2.07-1.2-.89.74-2.32,1.2-3.53a27.75,27.75,0,0,1,2.09-3.91c.44-.74,1-1.37,2-1S584.18,343.23,584.23,343.82Z"/><path class="cls-84" d="M439.51,132.06v1.47c-7.64.28-15.26-.67-22.91-.57.1-1.27,1.07-.54,1.62-.66.92-.2,1.91.18,2.83-.24Z"/><path class="cls-85" d="M218.52,133c0,.67,0,1.34,0,2-5.08,1.42-10.34,1.61-15.55,2.31C208.15,135.79,213.15,133.75,218.52,133Z"/><path class="cls-86" d="M871.47,321.88c1.87-1.12,4.09.27,6-.83h19.51v.32Z"/><path class="cls-35" d="M128,336.43c0-.15,0-.31,0-.46,7.3,0,14.59,0,21.89,0,.87,0,1.84-.32,2.6.45Z"/><path class="cls-87" d="M421,132.06c-1.33,1.07-3.13-.21-4.45.9-3.71.37-7.36-.29-11-.9Z"/><path class="cls-65" d="M767,323.88c4.36-.9,8.76-.24,13.14-.36C775.76,324.13,771.37,323.89,767,323.88Z"/><path class="cls-38" d="M465.53,329.89c3.41-1,6.89-.19,10.34-.42.9-.06,1.82,0,2.73,0C474.26,330.24,469.89,329.85,465.53,329.89Z"/><path class="cls-5" d="M441.53,330.38c4-.92,8.05-.21,12.08-.37C449.6,330.76,445.56,330.35,441.53,330.38Z"/><path class="cls-55" d="M680.34,141.06c3.37.13,6.78-.54,10.12.37C687.08,141.44,683.69,141.67,680.34,141.06Z"/><path class="cls-78" d="M468.93,134.54c2.52.17,5.08-.53,7.55.4C474,134.88,471.41,135.33,468.93,134.54Z"/><path class="cls-84" d="M440.93,133.55c2.35.13,4.75-.5,7.05.39C445.63,133.89,443.25,134.34,440.93,133.55Z"/><path class="cls-88" d="M905.92,321h4.92a13,13,0,0,1-4.92.37c-.14-.09-.18-.17-.14-.25S905.87,321,905.92,321Z"/><path class="cls-89" d="M905.92,321a1.15,1.15,0,0,1,0,.37h-5c-.14-.08-.19-.16-.14-.24s.09-.12.14-.12Z"/><path class="cls-90" d="M900.93,321a1.09,1.09,0,0,1,0,.36l-4,0v-.32Z"/><path class="cls-1" d="M350.13,207.41c0-3.83.1-7.66,0-11.48-.07-1.8.29-2.47,2.27-2.39,4.57.17,9.16.05,13.73.1,7.54.08,14.35,8.83,12.65,16.21-1.57,6.82-5.51,10.29-12.5,10.72-4.65.28-9.31.23-14,.46-1.58.08-1.73-.62-1.71-1.89.06-3.91,0-7.82,0-11.73Z"/><path class="cls-1" d="M625.47,280.76c0-5.58,2.62-8.87,6.7-8.79,4.45.09,7.35,4.33,6.84,10-.45,5-3.85,7.85-8.32,7a5.77,5.77,0,0,1-4.32-3.73A10.27,10.27,0,0,1,625.47,280.76Z"/><path class="cls-1" d="M680,280.8c0-5.69,2.68-9,6.89-8.82,4.4.19,7.24,4.55,6.64,10.18-.52,4.82-3.85,7.6-8.24,6.86a5.76,5.76,0,0,1-4.36-3.68A10.32,10.32,0,0,1,680,280.8Z"/><path class="cls-1" d="M566,280.31c0-5,2.94-8.29,7.54-8.34s7.82,3.27,7.9,8.08c.09,5.52-2.88,9.09-7.64,9.16S566,285.94,566,280.31Z"/><path class="cls-1" d="M825.64,289.51c-.27-.05-1.09-.15-1.89-.35a2.86,2.86,0,0,1-2.5-2.45,3.39,3.39,0,0,1,1.68-3.4c3-1.77,6.41-1.48,9.72-1.39,1,0,.75.92.67,1.55C832.88,287,829.91,289.49,825.64,289.51Z"/><path class="cls-91" d="M723,277.82c-1.66,0-3.33-.05-5,0-1.41.06-1.77-.55-1.39-1.82a6.76,6.76,0,0,1,6.31-4.46,6.29,6.29,0,0,1,6.29,4c.51,1.44.5,2.44-1.49,2.31C726.14,277.75,724.55,277.82,723,277.82Z"/><path class="cls-91" d="M926.31,277.82c-1.66,0-3.33,0-5,0-1.32.05-1.55-.6-1.27-1.71.65-2.55,3.46-4.53,6.49-4.56a6.27,6.27,0,0,1,6.19,4.11c.44,1.35.39,2.28-1.44,2.17C929.63,277.75,928,277.82,926.31,277.82Z"/><path class="cls-92" d="M544.09,362.52c0-1.58,0-3.16,0-4.74,0-.94.13-1.92,1.22-2.22a2.54,2.54,0,0,1,2.66,1c1.71,1.91,1.89,8.76.29,10.76a4.37,4.37,0,0,1-2.35,1.31c-1.26.36-1.91.16-1.84-1.32S544.09,364.11,544.09,362.52Z"/><path class="cls-92" d="M648.59,362.69c0-1.66,0-3.33,0-5,0-.85.13-1.73,1.06-2.08a2.47,2.47,0,0,1,2.71.77c1.82,1.83,2.07,9,.34,10.95a3.49,3.49,0,0,1-3.56,1.29c-1.14-.35-.45-1.76-.54-2.69s0-2.16,0-3.25Z"/><path class="cls-92" d="M890.06,362.3c0-1.49,0-3,0-4.49,0-.94.1-1.92,1.19-2.24a2.51,2.51,0,0,1,2.67.93c1.71,1.88,1.92,8.73.32,10.76a4.63,4.63,0,0,1-2.82,1.43c-1,.25-1.38-.19-1.37-1.14C890.07,365.8,890.06,364.05,890.06,362.3Z"/><path class="cls-92" d="M485.88,362c0,4.38-.9,6-3.44,6.63-1.23.32-1.89.22-1.86-1.29.06-3.16,0-6.33,0-9.49,0-.94.1-1.93,1.19-2.23a2.53,2.53,0,0,1,2.83,1.13C485.81,358.35,485.72,360.32,485.88,362Z"/><path class="cls-93" d="M811.77,376.3c-.27,1.76-.06,3.56-.94,5.16A2.64,2.64,0,0,1,808,383c-1.43-.25-1.43-1.46-1.44-2.53,0-3.24,0-6.49,0-9.73,0-1.38.6-1.52,1.67-1.3a3.84,3.84,0,0,1,2.87,2.48A19.07,19.07,0,0,1,811.77,376.3Z"/><path class="cls-94" d="M806.52,361.82c0-1.5,0-3,0-4.48,0-.86.16-1.72,1.2-1.91a1.88,1.88,0,0,1,2.27,1.1,11.64,11.64,0,0,1,0,9.41,2.57,2.57,0,0,1-2.92,1.45c-1.23-.29-.49-1.54-.59-2.34a26.74,26.74,0,0,1,0-3.23Z"/><path class="cls-1" d="M403.92,369.75A38.71,38.71,0,0,1,403,378a6.45,6.45,0,0,1-3.44,4.62c-1.93.86-3,.33-3-1.73q-.11-11.7,0-23.41c0-1.87,1.14-2.47,2.86-1.68,2.29,1.06,3,3.24,3.57,5.41A41.58,41.58,0,0,1,403.92,369.75Z"/><path class="cls-1" d="M165.41,369.7c-.27,3.54-.15,7.06-1.38,10.4-.67,1.84-1.54,3.71-3.79,3.78s-3.33-1.77-3.85-3.65a39.53,39.53,0,0,1,0-21.6c.51-1.85,1.43-3.72,3.79-3.69s3.09,2,3.76,3.78C165.27,362.27,165.15,366.05,165.41,369.7Z"/><path class="cls-1" d="M510.88,369.61c-.28,3.56-.14,7.08-1.36,10.42-.71,1.92-1.57,3.89-4,3.84-2.27-.05-3.24-1.94-3.74-3.81a40.46,40.46,0,0,1,0-21.37,7.09,7.09,0,0,1,1.1-2.22c1.52-2.13,3.8-2.13,5.35,0a13.79,13.79,0,0,1,2.15,6.55C510.71,365.21,510.74,367.46,510.88,369.61Z"/><path class="cls-1" d="M791.84,369.71c-.24,3.49-.13,7.1-1.4,10.5-.69,1.83-1.59,3.68-3.88,3.67s-3.18-1.74-3.69-3.53a39.27,39.27,0,0,1,0-21.84c.5-1.76,1.4-3.52,3.63-3.57,2.41-.06,3.16,1.9,3.84,3.66C791.7,362.15,791.61,365.93,791.84,369.71Z"/><path class="cls-1" d="M290.9,369.61c-.28,3.57-.14,7.09-1.36,10.43-.71,1.92-1.58,3.89-4,3.83s-3.25-1.94-3.75-3.81a40.5,40.5,0,0,1,0-21.38,7.12,7.12,0,0,1,1.09-2.21c1.53-2.13,3.8-2.13,5.35,0a13.72,13.72,0,0,1,2.15,6.55C290.73,365.22,290.76,367.47,290.9,369.61Z"/><path class="cls-57" d="M525.5,362.34v-4.73c0-.83,0-1.75,1-2a2.32,2.32,0,0,1,2.59,1c1.42,1.92,1.44,9.16,0,11.06a2.81,2.81,0,0,1-3,1.25c-1.16-.33-.48-1.55-.54-2.36C525.41,365.16,525.5,363.75,525.5,362.34Z"/><path class="cls-57" d="M462,362.48c0-1.57,0-3.14,0-4.72,0-.9-.13-1.93,1.07-2.21a2.32,2.32,0,0,1,2.55,1.14c1.33,1.92,1.36,8.94.07,10.87a2.91,2.91,0,0,1-3,1.39c-1.35-.24-.61-1.47-.68-2.24C461.91,365.31,462,363.89,462,362.48Z"/><path class="cls-95" d="M615.82,363.78c.93,3.35,1.67,6.12,2.46,8.88.25.86,0,1.25-.88,1.21h-.74c-3.49.09-3.49.09-2.67-3.23.38-1.52.76-3,1.15-4.55C615.28,365.53,615.46,365,615.82,363.78Z"/><path class="cls-96" d="M231.33,363.74c.94,3.37,1.73,6.21,2.53,9,.21.74,0,1.1-.81,1.09a22.79,22.79,0,0,0-2.48,0c-1.63.16-1.77-.64-1.41-1.94C229.86,369.41,230.51,366.87,231.33,363.74Z"/><path class="cls-95" d="M327.82,363.73c.95,3.41,1.74,6.25,2.54,9.08.21.77-.1,1.07-.85,1.06s-1.66-.06-2.48,0c-1.36.12-1.79-.41-1.43-1.73C326.32,369.55,327,366.94,327.82,363.73Z"/></g></g></svg>