<?xml version="1.0" encoding="utf-8"?>
<!-- Generator: Adobe Illustrator 25.0.1, SVG Export Plug-In . SVG Version: 6.00 Build 0)  -->
<svg version="1.1" id="Calque_1" xmlns="http://www.w3.org/2000/svg" xmlns:xlink="http://www.w3.org/1999/xlink" x="0px" y="0px"
	 viewBox="0 0 991 393" style="enable-background:new 0 0 991 393;" xml:space="preserve">
<style type="text/css">
	.st0{fill:#FFFFFF;}
</style>
<g id="Calque_2_1_">
	<g id="Calque_1-2">
		<path class="st0" d="M500.3-2.9c164.4,0,328.8,0,493.2,0c1.9,0,2.3,0.4,2.3,2.3c0,129.5,0,258.9,0,388.4c0,1.9-0.4,2.3-2.3,2.3
			c-328.8-0.1-657.6-0.1-986.4,0c-1.9,0-2.3-0.4-2.3-2.3c0.1-129.5,0.1-259,0-388.4C4.8-2.6,5.3-3,7.1-3
			C171.5-2.9,335.9-2.9,500.3-2.9z"/>
		<path class="st0" d="M312,232.2v-2.7c0-22,0-44,0-66c0-2,0.5-2.6,2.6-2.6c22.9,0.1,45.8,0,68.7,0.1c20.3,0,39.8,16.7,42.4,36.7
			c1.6,12.6-2.4,24-10.2,34c-6.7,8.6-15.1,14.5-26,16.1c-1.7,0.2-3.3,0.3-5,0.3c-9.1,0-18.2,0.1-27.2,0c-1.8,0-2.2,0.5-2.2,2.2
			c0.1,13.5,0,27,0.1,40.5c0,2-0.6,2.5-2.5,2.5c-14.5-0.1-29-0.1-43.5,0c-1.7,0.2-3.2-0.7-4-2.2c-10.2-16.4-20.4-32.7-30.8-49.1
			l-1.4-2.2c-0.5,4.4-0.5,8.4-0.9,12.4c-2.4,23.1-15.3,34.9-36.2,40.2c-13,3.3-26.3,3.9-39.6,3.2c-12.2-0.6-24.1-2.5-35.1-8.3
			c-12.1-6.3-20.1-15.9-23-29.4c-0.3-1.6-0.4-3.3-0.3-5c0-29.3,0-58.7,0-88c0-2,0.4-2.6,2.6-2.6c14.4,0.2,28.8,0.3,43.2,0.3
			c2.1,0,2.4,0.8,2.4,2.6c0,27.1,0.1,54.3-0.1,81.5c-0.1,8.8,4.8,13.9,12.3,15.7c6.8,1.6,13.4,1.4,19.6-2.1
			c4.5-2.5,6.6-6.3,6.6-11.4c0-28.1,0-56.2-0.1-84.2c0-2.2,0.4-2.9,2.8-2.9c12.4,0.1,24.8,0.1,37.2,0c1.7-0.2,3.2,0.7,4,2.2
			c13.9,22.1,27.9,44.2,41.9,66.2l1.3,2.1L312,232.2z"/>
		<path class="st0" d="M484,227c0,21,0,42,0,63c0,2-0.4,2.6-2.6,2.6c-14.4-0.1-28.8-0.1-43.2,0c-2.2,0-2.5-0.7-2.5-2.7
			c0.1-42,0.1-84,0-125.9c0-2,0.4-2.6,2.6-2.6c14.3,0.1,28.7,0.1,43,0c2.1,0,2.8,0.4,2.8,2.7C483.9,185,484,206,484,227z"/>
		<path class="st0" d="M546.5,280.2c0-7.7,0.1-15.5-0.1-23.2c0-2.4,0.5-3.2,3-3.1c5.5,0.2,5.5,0,5.5,5.7c0,9.9,0,19.8,0,29.7
			c0,1.8-0.6,2-2.2,2.3c-6.3,1.1-10-1.2-12.7-7.1c-3.2-6.8-7.5-13.1-11.6-20.2c-0.1,1.4-0.1,2.2-0.1,3c0,7.4,0,14.8,0,22.2
			c0,1.5-0.4,2-1.9,2c-6,0.1-6,0.1-6-5.9c0-9.8,0-19.6,0-29.5c0-1.8,0.5-2,2.2-2.3c6-1,9.5,1.3,12.1,6.8c3.2,6.8,7.5,13.1,11.3,19.6
			L546.5,280.2z"/>
		<path class="st0" d="M644,266.5c0-4.8,0-9.1,0-13.3c0-1.6,0.4-2.1,2.1-2.2c6.4-0.1,6.4-0.2,6.4,6.3c0,10.6,0,21.1,0,31.7
			c0,2-0.6,2.7-2.5,2.5c-1-0.1-2-0.1-3,0c-1.8,0.2-3.1-0.1-2.7-2.8c-2.6,2.1-5.7,3.2-9,3.3c-8.1,0.3-12.8-4.3-13.7-11.7
			c-0.9-7,0.9-16.2,11.4-17.2C636.9,262.6,641,263.9,644,266.5z"/>
		<path class="st0" d="M698.5,266.4c0-4.6,0.1-8.8,0-13c0-1.7,0.5-2.3,2.2-2.3c6.3,0,6.3-0.1,6.3,6.2c0,10.6-0.1,21.1,0,31.7
			c0,2.1-0.6,2.8-2.7,2.6c-1.1-0.1-2.2-0.1-3.2,0c-1.9,0.3-2.7-0.4-2.2-2.8c-2.6,2.1-5.9,3.3-9.2,3.3c-8.1-0.1-12.2-3.5-13.6-11.5
			c-1.2-6.9,1.5-13.5,6.5-16C687.3,262.1,693,262.7,698.5,266.4z"/>
		<path class="st0" d="M579,292c-5.7,0.2-10.3-1.1-13.8-5.1c-5.1-5.9-4.3-14.9,1.6-19.9c1-0.8,2.1-1.6,3.3-2.1
			c6.4-2.8,12.8-2.7,18.8,1.2c5.3,3.4,6.7,8.5,5.8,14.3c-0.8,5.4-4.3,8.8-9.4,10.6C583.3,291.8,581.2,292.2,579,292z"/>
		<path class="st0" d="M838.6,288.1c-3.9,4-9.9,5.1-15,3c-3.8-1.4-5.6-4-5.7-7.4c0-3.6,2-6.5,5.7-8c3.9-1.5,8-1.4,12.1-1.6
			c0.8,0,2.1,0.5,2.5-0.5c0.3-1.1-0.1-2.2-0.9-3c-1.7-2-4.1-2.2-6.4-2c-2.7,0.1-5.3,0.9-7.6,2.2c-1.5,0.9-1.8,0.3-1.8-1.1
			c0.1-5.2-1.4-4.5,4.6-5.9c4.5-1.2,9.3-1.1,13.8,0.3c3.6,1,6,4.3,6,8c0.3,5.9,0.4,11.8,0.6,17.7c0,1.2-0.3,1.7-1.5,1.6
			c-0.8-0.1-1.7,0-2.5,0C839,291.5,839,291.5,838.6,288.1z"/>
		<path class="st0" d="M861.7,267.2c4.3-3.8,8.5-4.8,13.3-3.9s7.7,4.1,7.8,8.9c0.2,5.8,0.1,11.6,0.1,17.5c0,1.3-0.4,1.7-1.7,1.7
			c-6.8,0.3-6.8,0.4-6.8-6.4c0-3.5,0-7-0.1-10.5c-0.1-3.2-1.3-5-3.6-5.6c-2.8-0.6-5.6,0.7-7,3.2c-1,1.9-1.5,4.1-1.4,6.3
			c0,3.7-0.1,7.3,0,11c0,1.4-0.2,2.2-1.9,2c-1.6-0.1-3.2-0.1-4.7,0c-1.6,0.1-1.9-0.6-1.9-2c0-7.9,0.1-15.8,0-23.7
			c0-1.7,0.5-2.3,2.1-2.1c0.9,0.1,1.8,0.1,2.7,0C861,263.3,862.5,263.7,861.7,267.2z"/>
		<path class="st0" d="M731.8,280c-2.9,0-5.8,0.1-8.8,0c-2-0.1-2.1,0.8-1.3,2.2c1.4,2.8,3.9,4,6.8,4.3c3.4,0.2,6.9-0.4,9.9-2
			c1.6-0.8,1.9-0.4,1.9,1.3c0,4.5,0,4.7-4.3,5.6c-4.6,1.1-9.5,0.9-14.1-0.4c-6.3-2-9.6-7.5-9.1-14.6c0.5-7,4.7-11.8,11.1-12.9
			c4.2-0.9,8.6-0.3,12.4,1.6c3.9,2.2,7.2,9.7,6.3,13.9c-0.3,1.2-1.1,1-1.9,1C737.8,280,734.8,280,731.8,280z"/>
		<path class="st0" d="M943.5,284c0.1,0.2,0.2,0.3,0.2,0.4c0.1,6.4,1.4,5.8-5.5,7.2c-4.3,1-8.8,0.7-13.1-0.7
			c-6-2.1-9.2-7.4-8.8-14.3s4.4-11.9,10.7-13c5.2-1,10.3-0.8,14.6,2.9c3.8,3.2,4.2,7.8,4.5,12.3c0.1,1.4-1,1.2-1.9,1.2
			c-5.7,0-11.3,0-17,0c-0.8,0-1.9-0.4-2.3,0.4c-0.5,1,0.2,1.9,0.8,2.7c2.8,3.8,6.8,3.8,10.8,3.2C939,285.9,941.2,284.7,943.5,284z"
			/>
		<path class="st0" d="M766.7,272.6c0-5.5,0.1-11,0-16.5c0-1.8,0.5-2.2,2.3-2.2c6.5,0.1,13,0.1,19.5,0c1.6,0,2.3,0.5,2.1,2.1
			c-0.1,0.4-0.1,0.8,0,1.2c0.3,2.2-0.4,2.9-2.7,2.8c-3.4-0.2-6.8,0-10.2-0.1c-1.5,0-2.2,0.3-2.2,2c-0.1,6.9-0.2,6.9,6.8,6.9
			c2,0,4,0.1,6,0c1.2,0,1.7,0.3,1.8,1.6c0.2,4.5,0.2,4.5-4.2,4.5c-2.7,0-5.3,0.1-8,0c-1.7-0.1-2.3,0.4-2.3,2.2
			c0.1,4.1,0,8.2,0.1,12.2c0,1.5-0.3,2-1.9,2c-6.8,0.1-6.8,0.2-6.8-6.6L766.7,272.6z"/>
		<path class="st0" d="M443.4,327.4c-8.5,0.2-17,0.8-25.5,0.5c-1.2-3.2-1.2-6.8,0-10c12.9-0.1,25.8-0.3,38.7-0.3
			c104,0,208.1,0,312.1,0c1.1-0.2,2.2-0.1,3.2,0.3c-1.7,1.4-3.8,0.7-5.7,0.8c-12.5,0.1-24.9,0.1-37.4,0c-11.2,0.1-22.3,0.1-33.5,0
			c-9.7,0-19.3,0.1-29,0c-9.7,0.1-19.3,0.1-29,0c-11.3,0.1-22.7,0.1-34,0c-8.8,0.1-17.7,0.1-26.5,0c-8.2,0.1-16.3,0.1-24.5,0
			c-7.7,0.1-15.3,0.1-23,0c-7.5,0.1-15,0.1-22.5,0c-5.5,0-11,0.1-16.5,0c-7.8,0.1-15.5,0.1-23.3,0c-6.4,0.1-12.8,0-19.1,0
			c-3.9,0-4.1,0.3-3.9,4.1C444.1,324.4,444.5,326,443.4,327.4z"/>
		<path class="st0" d="M751.8,381.7c-3.2,0.6-6.5,0.2-9.7,0.3c-0.5,0-1,0.2-1.2-0.5s0.2-0.9,0.8-1c1.4-0.3,1.8-1.4,1.8-2.7
			c0-6.7,0-13.5,0-20.6c-0.8,1.3-1.3,2.8-1.5,4.3c-1.7,6.2-3.4,12.5-5.1,18.8c-0.2,0.6,0,1.7-1,1.8s-0.9-1-1.1-1.7
			c-2-6.9-3.9-13.8-5.8-20.6c-0.1-0.6-0.5-1.2-0.9-1.7c0,6.3,0,12.6,0,18.9c0,1.5,0.3,3,2.1,3.5c0.6,0.2,0.9,0.4,0.8,1
			s-0.7,0.6-1.2,0.6h-5c-0.4,0-0.9,0.1-1-0.5c-0.2-0.4,0-0.9,0.4-1c0.1,0,0.2,0,0.2-0.1c1.8-0.4,2-1.9,2-3.3c0-7.2,0-14.5,0-21.7
			c0-1.3-0.1-2.5-1.6-3c-0.6-0.2-1.1-0.5-0.9-1.2s0.8-0.5,1.2-0.5h0.2c6.1-0.4,6.1-0.4,7.8,5.5c1.3,4.9,2.7,9.9,4.5,14.9
			c1.6-5.9,3.3-11.8,4.8-17.8c0.5-2.1,1.4-2.9,3.5-2.7c1.6,0.1,3.2,0.1,4.7,0c1.3,0.6,0.9,1.5,0.1,2.1c-1.3,1.2-1.9,3-1.8,4.7
			c0,5.8,0,11.6,0,17.5c-0.1,2.4,1,4.6,2.9,6C752,381.2,752,381.5,751.8,381.7z"/>
		<path class="st0" d="M751.8,381.7v-0.9c1.7-2,1.9-4.2,1.9-6.7c-0.1-5.6,0-11.1,0-16.7c0-1.7-0.1-3.3-1.4-4.6
			c-0.7-0.5-0.8-1.4-0.3-2.1c0,0,0.1-0.1,0.1-0.1c1.9,0,3.8,0.1,5.7,0c1.5-0.1,2,0.5,2.4,1.8c1.5,5.7,3.2,11.4,4.8,17
			c0.2,0.5,0.4,1.1,0.7,2c1.8-6.5,3.6-12.6,5.2-18.8c0.4-1.6,1.1-2.2,2.7-2.1s3,0,4.5,0c0.5,0,1,0.1,1.2,0.6s-0.3,0.9-0.8,1.1
			c-1.6,0.4-1.7,1.8-1.7,3c-0.1,7.3-0.1,14.7,0,22c0,1.3,0.2,2.7,1.8,3.2c0.6,0.1,0.9,0.5,0.7,1.1s-0.6,0.5-1,0.5
			c-2.7,0-5.5,0-8.2,0c-0.4,0-0.9,0.1-1-0.5s0.2-0.9,0.8-1c0.9-0.1,1.7-0.9,1.7-1.9c0-7,0-14-0.3-21.1c-1.9,6.9-3.7,13.7-5.7,20.5
			c-0.4,1.4-0.2,3.8-1.5,3.8c-1.6,0-1.4-2.5-1.8-3.9c-1.8-6-3.5-12.1-5.2-18.2c-0.1-0.7-0.4-1.4-0.9-1.9c0,6.6,0,12.9,0,19.3
			c0,1.4,0.4,2.9,2.1,3.3c0.5,0.1,0.9,0.4,0.8,1s-0.7,0.6-1.2,0.6C755.7,381.8,753.7,382.3,751.8,381.7z"/>
		<path class="st0" d="M905.6,292.1c-1.5,0-3-0.1-4.5-0.3c-7.7-1.4-12-6.8-11.8-14.6c0.2-7.6,4.7-12.6,12.5-13.8
			c3.1-0.4,6.3-0.3,9.4,0.3c1.2,0.2,1.8,0.8,1.4,2c-0.1,0.2-0.1,0.5-0.2,0.7c-0.5,3.3-0.5,3.2-3.6,2.7c-3.5-0.5-7-0.1-9.1,3.2
			c-2.1,3.1-2.1,7.2-0.1,10.4c1.8,3.2,5.7,4.2,10.5,3.1c0.8-0.2,2.3-1.9,2.8,0.5c0.9,3.9,0.5,4.9-1.9,5.3c-0.6,0.1-1.1,0.3-1.7,0.3
			c-1.2,0.1-2.5,0-3.8,0V292.1z"/>
		<path class="st0" d="M549,369.2c0,2.4-0.1,4.8,0,7.2c0.1,1.6-0.1,3.5,2.1,4c0.5,0.1,0.6,0.6,0.5,1s-0.6,0.5-1,0.5h-8.2
			c-0.4,0-0.9,0.1-1-0.5c-0.2-0.4,0.1-0.9,0.5-1.1c0.1,0,0.1,0,0.2,0c1.6-0.5,1.8-1.8,1.8-3.2c0-7.2,0-14.5,0-21.7
			c0-1.4-0.2-2.7-1.8-3.2c-0.5-0.1-0.8-0.5-0.7-1c0,0,0-0.1,0-0.1c0.2-0.6,0.8-0.5,1.2-0.5c3.4,0,6.8,0,10.2,0.2s5.8,1.9,6.5,5.2
			c0.8,3.7,0.7,7.5-2.8,9.9c-1.5,1-1.4,1.6-0.7,2.9c2.2,3.9,3.5,8.4,6.4,12c0.6,0.8,0,1.2-0.8,1.2c-1.6,0-3.2,0-4.7,0
			c-1.2,0-1.3-0.9-1.6-1.6c-1.9-3.8-3.7-7.6-5.5-11.3L549,369.2z"/>
		<path class="st0" d="M645.9,350.5c3.7,0.1,7.5,0,11.2,0.2c3.3,0.2,5.7,1.8,6.6,5.1c1.1,4.2,0.1,8.2-2.9,10.1
			c-1.3,0.9-1.4,1.5-0.7,2.7c2.3,3.9,3.5,8.4,6.4,12c0.5,0.6,0.3,1.3-0.7,1.3h-5c-1,0-1.1-0.9-1.4-1.5c-1.9-3.8-3.7-7.6-5.9-12
			c0,3.6,0,6.4,0,9.3c0,1.2,0.3,2.4,1.7,2.7c0.6,0.1,0.9,0.5,0.8,1s-0.8,0.5-1.2,0.5h-9c-0.5-0.5-0.5-1.4,0.1-1.9
			c0,0,0.1-0.1,0.2-0.1c1.5-1.3,1.5-3,1.5-4.8c0-5.7,0-11.4,0-17.1c0-2,0-4-1.6-5.5c-0.5-0.5-0.6-1.3-0.2-1.8
			C645.8,350.6,645.9,350.6,645.9,350.5z"/>
		<path class="st0" d="M895,369.1c0,2.7-0.1,5.4,0,8.1c0,1.3,0.2,2.7,1.9,3.1c0.4,0,0.7,0.4,0.7,0.9c0,0,0,0,0,0
			c0,0.7-0.6,0.7-1.1,0.7h-8c-0.5,0-1,0.1-1.2-0.5s0.2-0.9,0.7-1.1c1.5-0.5,1.7-1.7,1.8-3c0-7.3,0-14.7,0-22c0-1.4-0.2-2.7-1.8-3.2
			c-0.5-0.1-0.8-0.5-0.7-1c0-0.1,0-0.1,0-0.1c0.1-0.5,0.6-0.5,1-0.5c3.5,0,7,0,10.5,0.2c3.3,0.2,5.8,1.9,6.5,5.2
			c0.8,3.7,0.7,7.5-2.8,9.9c-1.5,1-1.4,1.6-0.7,2.9c2.2,3.9,3.5,8.2,6.2,11.8c0.7,0.9,0.3,1.4-0.8,1.4c-1.5,0-3-0.1-4.5,0
			c-1.3,0.1-1.5-0.9-1.8-1.7c-1.9-3.7-3.7-7.5-5.5-11.3L895,369.1z"/>
		<path class="st0" d="M485.5,369.1c0,2.7-0.1,5.4,0,8.1c0,1.3,0.2,2.7,1.9,3.1c0.4,0.1,0.7,0.4,0.7,0.9c0,0,0,0,0,0
			c0,0.7-0.6,0.7-1.1,0.7h-8c-0.5,0-1,0.1-1.2-0.5s0.2-0.9,0.7-1.1c1.5-0.5,1.7-1.7,1.8-3c0-7.3,0-14.7,0-22c0-1.4-0.2-2.7-1.8-3.2
			c-0.5-0.1-0.8-0.6-0.7-1c0,0,0-0.1,0-0.1c0.1-0.5,0.6-0.5,1-0.5c3.5,0,7,0,10.5,0.2c3.3,0.2,5.8,1.9,6.5,5.2
			c0.8,3.7,0.7,7.5-2.8,9.9c-1.4,1-1.4,1.6-0.7,2.9c2.2,3.9,3.5,8.2,6.2,11.8c0.6,0.8,0.3,1.4-0.8,1.4c-1.5,0-3-0.1-4.5,0
			c-1.3,0.1-1.5-0.9-1.8-1.7c-1.9-3.8-3.7-7.5-5.5-11.3L485.5,369.1z"/>
		<path class="st0" d="M177.4,333c-0.6,0.6-1.4,0.4-2.1,0.4h-17.9c-3.9-0.5-7.8-0.1-11.7-0.2c-4.1-0.1-8.2,0-12.2,0
			c-0.3,0-0.6-0.1-0.9-0.3c-0.7-0.7-1-1.7-0.9-2.8c-0.1-2.6,0-5.2,0-7.7c0-1.9,0.6-3,2.8-2.7c1.1,0.2,2.3,0.2,3.4-0.2
			c10.3,0.2,20.6-0.9,31-0.5c-0.3,1.4-1.5,1.1-2.4,1.2c-1.9,0.1-3.8,0-5.7,0.1c-1.4,0-2.1,0.7-2.1,2.1c0,2.5,0,5,0,7.5
			c0,1.7,0.7,2.4,2.4,2.4c3.6,0,7.3-0.1,10.9,0C173.8,332.3,175.7,331.7,177.4,333z"/>
		<path class="st0" d="M418.3,91.1c-4.7-1.1-9.4-2.4-14-4.1c-0.6-0.9-0.9-1.9-0.8-3c0-6.4-0.1-12.7,0-19.1c0-1.4-0.4-3.2,1.9-3.4
			l13.5,6.4c0.6,2.6,0.8,5.4,0.5,8.1c-0.2,4.2,0.5,8.4-0.2,12.6C418.9,89.5,419.1,90.5,418.3,91.1z"/>
		<path class="st0" d="M361.4,329c-0.4,0.2-0.8,0.3-1.2,0.4c-12,0.2-24,0.4-35.9,0.5c-0.7-4-1.7-8,0.5-11.9h29.5
			c1.3,2,0.6,4.1,0.7,6.2c0.1,3.7,0.1,3.8,3.9,4C359.8,328.1,360.8,328.4,361.4,329z"/>
		<path class="st0" d="M373.8,66.4c4.7-2.9,8.8-6.8,14.1-8.8c1,1,0.8,2.3,0.8,3.5c0,5.8,0,11.6,0,17.3c-0.1,1.7,0.2,3.5,0.8,5.1
			l-15.1,5.5c-1.4-2.1-1-4.6-0.9-6.8c0.1-4.9-0.1-9.8,0.1-14.6C373.6,67.2,373.7,66.8,373.8,66.4z"/>
		<path class="st0" d="M817,365.1c4.3,2.3,5.9,6,4.8,10.8c-0.9,3.7-4,5.9-8.4,6c-2.7,0-5.5,0-8.2,0c-0.5,0-1,0.2-1.3-0.4
			s0.2-1,0.8-1.2c1.4-0.5,1.6-1.8,1.6-3.1c0-7.3,0-14.7,0-22c0-1.3-0.3-2.5-1.7-3c-0.5-0.2-0.9-0.5-0.8-1.1s0.7-0.6,1.2-0.6
			c3.2,0,6.5-0.1,9.7,0.2c3.6,0.4,5.6,2.1,6,5c0.5,3.4,0.4,6.7-3.1,8.8C817.4,364.7,817.2,364.9,817,365.1z"/>
		<path class="st0" d="M596.3,135.6c-5.7-0.1-11.4,0.2-17-0.5c-0.3-2.5-1.4-5,0-7.5h6v-0.7l-6.1-1.3c-0.4-0.4-0.7-1-0.7-1.5
			c0.1-3.5-0.4-7,0.7-10.3l16.7,3c0.5,0.1,0.9,0.3,1.4,0.4c-0.7,5-0.2,10.1-0.3,15.1C597.1,133.3,597.3,134.6,596.3,135.6z"/>
		<path class="st0" d="M399.3,382h-4.5c-0.5,0-1,0.1-1.2-0.6c-0.1-0.4,0.1-0.8,0.5-0.9c0,0,0,0,0,0c1.9-0.6,1.9-2.2,1.9-3.7
			c0.1-7,0.1-14,0-21c0-1.5,0-3.1-1.9-3.6c-0.4-0.1-0.7-0.5-0.6-0.9c0,0,0-0.1,0-0.1c0.1-0.4,0.6-0.7,1-0.6
			c3.9,0.1,7.9-0.5,11.7,0.6c3.4,0.9,5.4,3.5,6.6,6.7c2,5.4,2,11.3,0,16.6c-1.9,5.2-5.2,7.5-10.8,7.5L399.3,382z"/>
		<path class="st0" d="M418.3,91.1c0.7-4.9-0.1-9.9,0.4-14.9c0.2-2.7-0.6-5.5,0.2-8.3l14.5,6c0.5,6.5,0.2,13,0.1,19.5
			c0,0.6-0.3,1.2-0.7,1.6L418.3,91.1z"/>
		<path class="st0" d="M154.3,365c-0.1-4.2,1.3-8.3,3.9-11.6c3.8-4.7,9.9-4.7,13.8-0.1c5.4,6.5,5.3,19.6,0,26.1
			c-2.9,3.8-8.2,4.5-12,1.7c-0.6-0.5-1.1-1-1.6-1.6C155.6,376.4,154.2,372,154.3,365z"/>
		<path class="st0" d="M499.7,365.3c-0.1-4.2,1.2-8.4,3.8-11.8c3.8-4.8,10-4.8,13.9-0.1c5.3,6.5,5.2,19.7-0.2,26.1
			c-2.9,3.7-8.3,4.4-12,1.5c-0.5-0.4-1-0.9-1.4-1.4C501,376.5,499.7,371.9,499.7,365.3z"/>
		<path class="st0" d="M802.3,366.3c-0.1,4.8-0.8,9.4-4.1,13.2c-2.9,3.7-8.3,4.4-12,1.5c-0.5-0.4-1-0.9-1.4-1.4
			c-5.6-6.5-5.5-20.4,0.1-26.7c3-3.6,8.4-4.1,12-1c0.4,0.3,0.8,0.7,1.1,1.1C801.4,356.8,802.2,361.4,802.3,366.3z"/>
		<path class="st0" d="M279.8,366.2c0-4.5,0.8-9,3.9-12.8c3.8-4.6,9.9-4.6,13.8,0c5.3,6.5,5.3,19.6-0.1,26.1
			c-2.9,3.8-8.2,4.5-12,1.6c-0.6-0.5-1.2-1-1.6-1.6C280.6,375.7,279.7,371.2,279.8,366.2z"/>
		<path class="st0" d="M324.8,318c-1.1,3.9,0.1,7.9-0.5,11.9c-8.8,0.1-17.7,0.8-26.5,0.5c-0.7-0.8-1-1.9-0.8-3c0.2-3-0.7-6,0.6-9
			c4.1-0.5,8.3-0.1,12.4-0.2c2.1-0.1,4.1,0.2,6.2-0.2L324.8,318z"/>
		<path class="st0" d="M609,268.1c2.3-3.5,5.2-5.2,9-5.1c1.4,0,2,0.5,1.8,1.9c0,0.4,0,0.8,0,1.2c0,1.3,0.4,2.9-0.2,3.9
			c-0.7,1.2-2.3,0-3.6,0.1c-3.7,0.2-5.8,2.5-6.3,6.7c-0.4,4.1-0.5,8.3-0.3,12.5c0,1.6-0.5,2.1-2.1,2.1c-6.4,0-6.4,0.1-6.4-6.3
			s0.1-12.8,0-19.2c0-1.9,0.5-2.6,2.4-2.4c0.2,0,0.5,0,0.8,0C608.4,263.6,608.4,263.6,609,268.1z"/>
		<path class="st0" d="M815.3,270.6l-2-0.2c-4.9-0.6-7.5,1.5-8.1,6.5c-0.4,4.1-0.5,8.3-0.3,12.5c0,1.5-0.3,2.2-2,2.2
			c-6.5,0.1-6.5,0.1-6.5-6.3s0.1-12.8,0-19.2c0-1.8,0.4-2.7,2.4-2.4c0.2,0,0.5,0,0.7,0c4.4,0,4.4,0,4.9,4.4c2-2.7,4.3-4.6,7.5-5
			s3.4-0.1,3.4,3.1L815.3,270.6z"/>
		<path class="st0" d="M373.8,66.4c0.3,0.4,0.4,0.9,0.5,1.4c-0.3,4.6,0.2,9.2-0.2,13.8c-0.1,2.5,0,4.9,0.2,7.4c-4.2,2-8.6,3.7-13,5
			c-1.2,0.5-1.6-0.4-1.6-1.2c-0.4-5.7-0.3-11.4,0.1-17.2c0.1-0.4,0.3-0.8,0.5-1.1L373.8,66.4z"/>
		<path class="st0" d="M306.5,359.2c0,6.1,0,12,0,18c-0.1,1.4,0.7,2.7,2,3.1c0.6,0.2,0.8,0.5,0.7,1.1s-0.7,0.5-1.2,0.6
			c-1.6,0-3.2,0-4.8,0c-0.5,0-1,0-1.1-0.7c-0.1-0.4,0.2-0.8,0.7-0.9c1.7-0.5,1.9-2,1.9-3.4c0-6.8,0-13.6,0-20.5c0-1.7-1-2.9-2-4.1
			s-0.8-1.8,0.8-1.8c0.9,0.1,1.8,0.1,2.8,0c1.8-0.2,2.8,0.4,3.7,2.1c2.3,4.6,4.8,9.1,7.3,13.6c0.4,0.7,0.8,1.4,1.5,2.6
			c0-5.3,0-10,0-14.6c-0.1-1-0.7-1.8-1.7-2c-0.5-0.1-0.8-0.6-0.7-1.1c0.1-0.7,0.7-0.6,1.2-0.6c0.9-0.1,1.8-0.1,2.8,0
			c0.9,0.1,2-0.5,2.5,0.5c0.7,1.3-0.9,1.3-1.4,1.9c-0.8,0.9-0.6,2-0.6,3.1c0,8.1,0,16.3,0,24.5c0,0.8,0.4,2-0.6,2.2s-1.2-1-1.5-1.6
			c-3.6-6.6-7.1-13.2-10.6-19.8C307.6,360.6,307.5,359.8,306.5,359.2z"/>
		<path class="st0" d="M223,368.2c0-4.2,0-8.5,0-12.7c0-1.4-0.3-2.7-1.9-3.2c-0.5-0.1-0.8-0.6-0.7-1.1c0,0,0,0,0,0
			c0.1-0.7,0.7-0.6,1.2-0.6c0.7-0.1,1.5-0.1,2.2,0c1,0.1,2.4-0.6,3,0.5c0.8,1.3-1.1,1.3-1.6,2.1c-0.4,0.9-0.6,1.9-0.4,2.9
			c0,8.1,0,16.3,0,24.5c0,0.8,0.4,1.9-0.6,2.2s-1.2-1-1.5-1.6c-3.6-6.6-7.1-13.2-10.6-19.8c-0.4-0.7-0.5-1.6-1.5-2.1
			c0,6.1,0,12,0,18c-0.1,1.4,0.7,2.7,2,3.1c0.6,0.2,0.9,0.5,0.8,1.1s-0.7,0.5-1.2,0.6c-1.6,0-3.2,0-4.8,0c-0.5,0-1,0.1-1.1-0.7
			c-0.1-0.4,0.2-0.8,0.7-0.9c0,0,0,0,0,0c1.7-0.5,1.9-2,1.9-3.4c0-6.8,0-13.6,0-20.5c0-1.7-1-2.9-2-4.2s-0.8-1.8,0.8-1.8
			c0.9,0.1,1.8,0.1,2.7,0c1.8-0.2,2.8,0.4,3.7,2.1c2.3,4.6,4.8,9.1,7.3,13.6c0.4,0.7,0.8,1.4,1.2,2.1L223,368.2z"/>
		<path class="st0" d="M193.4,368.4c0-4.8,0-9.4,0-14c0-1-0.8-1.9-1.8-2.2c-0.5-0.1-0.8-0.6-0.7-1.1c0,0,0,0,0,0
			c0.1-0.7,0.7-0.5,1.2-0.6c0.8-0.1,1.7-0.1,2.5,0c0.9,0.1,2.2-0.5,2.8,0.5c0.7,1.2-0.9,1.3-1.5,1.9c-0.8,1-0.6,2.1-0.6,3.1
			c0,8,0,16,0,24c0,0.5,0,1,0,1.5s0,1.1-0.6,1.2s-0.8-0.4-1.1-0.8s-0.5-0.9-0.7-1.3c-3.4-6.4-6.9-12.9-10.4-19.3
			c-0.4-0.7-0.8-1.4-1.5-2.6c0,6.6,0,12.6,0,18.5c-0.1,1.4,0.7,2.7,2.1,3.1c0.5,0.1,0.8,0.5,0.7,1c0,0,0,0.1,0,0.1
			c-0.1,0.7-0.7,0.5-1.2,0.5c-1.6,0-3.2,0-4.7,0c-0.4,0-0.9,0.1-1-0.5c-0.2-0.4,0-0.9,0.4-1.1c0.1,0,0.1,0,0.2-0.1
			c1.7-0.5,1.8-2,1.8-3.4c0-6.8,0-13.6,0-20.5c0-1.7-1.1-2.9-2-4.1s-0.7-1.8,0.9-1.8c1,0.1,2,0.1,3,0c1.6-0.2,2.5,0.4,3.3,1.9
			c2.4,4.7,4.9,9.2,7.4,13.8C192.2,367.2,192.7,367.9,193.4,368.4z"/>
		<path class="st0" d="M124.5,359.4c0,5.6,0,11.3,0,16.9c0,1.7,0.3,3.4,2.2,4c0.4,0.1,0.7,0.5,0.6,0.9c0,0.6-0.4,0.6-0.8,0.6h-5.2
			c-0.4,0-0.9,0-0.9-0.6c-0.1-0.4,0.1-0.8,0.6-0.9c0,0,0,0,0,0c2-0.6,2-2.3,2-3.9c0-6.6,0-13.1,0-19.7c-0.1-1.7-0.8-3.2-2-4.4
			c-0.4-0.5-0.8-0.9-0.4-1.5s0.9-0.3,1.3-0.3h0.2c3.4-0.5,5.6,0.5,7.1,4c2.2,4.8,4.8,9.4,7.7,13.8c0.3-4.7,0.3-9.5,0-14.2
			c-0.1-1-0.9-1.5-1.8-1.9c-0.5-0.1-0.7-0.6-0.6-1.1c0,0,0-0.1,0-0.1c0.2-0.5,0.6-0.4,1-0.4c1.4,0,2.8,0,4.2,0c0.5,0,1.1,0,1.2,0.6
			c0.2,0.5-0.1,1-0.6,1.2c0,0,0,0,0,0c-1.7,0.7-1.5,2.2-1.5,3.6c0,8.1,0,16.1,0,24.2c0,0.6,0,1.2,0,1.7c0,0.4-0.3,0.8-0.7,0.9
			c-0.4,0.1-0.6-0.2-0.8-0.5c-0.3-0.6-0.6-1.2-1-1.7L125,359.3L124.5,359.4z"/>
		<path class="st0" d="M383.3,360c-1.7-1-1.4-2.4-1.9-3.6c-0.6-1.5-1.4-2.8-3-3.4c-3.7-1.3-4.9-0.5-5,3.3c0,2.3,0.1,4.7,0,7
			c-0.1,2,0.9,1.8,2.1,1.2c1-0.5,1.6-1.5,1.8-2.6c0.3-1.2,0.6-2.3,0.9-3.5c1.2,0.3,0.9,1.1,0.9,1.6c0,4.1,0,8.2,0,12.2
			c0,0.6,0.4,1.6-0.6,1.6s-0.6-1-0.7-1.6c-0.3-1.8-0.5-3.7-2.3-4.8c-1.3-0.8-2.2-0.9-2.1,1.1c0.1,3,0,6,0,9c0,1.9,0.9,2.7,2.8,2.6
			c3.3-0.2,5.1-2.2,6.2-5c0.2-0.5,0.4-1.1,0.7-1.6s0.1-1.6,1.1-1.3s0.4,1.1,0.3,1.7c-0.2,1.5-0.4,3-0.6,4.5
			c-0.5,3.5-0.5,3.5-3.9,3.5c-4.2,0-8.3,0-12.5,0c-0.6,0-1.4,0.4-1.7-0.5s0.6-1,1.1-1.3c1-0.6,1.5-1.6,1.4-2.8c0-7.4,0-14.8,0-22.2
			c0-1.3-0.3-2.5-1.8-3c-0.5-0.2-0.9-0.5-0.8-1.1s0.7-0.6,1.2-0.6h15c0.7,0,1.3,0.2,1.3,1.1L383.3,360z"/>
		<path class="st0" d="M432.8,360.5c-1.8-1.3-1.4-2.8-1.8-4c-1.1-2.9-2.9-4.1-5.9-4c-1.3,0-2.1,0.6-2.1,1.9c0,3.2,0,6.3-0.1,9.5
			c0,1.2,0.7,1.1,1.5,0.8c2.2-0.7,2.4-2.8,2.9-4.6c0.2-0.6-0.1-1.6,0.7-1.6s0.6,1,0.6,1.6c0,4.2,0,8.3,0,12.5c0,0.5,0.3,1.3-0.7,1.3
			c-0.6,0-0.5-0.7-0.6-1.2c-0.3-1.9-0.5-3.8-2.2-5.1c-0.6-0.4-1.1-0.8-1.8-0.5s-0.4,1-0.4,1.6c0,3,0,6,0,9c0,1.8,0.8,2.5,2.6,2.5
			c3.3-0.1,5.1-2,6.3-4.8c0.3-0.8,0.6-1.5,0.9-2.3c0.1-0.4,0.4-0.9,0.8-0.8c0.6,0.1,0.6,0.6,0.6,1.2c-0.3,2.4-0.7,4.8-0.9,7.2
			c-0.1,1.2-0.7,1.5-1.8,1.4c-4.9,0-9.8,0-14.7,0c-0.5,0-1.3,0.3-1.4-0.6s0.5-0.9,1-1.1c1.1-0.5,1.7-1.7,1.5-2.9c0-7.3,0-14.7,0-22
			c0-1.4-0.3-2.7-1.9-3.2c-0.5-0.2-0.9-0.5-0.7-1.1s0.8-0.5,1.3-0.5h14.7c0.7,0,1.5,0,1.5,0.9C432.8,354.3,432.8,357.2,432.8,360.5z
			"/>
		<path class="st0" d="M592.3,360.3c-1.5-0.8-1.2-1.7-1.5-2.5c-0.3-1.1-0.7-2.2-1.2-3.2c-0.9-1.6-4.1-2.7-5.8-2.1
			c-2,0.7-1.3,2.5-1.3,3.9c-0.1,2.2,0.1,4.5,0,6.8s1,1.9,2.2,1.2s1.4-1.8,1.8-2.9s0-2.4,1.1-3.1c0.9,0.5,0.6,1.4,0.6,2.1
			c0,3.8,0,7.7,0,11.5c0,0.7,0.4,1.8-0.5,1.9s-0.7-1.1-0.8-1.8c-0.4-1.8-0.6-3.7-2.4-4.7c-1.2-0.7-2-0.7-2,1.1c0.1,3,0,6,0,9
			c0,2.1,1,2.8,3,2.6c2.1-0.1,4.1-1.2,5.1-3.1c0.7-1.3,1.3-2.7,1.8-4.1c0.2-0.4,0.4-0.8,0.8-0.7s0.6,0.5,0.5,1
			c-0.3,2.6-0.7,5.1-1,7.7c-0.1,1-0.7,1.1-1.6,1.1c-5,0-10,0-15,0c-0.5,0-1.2,0.3-1.4-0.6c-0.1-0.7,0.4-0.8,0.9-1
			c1.4-0.5,1.7-1.7,1.7-3c0-7.3,0-14.7,0-22c0-1.4-0.4-2.6-1.9-3.1c-0.4-0.1-0.7-0.5-0.6-0.9c0.1-0.7,0.6-0.7,1.1-0.7h15
			c0.9,0,1.4,0.2,1.4,1.3C592.3,354.5,592.3,357.2,592.3,360.3z"/>
		<path class="st0" d="M685.3,360.4c-1.6-1-1.3-2.2-1.6-3.1c-1-3.4-2.8-4.9-6-4.8c-1.5,0-2.2,0.7-2.2,2.1c0,3.1,0,6.2,0,9.2
			c0,1.2,0.6,1.2,1.4,0.9c2.2-0.7,2.4-2.8,2.9-4.6c0.2-0.6-0.2-1.7,0.7-1.6c1.1,0,0.6,1.1,0.7,1.8c0,3.9,0,7.8,0,11.7
			c0,0.6,0.5,1.8-0.6,1.8c-0.9,0-0.5-1-0.7-1.6c-0.3-1.7-0.5-3.5-2.1-4.6c-0.5-0.5-1.2-0.7-1.8-0.5c-0.7,0.3-0.4,1-0.4,1.5
			c0,2.9,0,5.8,0,8.8c0,2.2,1,2.9,3.1,2.8c3.1-0.3,4.7-2.1,5.9-4.7c0.3-0.7,0.6-1.4,0.8-2.1c0.2-0.5,0.2-1.3,1-1
			c0.6,0.2,0.4,0.8,0.3,1.3c-0.2,1.5-0.4,3-0.6,4.5c-0.6,4-0.6,4-4.8,4s-8,0-12,0c-0.5,0-1.2,0.3-1.5-0.5s0.4-0.9,1-1.1
			c1.1-0.5,1.7-1.7,1.6-2.9c0-7.4,0-14.8,0-22.2c0-1.3-0.3-2.5-1.8-3c-0.5-0.2-0.9-0.5-0.7-1.1s0.8-0.5,1.2-0.5h14.8
			c0.7,0,1.5,0,1.5,0.9C685.3,354.3,685.3,357.1,685.3,360.4z"/>
		<path class="st0" d="M867.4,350.5c5.1,0,10.2,0.1,15.2,0c1.6,0,2.3,0.4,2.2,2.1c-0.1,2.4,0,4.9,0,7.7c-1.5-0.8-1.3-1.9-1.5-2.7
			c-0.9-3.6-2.7-5.1-6-5.1c-1.4,0-2.2,0.6-2.3,2c0,3.1,0,6.2,0,9.2c0,1.4,0.7,1.2,1.6,0.9c1.4-0.5,1.9-1.7,2.4-3
			c0.4-1.1,0-2.5,1.5-3.6v16c-1.3-0.4-0.9-1.3-1-2c-0.3-1.4-0.4-2.8-1.5-3.9c-0.7-0.6-1.4-1.4-2.4-1.1s-0.5,1.5-0.5,2.2
			c-0.1,2.7,0,5.3,0,8c0,2.3,1.1,3.1,3.3,2.8c1.8-0.1,3.4-1,4.4-2.5c0.8-1.2,1.4-2.4,1.9-3.8c0.2-0.6,0.1-1.8,1.2-1.6s0.3,1.3,0.3,2
			c-0.3,1.5-0.5,3-0.5,4.5c0.2,3-1.3,3.5-3.9,3.4c-4.7-0.2-9.5,0-14.2,0c-0.5-0.6-0.4-1.4,0.2-1.9c0,0,0.1,0,0.1-0.1
			c1.5-1.3,1.5-3,1.5-4.8c0-6,0-11.9,0-17.9c0-1.7-0.1-3.3-1.5-4.6c-0.7-0.4-0.9-1.2-0.5-1.9C867.3,350.7,867.3,350.6,867.4,350.5z"
			/>
		<path class="st0" d="M132.8,333.4H80.7c3-1.4,5.3-2.4,7.6-3.5c5.3-2.6,10.7-5.1,15.6-8.4c1.1-0.6,2.3-1,3.5-1.1
			c3.6-0.3,7.3-0.4,10.9-0.5c-3.7,3-1.9,7-2.1,10.7c-0.1,1.5,1.3,1.5,2.4,1.5c3.6,0,7.1,0,10.7,0c1.2-0.1,2.5,0.2,3.5,0.8
			c0.2,0.1,0.2,0.2,0.2,0.3S132.9,333.4,132.8,333.4z"/>
		<path class="st0" d="M243.9,331.5c-0.6,0.6-1.4,0.4-2.1,0.4l-19.4,0.1c-0.6-0.9-0.9-2-0.8-3.1c0-2.6,0-5.1,0-7.7
			c0-1.5,0.6-2.5,2.2-2.7h19c0.8,0.4,1.2,1.2,1.2,2.1C244.2,324.2,244.2,327.9,243.9,331.5z"/>
		<path class="st0" d="M525.2,366.3c0-3.3,0.1-6.6,0-10c0-1.6,0.2-3.4-1.9-4.1c-0.4-0.2-0.6-0.6-0.5-1c0.1-0.5,0.5-0.6,1-0.6
			c3.9,0.1,7.8-0.4,11.7,0.4c2.3,0.4,4.1,2.1,4.6,4.4c0.6,2.2,0.6,4.5,0.1,6.7c-0.9,3.9-3.3,5.8-7.8,5.9c-1.6,0-2.2,0.5-2.1,2.1
			c0.1,2.2,0,4.5,0,6.7c0,1.5,0,3.1,1.9,3.6c0.4,0.1,0.7,0.5,0.6,0.9c0,0,0,0,0,0c0,0.8-0.6,0.6-1.1,0.6H524c-0.5,0-1,0.2-1.2-0.5
			s0.1-0.9,0.7-1.1c1.8-0.7,1.7-2.4,1.7-3.8C525.3,373.1,525.2,369.7,525.2,366.3z"/>
		<path class="st0" d="M465.5,350.6c2-0.1,4.1,0,6.1,0.3c2.5,0.4,4.5,2.4,5,4.9c0.4,2,0.4,4.2,0,6.2c-0.8,3.8-3.4,6-7.5,5.9
			c-2,0-2.6,0.6-2.4,2.5s0,3.8,0,5.7c0,1.7-0.2,3.6,2.1,4.3c0.5,0.1,0.5,0.6,0.4,1c-0.1,0.6-0.6,0.5-1,0.5h-8c-0.4,0-0.9,0.1-1-0.4
			c-0.2-0.4,0-0.9,0.4-1.1c0.1,0,0.1,0,0.2-0.1c1.8-0.7,1.8-2.3,1.8-3.8c0-6.9,0-13.8,0-20.7c0-1.5,0-3.1-1.8-3.7
			c-0.4-0.1-0.7-0.6-0.5-1c0.1-0.7,0.6-0.6,1.1-0.6C462,350.5,463.6,350.6,465.5,350.6z"/>
		<path class="st0" d="M361.4,329l-3.8,0c-3.2,0-3.3-0.2-3.3-3.5c0-2.5,0-5,0-7.5h24c0.9,1.7,1.3,3.6,1,5.5
			c-0.3,4.1-0.3,4.1,3.6,4.3c0.9,0,1.8,0,2.5,0.8c-0.7,0.4-1.6,0.5-2.4,0.4L361.4,329z"/>
		<path class="st0" d="M626.8,136.5c-5.5,0.1-11,0-16.5-0.5c-1.2-1.6-0.6-3.5-1-5.3c-0.6-3.1,0.3-6.3,0.1-9.4
			c-0.1-1.3,0.8-2.4,2.5-1.8c5,0.5,10,1.3,15,2.4c0.5,0.7,0.7,1.5,0.7,2.3c0.1,3.3,0.1,6.7,0,10
			C627.6,135.1,627.4,135.9,626.8,136.5z"/>
		<path class="st0" d="M297.8,318.5v12c-7.2,0.1-14.3,0.8-21.5,0.5c-1.4-3.8-1.2-7.6-0.6-11.5c0.1-0.7,0.7-1.2,1.4-1.2c0,0,0,0,0,0
			C284.1,318.4,291,317.9,297.8,318.5z"/>
		<path class="st0" d="M432.8,94.9c0-6,0-11.9,0-17.9c-0.1-1.1,0.1-2.2,0.6-3.1c3.3,1.2,6.7,2.4,10,3.6c0.8,0.3,1.6,0.7,2.5,1
			c0.4,0.6,0.6,1.4,0.4,2.2c-0.4,5,0,10-0.2,15c0.1,0.8-0.2,1.7-0.7,2.3L432.8,94.9z"/>
		<path class="st0" d="M360.4,74.6c0,5.7,0,11.4,0,17.1c0,0.9-0.5,2.1,1,2.4c-4.6,2.3-9.6,3.5-14.5,5c-0.9-0.8-1.3-2-1.1-3.1
			c0.6-4.1-0.3-8.2,0.2-12.3c0-0.4,0.2-0.8,0.4-1.1L360.4,74.6z"/>
		<path class="st0" d="M100.7,365c0-2.8,0.1-5.7,0-8.5c-0.1-1.7,0.3-3.6-1.9-4.4c-0.4-0.2-0.6-0.7-0.4-1.1c0.1-0.5,0.6-0.5,1-0.5
			h8.2c0.4-0.1,0.8,0.2,1,0.6c0.2,0.6-0.2,0.9-0.7,1c-1.8,0.4-2,1.7-2,3.2c0,6.1,0,12.1,0,18.2c0,1.3,0.3,2.7,0.8,3.9
			c0.3,1.4,1.5,2.5,3,2.7c1.6,0.2,3.2-0.6,4-2c0.8-1.3,1.2-2.7,1.3-4.2c0.3-6.1,0.2-12.3,0.1-18.5c0-1.4-0.3-2.6-1.9-3.2
			c-0.5-0.2-0.9-0.5-0.8-1.1s0.6-0.7,1.1-0.7h4.5c0.4,0,0.8,0.1,1,0.5c0.2,0.5,0,1-0.5,1.2c0,0-0.1,0-0.1,0
			c-1.7,0.7-1.6,2.2-1.6,3.6c-0.2,6.4,0.4,12.8-0.4,19.2c-0.8,6.1-4.6,8.9-9.9,7.5c-3.2-0.9-5.3-3.8-5.6-8c-0.2-3.2,0-6.3,0-9.5
			L100.7,365z"/>
		<path class="st0" d="M611.9,119.5c-2,0.1-2.1,1.5-1.8,3c0.3,1.6,0.2,3.3-0.1,4.9c-0.5,2.9,0.7,5.7,0.3,8.6c-4.7,0-9.3,0.2-14-0.4
			c0-5.4,0-10.8,0-16.2c0-0.9-0.4-2.1,1.1-2.4C602.3,117.5,607.1,118.4,611.9,119.5z"/>
		<path class="st0" d="M477.8,89l17.1,5c-1.2,3.9-0.7,7.9-0.7,11.8c0,1,0.5,2-0.4,2.8c-5.2-0.7-10.4-2-15.5-3.2
			c-0.7-0.3-1.1-1-1.1-1.8c-0.3-4.3-0.1-8.7-0.1-13.1C477.1,90,477.4,89.4,477.8,89z"/>
		<path class="st0" d="M405.4,61.5c-1.3,0.6-1.1,1.7-1.1,2.8V87c-3-0.5-5.7-1.8-8.5-2.6c-1.2-0.7-1.2-1.9-1.2-3.1
			c0-7.1,0-14.2,0-21.2c0-1.2,0-2.4,1.2-3C399.4,57.7,402.7,59.2,405.4,61.5z"/>
		<path class="st0" d="M223.8,318.5c-1.1,0.4-1.7,1.6-1.5,2.7c0.1,3.6,0,7.2,0,10.7c-6.1,0.9-12.3,0.3-18.5,0.5
			c-0.6-4-0.3-8.1-0.1-12.1c0-1.4,1-1.6,2.3-1.6c4.1,0,8.3,0,12.4,0c0.8,0.1,1.7,0,2.4-0.2L223.8,318.5z"/>
		<path class="st0" d="M435.8,376.6c0-1.5,0-3,0-4.5c0-0.4-0.2-0.9,0.4-1s0.8,0.5,0.9,0.9c0.4,1.6,0.8,3.2,1.3,4.8
			c0.8,2,1.9,3.8,4.4,3.9c1.3,0,2.5-0.8,2.8-2.1c1-2.2,1-4.5-0.7-6.3c-1.2-1.3-2.6-2.4-4-3.4c-4.6-3.4-5.7-7.9-4.6-13.3
			c1.1-5,4.5-6.9,9.3-5c0.9,0.3,1.7,1,2.5-0.3c0.5-0.8,1.1-0.3,1.1,0.6c0,2.8,0,5.5,0,8.2c0,0.4,0,0.9-0.6,0.9s-0.7-0.4-0.8-0.9
			c-0.3-1.4-0.7-2.7-1.3-4c-0.8-1.7-1.8-3.3-3.9-3.5c-1.2,0-2.3,0.8-2.6,2c-0.8,2.1-0.8,4.2,0.8,5.8c1.4,1.4,2.9,2.7,4.6,3.8
			c5.6,3.8,5.7,11.4,3,16.1c-1.8,3.2-5.4,4.1-9.2,2.5c-0.9-0.4-1.6-1.2-2.4,0.2c-0.5,0.9-1.1,0.5-1.1-0.5
			C435.8,379.9,435.8,378.2,435.8,376.6z"/>
		<path class="st0" d="M688.3,376.7c0-1.4,0-2.8,0-4.2c0-0.5-0.3-1.3,0.6-1.4s0.7,0.8,0.8,1.3c0.3,1.5,0.8,3.1,1.3,4.5
			c0.8,1.9,1.9,3.6,4.2,3.7c1.3,0.1,2.5-0.8,2.9-2c1-2.2,1-4.5-0.6-6.3c-1.3-1.4-2.8-2.6-4.4-3.7c-5.2-4-5.5-9.5-3.7-14.5
			c1.4-3.9,4.3-5,8.2-3.7c1,0.4,2.1,1.5,3.2-0.2c0.4-0.6,1-0.2,1,0.6c0,2.8,0,5.5,0,8.2c0,0.4,0.1,0.9-0.5,1s-0.8-0.3-0.8-0.8
			c-0.3-1.5-0.8-2.9-1.4-4.2c-0.8-1.6-1.7-3.1-3.7-3.3c-1.2-0.1-2.3,0.7-2.7,1.9c-0.8,2-0.9,4,0.6,5.6c1.4,1.5,3,2.9,4.7,4
			c5.5,3.8,5.8,11,3.2,15.9c-1.7,3.3-5.4,4.4-9,2.9c-1-0.4-1.8-1.5-2.8,0.2c-0.5,0.9-1,0-1-0.8C688.3,379.8,688.3,378.2,688.3,376.7
			z"/>
		<path class="st0" d="M909.3,376.7c0-1.4,0-2.8,0-4.2c0-0.5-0.3-1.4,0.6-1.4s0.7,0.8,0.8,1.3c0.3,1.5,0.8,3.1,1.3,4.5
			c0.8,1.9,1.9,3.6,4.2,3.7c1.3,0.1,2.5-0.8,2.9-2c1-2.2,1-4.5-0.6-6.3c-1.3-1.4-2.8-2.6-4.4-3.7c-5.2-4-5.5-9.5-3.7-14.5
			c1.4-3.9,4.3-5,8.2-3.7c1,0.4,2.1,1.5,3.2-0.2c0.4-0.6,1-0.2,1,0.6c0,2.7,0,5.5,0,8.2c0,0.4,0.1,0.9-0.5,1s-0.8-0.3-0.8-0.8
			c-0.3-1.5-0.8-2.9-1.4-4.2c-0.8-1.6-1.7-3.1-3.7-3.3c-1.2-0.1-2.3,0.7-2.7,1.9c-0.8,2-0.9,4,0.6,5.6c1.4,1.5,3,2.9,4.7,4
			c5.5,3.8,5.8,11,3.2,15.9c-1.7,3.3-5.3,4.4-9,2.9c-1-0.4-1.8-1.5-2.8,0.2c-0.5,0.9-1,0-1-0.8C909.3,379.8,909.3,378.2,909.3,376.7
			z"/>
		<path class="st0" d="M220.8,318.5c-1.5,0.9-3.1,0.4-4.6,0.4c-3.2,0.1-6.5,0.1-9.7,0c-1.6,0-2.2,0.5-2.2,2.1c0.1,2.8,0,5.6,0,8.5
			c0.1,1-0.1,2-0.5,2.9h-5c-3.4,0.5-6.7,0.1-10.1,0.2c-0.8,0-1.4-0.3-1.4-1.1c-0.2-4.2-1-8.5,0.5-12.7
			C198.8,318.3,209.8,318.5,220.8,318.5z"/>
		<path class="st0" d="M626.8,136.5c0-4.9,0-9.7,0-14.6c5.5,0.6,11,1.4,16.5,2.5c1.6,1.2,1,3,0.8,4.4c-0.3,2.7,1,5.6-0.8,8.2
			C637.8,137.1,632.3,137,626.8,136.5z"/>
		<path class="st0" d="M606.8,365.8v11.5c0,1.5,0.3,2.9,2.1,3.1c0.6,0.1,0.9,0.3,0.8,1s-0.5,0.5-0.9,0.5c-3,0-6,0-9,0
			c-0.4,0-0.9,0-1-0.5c-0.2-0.4,0-0.8,0.4-1c0.1,0,0.2-0.1,0.3-0.1c1.7-0.3,2-1.6,2-3c0.1-7.9,0.1-15.8,0.1-23.7
			c0-1.3-0.7-1.3-1.6-1c-2.7,1-3.3,3.3-3.7,5.7c-0.1,0.6,0.1,1.6-0.8,1.6s-0.6-1-0.6-1.6c0-2.5-0.8-5.7,0.4-7.3s4.7-0.5,7.1-0.5
			c3-0.1,6,0.1,9-0.1c1.6-0.1,2,0.5,1.9,2c-0.1,2.2,0,4.3,0,6.5c0,0.4,0,0.9-0.5,1s-0.6-0.4-0.7-0.8c-0.3-1-0.4-2.1-0.8-3.1
			c-0.3-1.3-1.2-2.4-2.4-3c-1.4-0.7-2.3-0.7-2.2,1.3C606.9,358.2,606.8,362,606.8,365.8L606.8,365.8z"/>
		<path class="st0" d="M259.3,365.7c0,3.7,0,7.3,0,11c0,1.7,0,3.4,2.3,3.7c0.5,0.1,0.7,0.4,0.6,0.9s-0.5,0.6-0.9,0.6c-3,0-6,0-9,0
			c-0.5,0-1,0-1.1-0.7c-0.1-0.4,0.2-0.8,0.6-0.8c0,0,0.1,0,0.1,0c1.7-0.3,2-1.5,2.1-3c0.1-7.9,0.1-15.8,0.1-23.7
			c0-1.3-0.6-1.4-1.6-1c-2.6,0.9-3.3,3.1-3.8,5.4c-0.1,0.7,0.2,1.9-0.8,1.8c-1.2-0.1-0.6-1.3-0.6-2c0.1-2.4-1.1-5.5,0.5-7
			s4.4-0.4,6.8-0.4c3.2-0.1,6.3,0,9.5,0c1.3,0,1.8,0.4,1.7,1.7c-0.1,2.1,0,4.2,0,6.2c0,0.5,0.3,1.4-0.5,1.5s-0.8-0.9-0.9-1.5
			c-0.2-1.8-0.9-3.4-2-4.7c-0.7-0.7-1.7-1.4-2.6-1.1c-1.1,0.4-0.5,1.6-0.5,2.4C259.3,358.6,259.3,362.2,259.3,365.7L259.3,365.7z"/>
		<path class="st0" d="M643.3,137c0.5-3.6-0.3-7.3,0.4-10.9c0.1-0.5-0.3-1.1-0.4-1.7c7.2,0.9,14.5,1.7,21.6,3.1
			c-2,2.1-0.8,4.7-1.2,7.1c-0.2,1,0,2.1-0.9,2.9C656.3,137.6,649.8,137.5,643.3,137z"/>
		<path class="st0" d="M243.9,331.5c-1-1-0.4-2.3-0.5-3.5c-0.3-3.2,0.6-6.4-0.5-9.5l18,0c1.2,2,0.8,4.3,0.9,6.5c0,0.8,0,1.6-0.1,2.5
			c-0.2,1.9,0.4,3,2.6,2.9c0.8-0.1,1.7,0.1,2.3,0.7c-0.6,0.4-1.4,0.6-2.1,0.4L243.9,331.5z"/>
		<path class="st0" d="M187.8,319c0,3.8,0.1,7.6,0,11.4c0,1.6,0.5,2.2,2.1,2.1c3-0.1,6,0,8.9,0c-0.6,0.6-1.4,0.4-2.1,0.4l-19.4,0.1
			l-5.6,0c-1.3-2.4-1-5-0.9-7.5c0.1-2.1-0.4-4.5,0.9-6.5L187.8,319z"/>
		<path class="st0" d="M493.8,108.6c-1-3.8-0.1-7.7-0.4-11.6c-0.1-1.2-0.5-2.8,1.5-3.1c4.9,1,9.8,2.4,14.5,4c0.2,4.7,0.2,9.3-0.1,14
			C504.1,110.9,498.9,110.1,493.8,108.6z"/>
		<path class="st0" d="M417.8,317.9c0,3.3,0,6.7,0,10c-7.2,0.1-14.3,0.8-21.5,0.5c-0.6-0.4-1.1-1.1-1.1-1.9c0-2.9-0.8-5.8,0.6-8.6
			L417.8,317.9z"/>
		<path class="st0" d="M132.8,333c-5,0-10-0.1-15,0c-1.9,0-2.8-0.4-2.6-2.5c0.2-2,0.2-4,0-6c-0.2-2.4,0-4.4,3-4.5
			c6.5,0.2,13-0.9,19.5-0.5c-0.5,0.6-1.2,0.5-1.9,0.5c-3.9,0-3.7-0.6-3.6,3.9C132.5,326.9,131.8,330,132.8,333z"/>
		<path class="st0" d="M627.9,382c-1.2,0-2.5,0-3.8,0c-0.5,0-1.1,0.2-1.2-0.5s0.2-0.9,0.8-1c1.8-0.2,1.7-1.5,1.4-2.8
			c0-0.2-0.1-0.5-0.2-0.7c-0.4-1.3-0.1-3.3-1.5-3.7c-1.7-0.5-3.6-0.2-5.4-0.2c-0.7,0-0.7,0.5-0.8,1c-0.3,1.2-0.6,2.4-0.9,3.6
			s-0.1,2.4,1.4,2.8c0.5,0.1,1,0.3,0.9,1s-0.7,0.6-1.2,0.6s-0.8,0-1.2,0c-1.2,0-3.1,0.4-3.6-0.2c-1.1-1.3,1.2-1.8,1.5-2.9
			c1.2-4.4,2.5-8.8,3.7-13.2s2.4-9,3.6-13.5c0.2-0.8,0-1.9,1.1-2c1.2-0.1,0.9,1.2,1.1,1.9c2.2,7.8,4.3,15.5,6.5,23.3
			c0.5,1.9,0.7,3.9,2.5,5.3c0.7,0.5,0.6,1.4-0.6,1.4L627.9,382z"/>
		<path class="st0" d="M243.5,382c-1.2,0-2.5,0-3.8,0c-0.4,0-1,0.2-1.2-0.5s0.2-0.9,0.8-1c1.8-0.2,1.6-1.5,1.4-2.8
			c-0.1-0.2-0.1-0.5-0.2-0.7c-0.4-1.3-0.1-3.3-1.5-3.7c-1.7-0.5-3.6-0.2-5.4-0.2c-0.7,0-0.7,0.5-0.8,1c-0.3,1.2-0.6,2.4-0.9,3.6
			s-0.1,2.4,1.4,2.7c0.5,0.1,1,0.3,0.9,1s-0.7,0.6-1.2,0.6s-0.8,0-1.2,0c-1.2,0-3.1,0.4-3.6-0.2c-1.1-1.3,1.2-1.8,1.5-2.9
			c1.2-4.4,2.5-8.8,3.7-13.2s2.4-9,3.6-13.5c0.2-0.8,0.1-1.9,1.1-2c1.2-0.1,0.9,1.2,1.1,1.9c2.2,7.8,4.3,15.5,6.5,23.3
			c0.5,1.9,0.7,3.9,2.5,5.3c0.7,0.5,0.6,1.4-0.6,1.4L243.5,382z"/>
		<path class="st0" d="M339.8,382c-0.8,0-1.7,0.1-2.5,0s-1.9,0.5-2.2-0.4c-0.5-1.3,1-0.9,1.6-1.3c0.5-0.3,0.8-0.9,0.7-1.5
			c-0.1-0.6-0.2-1.1-0.3-1.7c-0.9-3.9-2.9-5.1-6.8-4c-0.5,0.1-0.9,0.5-0.9,1c-0.3,1.4-0.6,2.8-0.9,4.1c-0.3,0.9,0.2,2,1.2,2.3
			c0.1,0,0.1,0,0.2,0c0.5,0.1,1,0.2,1,0.9c-0.1,0.9-0.8,0.7-1.4,0.7c-1.2,0-2.5,0-3.7,0c-0.5,0-1,0.2-1.2-0.5
			c-0.1-0.4,0-0.8,0.4-1.1c1.9-1.4,2-3.6,2.6-5.5c2.1-7.6,4-15.2,6.1-22.9c0.2-0.7,0-1.9,1.2-1.9c1,0,0.8,1.1,1,1.8
			c2.3,8.1,4.5,16.2,6.8,24.2c0.4,1.6,0.7,3.2,2.2,4.4c0.9,0.8,0.5,1.5-0.7,1.5L339.8,382z"/>
		<path class="st0" d="M266.4,331h-0.7c-5.1,0-5.1,0-4.9-5.1c0.1-2.5,0-4.9,0-7.4c18.5-0.8,37-0.4,55.5-0.4
			c-0.9,0.8-1.9,0.4-2.9,0.4c-5.2,0-10.4,0-15.6,0c-6.3,0-12.6,0-18.9,0c-1.8,0-2.6,0.2-2.7,2.4c-0.1,3.4,0.3,6.7,0.1,10.1
			L266.4,331z"/>
		<path class="st0" d="M835.4,350.5c2.9,0,5.8,0,8.7,0.1c0.6,0,1.5-0.3,1.7,0.6s-0.6,1-1.2,1.2c-1.5,0.4-1.6,1.6-1.6,2.8
			c-0.1,7.6,0,15.1,0,22.7c0,1.6,0.9,2.4,2.5,2.3c2.3,0,4.4-1.3,5.4-3.4c0.7-1.5,1.2-3.1,1.8-4.6c0.2-0.4,0.3-0.8,0.8-0.7
			s0.5,0.5,0.5,1c-0.3,2.8-0.7,5.6-1,8.4c-0.1,1.4-1.1,1.2-2,1.2h-15.7c-0.5-0.5-0.5-1.4,0.1-1.9c0.1,0,0.1-0.1,0.2-0.1
			c1.5-1.3,1.5-3,1.5-4.8c0-5.8,0-11.6,0-17.4c0-1.9,0-3.8-1.6-5.3c-0.6-0.4-0.7-1.2-0.3-1.7C835.2,350.7,835.3,350.6,835.4,350.5z"
			/>
		<path class="st0" d="M348.4,366c0-3.5,0-7,0-10.5c0-1.4-0.1-2.7-1.7-3.2c-0.5-0.2-0.9-0.4-0.8-1.1s0.7-0.6,1.2-0.6
			c2.8,0,5.5,0,8.2,0c0.5,0,1-0.1,1.2,0.6s-0.3,0.9-0.8,1c-1.8,0.3-2.1,1.8-2.1,3.2c0,7.4,0,14.8,0,22.2c0,1.9,1,2.6,2.9,2.5
			c2.2-0.1,4.2-1.4,5.1-3.4c0.7-1.4,1.2-2.9,1.8-4.4c0.2-0.4,0.2-1.1,0.9-0.9s0.4,0.8,0.4,1.2c0,0.1,0,0.2,0,0.2
			c-0.4,3,0.4,6.8-1.4,8.6c-1.6,1.6-5.4,0.4-8.2,0.4c-2.5,0.1-5,0-7.5,0c-0.5,0-1.2,0.3-1.5-0.5s0.3-0.9,0.9-1.2
			c1.5-0.6,1.6-2,1.6-3.4L348.4,366z"/>
		<path class="st0" d="M579.3,113.6c0.5,4-0.2,7.9,0,11.9l-16.5-3c-1.2-0.2-1.5-1.1-1.8-2.1c-0.6-2.7-0.6-5.4,0.1-8.1
			c0.3-1.2,0.7-2.3,2.3-1.8C568.8,111.2,574.1,112.4,579.3,113.6z"/>
		<path class="st0" d="M443.4,327.4c0.3-2.5-0.4-5-0.1-7.6c0.2-1.6,0.8-1.9,2.2-1.9c7.1,0.1,14.3,0,21.4,0.1c1.3,3,0.5,5.9,0,8.9
			l-8.4,0.1c-3.1,0.5-6.2,0.1-9.4,0.2c-0.9-0.1-1.8,0-2.7,0.2L443.4,327.4z"/>
		<path class="st0" d="M346.3,82.5c0.2,4.1,0.6,8.3,0,12.4c-0.2,1.5,0.5,2.8,0.5,4.2c-3.9,1.7-7.9,3-12,4c-0.6,0.4-1.5,0.1-1.8-0.5
			c-0.1-0.2-0.2-0.4-0.2-0.7c-0.3-4.3-1-8.6,0.5-12.8C337.7,86.9,341.8,84.2,346.3,82.5z"/>
		<path class="st0" d="M466.8,326.9c-0.8-3,0.3-5.9,0-8.9h23.5c1.2,2.7,0.9,5.6,0.5,8.4l-7.4,0.1c-3.4,0.4-6.8,0.1-10.1,0.2
			c-1-0.1-2-0.1-3,0.2L466.8,326.9z"/>
		<path class="st0" d="M395.8,57.1c-0.4,0.7-0.5,1.4-0.5,2.1c0,7.7,0,15.4,0,23.1c0,0.7,0.1,1.5,0.5,2.1c-2.1-0.4-4.2-1.2-6.4-0.9
			c-1.8-0.2-1.6-1.6-1.6-2.8c0-7.7,0-15.4,0-23.1C390.5,56.5,393.2,57.2,395.8,57.1z"/>
		<path class="st0" d="M603.3,318h34c1.1,1.6,1.1,3.8,0,5.4c-10.1,0.6-20.2,0.6-30.4,0.6c-1.2,0.2-2.7,0.8-3.4-0.4
			C602.7,321.9,602.1,319.9,603.3,318z"/>
		<path class="st0" d="M445.4,97.9c0-5.9,0-11.8,0.1-17.8c0.1-0.6,0.2-1.1,0.4-1.7c3.4,1,6.7,2.1,10,3.5c0.8,2.6,0.3,5.2,0.3,7.8
			l0.1,10.6L445.4,97.9z"/>
		<path class="st0" d="M477.8,89c0,4.6,0,9.2,0,13.8c-0.1,0.9,0.1,1.8,0.5,2.6l-11.5-2.5c-0.8-0.5-1.3-1.4-1.2-2.3
			c-0.1-4.4-0.1-8.9,0-13.3c0-0.7,0.2-1.3,0.7-1.8C470.2,86.5,474.1,87.6,477.8,89z"/>
		<path class="st0" d="M532.3,103.6c5,1,10.1,2,15,3.5c1.3,4,1.3,8.4,0,12.4l-15.5-3C531.5,112.1,530.9,107.8,532.3,103.6z"/>
		<path class="st0" d="M466.3,85.5V100c-0.1,1,0,2,0.5,2.9c-3.5-0.6-7-1.4-10.5-2.4c-1.5-1.6-0.9-3.7-0.8-5.3
			c0.2-4.4-0.6-8.8,0.4-13.1L466.3,85.5z"/>
		<path class="st0" d="M272.6,382h-4.2c-0.4,0-0.9,0.1-1-0.5s0.1-0.9,0.7-1.1c1.6-0.4,1.9-1.7,1.9-3.1c0-7.3,0-14.7,0-22
			c0-1.4-0.2-2.7-1.8-3.2c-0.5-0.2-0.9-0.5-0.7-1.1s0.6-0.5,1-0.5h8.5c0.5,0,1,0.1,1.1,0.8s-0.3,0.7-0.7,0.8
			c-1.8,0.5-1.9,1.9-1.9,3.3c0,7.2,0,14.5,0,21.7c0,1.5,0.2,2.9,2,3.2c0.4,0,0.7,0.4,0.7,0.8c0,0,0,0,0,0.1c0,0.7-0.6,0.6-1.1,0.6
			C275.4,382,274,382,272.6,382z"/>
		<path class="st0" d="M144.4,366.3c0-3.6,0-7.1,0-10.7c0-1.5-0.1-2.9-1.8-3.4c-0.5-0.2-0.9-0.5-0.7-1.1s0.8-0.5,1.2-0.5
			c2.7,0,5.3,0,8,0c0.6,0,1.2-0.1,1.3,0.7s-0.5,0.8-0.9,0.9c-1.4,0.4-1.7,1.5-1.7,2.7c0,7.6,0,15.1,0,22.7c0,1.3,0.4,2.3,1.7,2.7
			c0.5,0.1,1,0.2,0.9,0.9s-0.6,0.7-1.1,0.7h-8.5c-0.5,0-1,0-1.1-0.7c0-0.5,0.2-0.7,0.7-0.8c1.8-0.5,1.9-1.9,1.9-3.4
			C144.4,373.5,144.4,369.9,144.4,366.3z"/>
		<path class="st0" d="M568.1,382h-4.2c-0.5,0-1,0-1.1-0.7c0-0.5,0.2-0.7,0.7-0.8c1.6-0.4,1.9-1.7,1.9-3.1c0-7.3,0-14.7,0-22
			c0-1.4-0.2-2.7-1.8-3.2c-0.5-0.2-0.9-0.5-0.7-1.1s0.6-0.5,1-0.5h8.5c0.5,0,1,0.1,1.1,0.7s-0.3,0.7-0.7,0.9
			c-1.5,0.4-1.9,1.5-1.9,2.8c0,7.6,0,15.1,0,22.7c0,1.3,0.3,2.3,1.7,2.7c0.5,0.1,1,0.2,0.9,0.9c-0.1,0.9-0.8,0.6-1.3,0.7
			C570.7,382,569.4,382,568.1,382z"/>
		<path class="st0" d="M866.3,382c-3.1,0-6.2,0-9.2,0c-0.5,0-1.2,0.2-1.3-0.7c-0.1-0.7,0.4-0.8,0.9-0.9c1.5-0.5,1.7-1.7,1.7-3
			c0-7.4,0-14.8,0-22.2c0-1.2-0.2-2.3-1.5-2.9c-0.5-0.2-1.2-0.3-1-1.1s0.9-0.6,1.4-0.6c3,0,6,0,9,0c0.9,0.8,0.3,1.5-0.3,2.1
			c-0.9,1-1.4,2.3-1.3,3.6c0,6.7,0,13.4,0,20.2c-0.1,1.2,0.3,2.4,1.2,3.3C866.5,380.4,866.9,381.1,866.3,382z"/>
		<path class="st0" d="M834.3,382c-3.1,0-6.2,0-9.2,0c-0.5,0-1.2,0.2-1.3-0.7c-0.1-0.7,0.4-0.8,0.9-0.9c1.5-0.5,1.7-1.7,1.7-3
			c0-7.4,0-14.8,0-22.2c0-1.2-0.2-2.3-1.5-2.9c-0.5-0.2-1.2-0.3-1-1.1s0.9-0.6,1.4-0.6c3,0,6,0,9,0c0.9,0.8,0.3,1.5-0.3,2.1
			c-0.9,1-1.4,2.3-1.3,3.6c0,6.7,0,13.4,0,20.2c-0.1,1.2,0.3,2.4,1.2,3.3C834.5,380.4,835,381.1,834.3,382z"/>
		<path class="st0" d="M717.3,382c-1.4,0-2.8,0-4.2,0c-0.5,0-1,0.2-1.2-0.5s0.1-0.9,0.7-1c1.6-0.4,1.8-1.8,1.8-3.1
			c0-7.3,0-14.7,0-22c0-1.4-0.3-2.7-1.9-3.1c-0.6-0.2-0.9-0.5-0.7-1.1s0.6-0.5,1-0.5h8.5c0.4,0,0.9,0,1,0.5s-0.2,0.9-0.7,1.1
			c-1.7,0.4-1.9,1.7-1.9,3.1c0,7.4,0,14.8,0,22.2c0,1.3,0.3,2.5,1.8,2.9c0.5,0.1,0.9,0.3,0.9,1s-0.7,0.6-1.1,0.6
			C719.9,382,718.6,382,717.3,382z"/>
		<path class="st0" d="M644.8,382c-3.1,0-6.2,0-9.2,0c-0.5,0-1.2,0.2-1.3-0.7c-0.1-0.7,0.4-0.8,0.9-0.9c1.5-0.5,1.7-1.7,1.7-3
			c0-7.4,0-14.8,0-22.2c0-1.2-0.2-2.3-1.5-2.9c-0.5-0.2-1.2-0.3-1-1.1s0.9-0.6,1.4-0.6c3,0,6,0,9,0c0.9,0.8,0.3,1.5-0.3,2.1
			c-0.9,1-1.4,2.3-1.3,3.6c0,6.7,0,13.4,0,20.2c-0.1,1.3,0.3,2.5,1.3,3.4C645,380.4,645.5,381.1,644.8,382z"/>
		<path class="st0" d="M171.8,319v14c-3.9,0-7.8-0.1-11.7,0c-1.7,0-2.4-0.4-2.3-2.2c0.1-3.1,0.1-6.2,0-9.2c-0.1-1.7,0.6-2.1,2.2-2.1
			c3-0.1,5.9,0.6,8.8-0.4L171.8,319z"/>
		<path class="st0" d="M509.3,111.9c-0.9-4.6-0.9-9.4,0.1-14l13.3,3.1c0.4,0.1,0.8,0.3,1.1,0.5c-1.4,2.8-0.6,5.9-0.8,8.8
			c-0.1,1.5,0.2,3-1.2,4.1L509.3,111.9z"/>
		<path class="st0" d="M506.8,318h22.5c0.7,0.9,0.9,1.9,0.7,3c-0.2,2.1,0.3,3.7,2.4,4.5c-1.9,0.7-3.9,0.3-5.9,0.4
			c-6.5,0.1-13.1,0.1-19.6,0.1c-0.2,0-0.4,0.1-0.5,0C505.2,324.5,505.4,319.6,506.8,318z"/>
		<path class="st0" d="M395.8,318c0.2,3.5-0.5,7,0.5,10.4l-10.9,0.1c-1.2,0-2.5,0-3.8,0c-3.5,0-3.8,0-3.2-3.4
			c0.4-2.4-0.3-4.8-0.1-7.1L395.8,318z"/>
		<path class="st0" d="M547.3,119.4V107l14.7,3c0.5,0.1,0.9,0.3,1.4,0.5c-0.7,0.1-1.4,0.3-1.5,1c-0.8,3.4-0.8,6.9,0.2,10.2
			c0.1,0.3,0.5,0.5,0.7,0.7L547.3,119.4z"/>
		<path class="st0" d="M552.3,318h24.5c0.9,0.8,1.3,2,1,3.2c-0.4,1.8,0.2,2.7,2.2,2.6c0.7-0.1,1.5,0.2,2,0.7
			c-2.5,0.6-5.1,0.3-7.7,0.4c-6,0.1-12.1,0.1-18.2,0.2c-4.5,0.3-4.6,0.2-4.5-4.3C551.5,319.8,551.8,318.8,552.3,318z"/>
		<path class="st0" d="M552.3,318c0,1.5,0,3,0,4.4c0,1.7,0.4,3,2.6,2.5c0.4,0,0.8,0,1.2,0.1c-7.9,0.6-15.8,0.3-23.7,0.4
			c-2.7,0.4-3.4-0.9-3.1-3.3c0.1-1.4,0.1-2.8,0-4.2H552.3z"/>
		<path class="st0" d="M582,324.5c-0.4,0-0.8-0.1-1.2-0.1c-3.7,0-3.6,0-3.5-3.8c0-0.9-0.2-1.8-0.4-2.7h26.5
			c-0.3,1.7,0.3,3.3,0.6,4.9c0.3,1.9,2,0.7,3,1.1c-2.3,0.7-4.6,0.3-6.9,0.4C594,324.5,588,324.5,582,324.5z"/>
		<path class="st0" d="M662.8,137.5c0.3-2.5,0.3-5.1,0.3-7.7c-0.1-1.7,0.3-2.3,1.9-2.4c5.3,0.4,10.6,1,15.9,2c1.7,2.8,1.2,5.7,0,8.5
			C674.8,138.1,668.8,138,662.8,137.5z"/>
		<path class="st0" d="M834.3,382c0.1-0.5,0.4-1.3-0.4-1.5c-2.3-0.5-2.2-2.2-2.2-3.9c0-6.8,0-13.7,0-20.5c0-1.8-0.1-3.6,2.2-4.1
			c0.8-0.2,0.3-1,0.2-1.5h1.2c-0.1,0.5-0.5,1.3,0.3,1.5c2.4,0.8,2.1,2.7,2.1,4.5c0,6.5,0,13,0,19.4c0,1.9,0.3,3.9-2.3,4.6
			c-0.5,0.1-0.3,0.9-0.2,1.4L834.3,382z"/>
		<path class="st0" d="M866.3,382c0.1-0.5,0.4-1.3-0.4-1.5c-2.3-0.5-2.2-2.2-2.2-3.9c0-6.8,0-13.7,0-20.5c0-1.8-0.1-3.6,2.2-4.1
			c0.8-0.2,0.3-1,0.2-1.5h1.2c-0.1,0.5-0.5,1.3,0.2,1.5c2.3,0.8,2.2,2.7,2.2,4.5c0,6.4,0,12.8,0,19.2c0,2,0.4,4.1-2.3,4.9
			c-0.5,0.1-0.3,0.9-0.2,1.4L866.3,382z"/>
		<path class="st0" d="M644.8,382c0.1-0.5,0.4-1.3-0.4-1.5c-2.3-0.5-2.2-2.2-2.2-3.9c0-6.8,0-13.7,0-20.5c0-1.8-0.1-3.6,2.2-4.1
			c0.8-0.2,0.3-1,0.2-1.5h1.2c-0.1,0.5-0.5,1.3,0.2,1.5c2.3,0.8,2.1,2.7,2.1,4.5c0,6.4,0,12.8,0,19.2c0,2,0.4,4.1-2.3,4.9
			c-0.5,0.1-0.2,0.9-0.2,1.4L644.8,382z"/>
		<path class="st0" d="M333.4,89.1c0,3.9,0,7.8,0,11.6c0,1.1,0,2.2,1.5,2.3c-4.2,1.6-8.6,2.9-13,4c-0.6-0.4-1.1-1.1-1.1-1.8
			c-0.3-3-0.3-5.9,0-8.9c0.1-0.7,0.5-1.4,1.1-1.8L333.4,89.1z"/>
		<path class="st0" d="M751.9,350.5c-0.2,0.6-0.5,1.4,0.4,1.7c1.8,0.6,2,2,2,3.5c0,7,0,14.1,0,21.1c0,1.9-0.6,3.4-2.6,3.9
			c-2.4-0.2-3.3-1.6-3.3-3.8c0-7.1,0-14.2,0-21.4c0-1.5,0.2-3,2.1-3.5c1-0.3,0.4-1,0.1-1.6H751.9z"/>
		<path class="st0" d="M637.3,323.5c0-1.8,0-3.6,0-5.4h29c0.6,1.6,0.5,3.4-0.5,4.9C656.3,323.3,646.8,323.6,637.3,323.5z"/>
		<path class="st0" d="M665.8,322.9c-0.1-1.6,0.1-3.3,0.5-4.9h29c0.7,3.1,0.7,3.2,4.1,3.2c2.1,0,4.2,0,6.2,0c1,0,2-0.1,2.8,0.8
			c-0.3,0.1-0.7,0.2-1,0.2L665.8,322.9z"/>
		<path class="st0" d="M579.3,127.5c-0.6,2.5,1.2,5,0,7.5c-6.5,0.1-13-0.1-19.5-0.6c-1.2-1.7-0.9-3.6-0.5-5.5
			c0.4-2.1,2.4-0.8,3.5-1.4L579.3,127.5z"/>
		<path class="st0" d="M708.5,322H698c-3.3,0-3.7-0.7-2.7-3.9h33.6c1,1.9,2.7,2.8,4.6,3.5c-4.1,0.6-8.2,0.3-12.4,0.4
			S712.7,322,708.5,322z"/>
		<path class="st0" d="M506.8,318c-0.7,2.6-0.7,5.4,0.1,8c-5.4,0.7-10.7,0.3-16.1,0.4c-0.9-2.8-0.4-5.6-0.5-8.4L506.8,318z"/>
		<path class="st0" d="M321.8,94.5c-0.8,4.1-0.8,8.4,0,12.5c-3.7,1.5-7.6,2.6-11.5,3.4c-1.9-3.4-1.3-7-0.5-10.5L321.8,94.5z"/>
		<path class="st0" d="M521.8,114.4c1-3.6,0.3-7.2,0.5-10.8c0-1.1-0.1-2.2,1.6-2.1c2.9,0.4,5.7,1.1,8.5,2c-0.2,4.3,0.5,8.6-0.5,12.9
			L521.8,114.4z"/>
		<path class="st0" d="M562.8,127.6c-3,0.1-3.3,2-3,4.4c0.1,0.8,0.1,1.6,0,2.4c-6.3,0.2-12.7-0.4-19-0.5c-1.7-1.6-1.7-4.2-0.1-5.9
			c0,0,0.1-0.1,0.1-0.1C548.2,127.4,555.5,127.6,562.8,127.6z"/>
		<path class="st0" d="M733.5,321.5c-2.6,0.3-4.6-0.3-4.6-3.5h37.5c0.8,0.8,0.8,2,0,2.8C755.4,321.5,744.4,321.6,733.5,321.5z"/>
		<path class="st0" d="M716.8,138.9l-21-0.5c-1-1.6-1.2-3.6-0.8-5.5c0.2-1.4,1-2.1,2.5-1.5c6.2,0.4,12.3,1.1,18.4,2
			c-2.2,2.1-2,3.2,0.6,4.8C716.8,138.4,716.9,138.7,716.8,138.9z"/>
		<path class="st0" d="M697.5,131.5c-2.4,0.1-2,2-1.9,3.4s0.2,2.4,0.2,3.6h-0.5c-3.4-0.5-6.8,0.2-10.1-0.4l-4.3-0.1
			c0-2.8,0.9-5.7,0-8.5l14.5,1.5C696.1,131,696.8,131.1,697.5,131.5z"/>
		<path class="st0" d="M309.8,100c0.2,0.4,0.6,1,0.5,1.4c-0.9,3.1-0.1,6.1,0.1,9.2c-3.4,1.2-6.9,2.2-10.5,3c-1.4-3-0.8-6-0.5-9.1
			C302.7,102.7,306.2,101.2,309.8,100z"/>
		<path class="st0" d="M716.8,138.9c-1.8-0.4-3.5-0.7-3.1-3.4c0.2-1.6,0.7-2.2,2.2-2.1c6.7,0.4,13.3,1.1,20,2
			c-0.4,1.1-0.3,2.5-1.1,3.5L716.8,138.9z"/>
		<path class="st0" d="M299.3,104.5c1.1,3,0.3,6,0.5,9.1c-2.9,1.2-5.9,2-9,2.5c-1.7,0.7-2.6,0-2.7-1.7c-0.1-2-0.6-4,0.7-5.8
			C292.2,106.9,295.7,105.6,299.3,104.5z"/>
		<path class="st0" d="M540.8,128c-0.8,1.9-0.8,4.1,0,6l-15-0.5c-2.9-0.5-3.5-2.1-2-5.3L540.8,128z"/>
		<path class="st0" d="M288.8,108.5c0,1.9,0.1,3.8,0,5.6c-0.1,1.6,0.6,2,2,1.9c-4.4,1.4-8.9,2.6-13.5,3.5c-1.3-0.1-1.2-1.2-1.2-2
			c0-1.5-0.7-3,0.2-4.5L288.8,108.5z"/>
		<path class="st0" d="M766.3,320.9c0-0.9,0-1.9,0-2.8l5.6-0.2l25.4,0.1c1.1,0.9,2.5,1.4,3.9,1.2c2.2,0,4.3,0,6.5,0
			c1,0,2-0.1,2.8,0.8c-4.9,0.6-9.9,0.3-14.8,0.4c-3.5,0.1-7.1,0-10.7,0c-3.5,0.4-7,0.1-10.4,0.2c-0.9-0.1-1.8,0-2.7,0.2L766.3,320.9
			z"/>
		<path class="st0" d="M276.4,113.1c0.9,2.1-0.1,4.4,1,6.5c-4.3,1.8-9,2.6-13.5,3.5c-1.7-1.7-1.5-3.6-0.5-5.5L276.4,113.1z"/>
		<path class="st0" d="M734.8,138.9c0.3-1.2-0.9-2.8,1.1-3.5l28.3,2.3c3.2,0.2,6.5,0.6,9.6,1.2H734.8z"/>
		<path class="st0" d="M523.8,128.1c0.1,0.8,0.1,1.6,0,2.4c-0.3,1.7,0.5,2.5,2,2.9c-5,0.2-10-0.5-15-0.5c-0.5-0.2-1.1-0.3-1.7-0.2
			c-1.7,0.2-2.5-0.6-2.5-2.2s0.7-2.3,2.5-2.3c3.7,0.2,7.5,0.1,11.2-0.1L523.8,128.1z"/>
		<path class="st0" d="M520.3,128.1c-3.2,0.9-6.6,0.1-9.9,0.4c-1.2,0.1-2.9-0.9-3.1,1.6c-0.2,2.5,1.2,2.5,2.9,2.4
			c0.2,0,0.4,0.2,0.6,0.4c-5,0.2-10-0.5-15-0.5c-0.4-0.1-0.8-0.2-1.2-0.2c-3.1-0.1-3.5-0.9-2.3-3.7
			C501.7,128.2,511,127.9,520.3,128.1z"/>
		<path class="st0" d="M826.8,318h55.5c-0.5,1.2-1.5,0.5-2.3,0.6c-1.2,0.2-2.5-0.2-3.7,0.2c-13.4,0.2-26.9,0.8-40.3,0.6
			c-2.7,0.4-5.4,0.1-8.1,0.2C826.7,319.7,826.2,319.2,826.8,318z"/>
		<path class="st0" d="M472.3,131.5c-6.5,0.2-13-0.4-19.5-0.6c-2.3-0.5-4.7,0.2-7-0.4h-1.4c-0.4-0.4-0.4-1-0.1-1.4c0,0,0,0,0.1-0.1
			c11.5-0.1,23-0.8,34.5-0.5c-0.5,1.5-1.8,1.1-2.8,1.1C474.5,129.5,473.1,130.2,472.3,131.5z"/>
		<path class="st0" d="M472.3,131.5c-0.3-1.9,0.4-2.7,2.4-2.6c1.3,0.1,2.8,0.5,4.1-0.4l13.5-0.1c-0.8,3,1.2,3.6,3.5,3.9l-14.5-0.5
			c-2.5-0.6-5.1,0.2-7.5-0.4L472.3,131.5z"/>
		<path class="st0" d="M826.8,318c-0.1,1.3,0.7,1.5,1.7,1.5c2.5,0,5,0,7.4,0c-3.9,0.6-7.9,0.3-11.9,0.4c-4.5,0.1-9.1,0.1-13.7,0.1
			c-3.5,0-7.1-0.1-10.6,0c-1.5,0-2.4-0.5-2.5-2L826.8,318z"/>
		<path class="st0" d="M253.8,125.5c-4.6,1.3-9.3,2.3-14,3c-1.7-0.3-1.8-0.5-1.5-3l15-4.5C254.3,122.4,254.8,123.9,253.8,125.5z"/>
		<path class="st0" d="M253.8,125.5l-0.5-4.5l10-3.5c-0.2,1.8,0,3.7,0.5,5.5C260.6,124,257.2,124.9,253.8,125.5z"/>
		<path class="st0" d="M238.4,125.5c0.9,0.8-0.3,2.6,1.5,3c-4.5,1.5-9.3,1.9-13.9,3c-0.9,0.2-1.8,0.3-2.6,0.5c-0.5-0.6-0.5-1.4,0-2
			L238.4,125.5z"/>
		<path class="st0" d="M589.1,340.8c0,2.4-1.6,3.4-2.9,4.6c-1,1-2,3.1-3.4,2.1c-1.2-0.9,0.7-2.3,1.2-3.5c0.6-1.4,1.3-2.7,2.1-3.9
			c0.4-0.7,1-1.4,2-1S589,340.2,589.1,340.8z"/>
		<path class="st0" d="M444.4,129.1v1.5c-7.6,0.3-15.3-0.7-22.9-0.6c0.1-1.3,1.1-0.5,1.6-0.7c0.9-0.2,1.9,0.2,2.8-0.2L444.4,129.1z"
			/>
		<path class="st0" d="M223.4,130c0,0.7,0,1.3,0,2c-5.1,1.4-10.3,1.6-15.6,2.3C213,132.8,218,130.8,223.4,130z"/>
		<path class="st0" d="M876.3,318.9c1.9-1.1,4.1,0.3,6-0.8h19.5v0.3L876.3,318.9z"/>
		<path class="st0" d="M132.8,333.4c0-0.1,0-0.3,0-0.5c7.3,0,14.6,0,21.9,0c0.9,0,1.8-0.3,2.6,0.5L132.8,333.4z"/>
		<path class="st0" d="M425.8,129.1c-1.3,1.1-3.1-0.2-4.5,0.9c-3.7,0.4-7.4-0.3-11-0.9H425.8z"/>
		<path class="st0" d="M771.8,320.9c4.4-0.9,8.8-0.2,13.1-0.4C780.6,321.1,776.2,320.9,771.8,320.9z"/>
		<path class="st0" d="M470.4,326.9c3.4-1,6.9-0.2,10.3-0.4c0.9-0.1,1.8,0,2.7,0C479.1,327.2,474.7,326.9,470.4,326.9z"/>
		<path class="st0" d="M446.4,327.4c4-0.9,8-0.2,12.1-0.4C454.4,327.8,450.4,327.4,446.4,327.4z"/>
		<path class="st0" d="M685.2,138.1c3.4,0.1,6.8-0.5,10.1,0.4C691.9,138.4,688.5,138.7,685.2,138.1z"/>
		<path class="st0" d="M473.8,131.5c2.5,0.2,5.1-0.5,7.5,0.4C478.8,131.9,476.3,132.3,473.8,131.5z"/>
		<path class="st0" d="M445.8,130.6c2.4,0.1,4.8-0.5,7,0.4C450.5,130.9,448.1,131.3,445.8,130.6z"/>
		<path class="st0" d="M910.8,318h4.9c-1.6,0.4-3.3,0.6-4.9,0.4c-0.1-0.1-0.2-0.2-0.1-0.2S910.7,318,910.8,318z"/>
		<path class="st0" d="M910.8,318c0,0.1,0,0.2,0,0.4h-5c-0.1-0.1-0.2-0.2-0.1-0.2s0.1-0.1,0.1-0.1L910.8,318z"/>
		<path class="st0" d="M905.8,318c0,0.1,0,0.2,0,0.4h-4V318L905.8,318z"/>
		<path class="st0" d="M355,204.4c0-3.8,0.1-7.7,0-11.5c-0.1-1.8,0.3-2.5,2.3-2.4c4.6,0.2,9.2,0.1,13.7,0.1
			c7.5,0.1,14.4,8.8,12.6,16.2c-1.6,6.8-5.5,10.3-12.5,10.7c-4.6,0.3-9.3,0.2-14,0.5c-1.6,0.1-1.7-0.6-1.7-1.9c0.1-3.9,0-7.8,0-11.7
			L355,204.4z"/>
		<path class="st0" d="M630.3,277.8c0-5.6,2.6-8.9,6.7-8.8c4.5,0.1,7.3,4.3,6.8,10c-0.5,5-3.8,7.9-8.3,7c-2-0.4-3.6-1.8-4.3-3.7
			C630.6,280.8,630.3,279.3,630.3,277.8z"/>
		<path class="st0" d="M684.8,277.8c0-5.7,2.7-9,6.9-8.8c4.4,0.2,7.2,4.5,6.6,10.2c-0.5,4.8-3.8,7.6-8.2,6.9c-2-0.4-3.7-1.8-4.4-3.7
			C685.1,280.9,684.8,279.4,684.8,277.8z"/>
		<path class="st0" d="M570.8,277.3c0-5,2.9-8.3,7.5-8.3s7.8,3.3,7.9,8.1c0.1,5.5-2.9,9.1-7.6,9.2S570.8,282.9,570.8,277.3z"/>
		<path class="st0" d="M830.5,286.5c-0.3,0-1.1-0.1-1.9-0.4c-1.3-0.2-2.3-1.2-2.5-2.5c-0.2-1.4,0.5-2.7,1.7-3.4
			c3-1.8,6.4-1.5,9.7-1.4c1,0,0.8,0.9,0.7,1.5C837.7,284,834.8,286.5,830.5,286.5z"/>
		<path class="st0" d="M727.8,274.8c-1.7,0-3.3,0-5,0c-1.4,0.1-1.8-0.5-1.4-1.8c1-2.7,3.5-4.4,6.3-4.5c2.7-0.2,5.3,1.4,6.3,4
			c0.5,1.4,0.5,2.4-1.5,2.3C731,274.8,729.4,274.8,727.8,274.8z"/>
		<path class="st0" d="M931.2,274.8c-1.7,0-3.3,0-5,0c-1.3,0-1.5-0.6-1.3-1.7c0.7-2.5,3.5-4.5,6.5-4.6c2.7-0.1,5.2,1.5,6.2,4.1
			c0.4,1.4,0.4,2.3-1.4,2.2C934.5,274.8,932.8,274.8,931.2,274.8z"/>
		<path class="st0" d="M548.9,359.5c0-1.6,0-3.2,0-4.7c0-0.9,0.1-1.9,1.2-2.2c1-0.2,2.1,0.2,2.7,1c1.7,1.9,1.9,8.8,0.3,10.8
			c-0.6,0.7-1.4,1.1-2.3,1.3c-1.3,0.4-1.9,0.2-1.8-1.3S548.9,361.1,548.9,359.5z"/>
		<path class="st0" d="M653.4,359.7c0-1.7,0-3.3,0-5c0-0.9,0.1-1.7,1.1-2.1c1-0.3,2.1,0,2.7,0.8c1.8,1.8,2.1,9,0.3,11
			c-0.8,1.1-2.2,1.6-3.6,1.3c-1.1-0.4-0.5-1.8-0.5-2.7S653.4,360.8,653.4,359.7L653.4,359.7z"/>
		<path class="st0" d="M894.9,359.3c0-1.5,0-3,0-4.5c0-0.9,0.1-1.9,1.2-2.2c1-0.3,2.1,0.1,2.7,0.9c1.7,1.9,1.9,8.7,0.3,10.8
			c-0.7,0.8-1.7,1.3-2.8,1.4c-1,0.2-1.4-0.2-1.4-1.1C894.9,362.8,894.9,361.1,894.9,359.3z"/>
		<path class="st0" d="M490.7,359c0,4.4-0.9,6-3.4,6.6c-1.2,0.3-1.9,0.2-1.9-1.3c0.1-3.2,0-6.3,0-9.5c0-0.9,0.1-1.9,1.2-2.2
			c1.1-0.3,2.2,0.2,2.8,1.1C490.7,355.4,490.6,357.3,490.7,359z"/>
		<path class="st0" d="M816.6,373.3c-0.3,1.8-0.1,3.6-0.9,5.2c-0.5,1.1-1.6,1.7-2.8,1.5c-1.4-0.2-1.4-1.5-1.4-2.5c0-3.2,0-6.5,0-9.7
			c0-1.4,0.6-1.5,1.7-1.3c1.3,0.3,2.4,1.2,2.9,2.5C816.3,370.4,816.6,371.8,816.6,373.3z"/>
		<path class="st0" d="M811.4,358.8c0-1.5,0-3,0-4.5c0-0.9,0.2-1.7,1.2-1.9c0.9-0.3,1.9,0.2,2.3,1.1c1.3,3,1.3,6.4,0,9.4
			c-0.5,1.1-1.7,1.7-2.9,1.5c-1.2-0.3-0.5-1.5-0.6-2.3C811.3,361,811.3,359.9,811.4,358.8L811.4,358.8z"/>
		<path class="st0" d="M408.8,366.8c0,2.8-0.3,5.5-0.9,8.2c-0.4,2-1.6,3.7-3.4,4.6c-1.9,0.9-3,0.3-3-1.7c-0.1-7.8-0.1-15.6,0-23.4
			c0-1.9,1.1-2.5,2.9-1.7c2.3,1.1,3,3.2,3.6,5.4C408.4,361,408.7,363.9,408.8,366.8z"/>
		<path class="st0" d="M170.3,366.7c-0.3,3.5-0.1,7.1-1.4,10.4c-0.7,1.8-1.5,3.7-3.8,3.8s-3.3-1.8-3.9-3.6c-2-7.1-2-14.5,0-21.6
			c0.5-1.9,1.4-3.7,3.8-3.7s3.1,2,3.8,3.8C170.1,359.3,170,363.1,170.3,366.7z"/>
		<path class="st0" d="M515.7,366.6c-0.3,3.6-0.1,7.1-1.4,10.4c-0.7,1.9-1.6,3.9-4,3.8c-2.3,0-3.2-1.9-3.7-3.8
			c-1.9-7-1.9-14.4,0-21.4c0.2-0.8,0.6-1.6,1.1-2.2c1.5-2.1,3.8-2.1,5.4,0c1.3,2,2,4.2,2.2,6.5C515.6,362.2,515.6,364.5,515.7,366.6
			z"/>
		<path class="st0" d="M796.7,366.7c-0.2,3.5-0.1,7.1-1.4,10.5c-0.7,1.8-1.6,3.7-3.9,3.7s-3.2-1.7-3.7-3.5c-2.1-7.1-2.1-14.7,0-21.8
			c0.5-1.8,1.4-3.5,3.6-3.6c2.4-0.1,3.2,1.9,3.8,3.7C796.5,359.2,796.5,362.9,796.7,366.7z"/>
		<path class="st0" d="M295.7,366.6c-0.3,3.6-0.1,7.1-1.4,10.4c-0.7,1.9-1.6,3.9-4,3.8s-3.2-1.9-3.8-3.8c-1.9-7-1.9-14.4,0-21.4
			c0.2-0.8,0.6-1.5,1.1-2.2c1.5-2.1,3.8-2.1,5.4,0c1.3,2,2,4.2,2.1,6.5C295.6,362.2,295.6,364.5,295.7,366.6z"/>
		<path class="st0" d="M530.3,359.3v-4.7c0-0.8,0-1.8,1-2c1-0.3,2,0.1,2.6,1c1.4,1.9,1.4,9.2,0,11.1c-0.6,1-1.8,1.5-3,1.2
			c-1.2-0.3-0.5-1.5-0.5-2.4C530.3,362.2,530.3,360.8,530.3,359.3z"/>
		<path class="st0" d="M466.8,359.5c0-1.6,0-3.1,0-4.7c0-0.9-0.1-1.9,1.1-2.2c1-0.2,2,0.2,2.5,1.1c1.3,1.9,1.4,8.9,0.1,10.9
			c-0.6,1-1.8,1.6-3,1.4c-1.4-0.2-0.6-1.5-0.7-2.2C466.8,362.3,466.8,360.9,466.8,359.5z"/>
		<path class="st0" d="M620.7,360.8c0.9,3.4,1.7,6.1,2.5,8.9c0.2,0.9,0,1.2-0.9,1.2h-0.7c-3.5,0.1-3.5,0.1-2.7-3.2
			c0.4-1.5,0.8-3,1.2-4.5C620.1,362.5,620.3,362,620.7,360.8z"/>
		<path class="st0" d="M236.2,360.7c0.9,3.4,1.7,6.2,2.5,9c0.2,0.7,0,1.1-0.8,1.1c-0.8,0-1.7,0-2.5,0c-1.6,0.2-1.8-0.6-1.4-1.9
			C234.7,366.4,235.4,363.9,236.2,360.7z"/>
		<path class="st0" d="M332.7,360.7c1,3.4,1.7,6.2,2.5,9.1c0.2,0.8-0.1,1.1-0.9,1.1s-1.7-0.1-2.5,0c-1.4,0.1-1.8-0.4-1.4-1.7
			C331.2,366.6,331.8,363.9,332.7,360.7z"/>
	</g>
</g>
</svg>
