<?xml version="1.0" standalone="no"?>
<!DOCTYPE svg PUBLIC "-//W3C//DTD SVG 20010904//EN"
 "http://www.w3.org/TR/2001/REC-SVG-20010904/DTD/svg10.dtd">
<svg version="1.0" xmlns="http://www.w3.org/2000/svg"
 width="1280.000000pt" height="910.000000pt" viewBox="0 0 1280.000000 910.000000"
 preserveAspectRatio="xMidYMid meet">
<metadata>
Created by potrace 1.15, written by Peter Selinger 2001-2017
</metadata>
<g transform="translate(0.000000,910.000000) scale(0.100000,-0.100000)"
fill="#000000" stroke="none">
<path d="M3380 9094 c-184 -16 -291 -28 -397 -45 -705 -111 -1337 -388 -1850
-810 -182 -150 -408 -384 -544 -564 -560 -741 -731 -1678 -463 -2535 70 -223
167 -438 291 -645 33 -55 77 -140 98 -190 97 -235 256 -503 425 -715 107 -134
345 -373 477 -477 233 -185 414 -300 674 -428 410 -202 809 -316 1314 -377
147 -17 683 -17 830 0 389 47 620 102 1048 251 85 30 175 54 211 58 56 5 71 2
166 -37 58 -23 109 -45 113 -50 5 -4 26 -50 47 -101 20 -52 58 -136 84 -187
l47 -93 -122 -467 c-67 -257 -134 -514 -149 -572 -15 -58 -42 -159 -59 -225
-17 -66 -51 -198 -76 -294 -25 -95 -44 -177 -43 -182 2 -4 48 12 103 35 55 24
109 46 121 50 19 6 16 -10 -43 -231 -34 -131 -62 -243 -60 -249 1 -5 391 154
867 355 l865 366 80 0 c74 -1 100 -7 350 -92 504 -171 846 -228 1350 -227 301
0 463 14 715 60 1157 212 2117 914 2545 1861 83 183 161 429 191 598 4 22 26
94 50 162 283 802 193 1660 -252 2394 -316 523 -803 963 -1394 1259 -346 174
-744 302 -1123 364 -281 46 -357 51 -702 51 -363 -1 -513 -15 -815 -76 -394
-80 -806 -230 -1117 -407 l-73 -41 -10 42 c-123 477 -427 981 -827 1367 -591
573 -1356 921 -2253 1026 -119 14 -594 26 -690 18z"/>
</g>
</svg>
