<?xml version="1.0" encoding="utf-8"?>
<!-- Generator: Adobe Illustrator 25.0.1, SVG Export Plug-In . SVG Version: 6.00 Build 0)  -->
<svg version="1.1" id="Calque_1" xmlns="http://www.w3.org/2000/svg" xmlns:xlink="http://www.w3.org/1999/xlink" x="0px" y="0px"
	 viewBox="0 0 1280 1185" style="enable-background:new 0 0 1280 1185;" xml:space="preserve">
<style type="text/css">
	.st0{fill:#1161AA;}
</style>
<g transform="translate(0.000000,1185.000000) scale(0.100000,-0.100000)">
	<path class="st0" d="M7547,11779c-66-26-108-60-166-133c-106-133-135-209-151-393c-5-67-15-134-20-148c-20-53-14-89,51-294
		c25-79,32-93,75-141c60-66,64-87,47-235c-16-143-44-221-92-253c-41-29-125-51-214-57c-121-9-123-10-206-89c-91-86-143-115-266-145
		c-191-48-293-87-343-134c-26-24-109-161-171-283c-36-71-50-110-81-229c-4-16-18-66-30-110c-32-118-55-208-79-320
		c-12-55-26-118-31-140c-14-59-76-378-90-462c-6-40-15-75-20-78c-11-7-20,102-20,252c0,124-5,172-45,423c-8,52-22,140-31,195
		c-12,80-19,104-37,118c-58,46-232,156-316,200c-231,120-431,242-505,309c-46,40-116,170-116,214c0,34,25,174,50,279
		c11,44,24,148,30,230c6,83,20,193,30,245c43,220,45,244,26,293c-37,96-199,213-349,252c-171,44-259,28-450-84c-71-41-81-51-121-121
		c-43-75-59-112-91-223c-22-73-23-216-3-272c8-22,25-89,37-150c12-60,27-130,33-155c32-134,37-173,38-252c0-48-4-97-9-110
		c-4-13-17-49-27-82c-17-54-23-62-89-108c-146-103-286-180-344-188c-176-26-290-53-349-84c-16-8-63-51-104-95c-88-95-94-113-143-426
		c-8-49-28-146-45-215s-39-163-49-210c-11-47-27-105-36-130c-36-101-47-140-65-245c-23-130-25-237-6-308c7-29,21-88,31-132
		c29-136,46-208,62-270c32-125,128-426,171-540c11-27,30-77,42-109c21-54,22-71,17-190c-7-174-24-486-42-781c-19-297-19-389-2-402
		c6-5,46-22,87-37c118-43,120-45,120-124c0-37,7-179,15-317c19-321,33-610,45-905c9-207,13-246,37-330c24-85,27-110,25-235
		c-1-76-6-189-13-250c-14-135-22-1714-9-1830c4-44,14-117,21-163l12-82l-154-230c-150-224-155-231-209-256c-30-14-69-33-87-42
		c-73-36-69-133,6-171c49-25,71-29,204-41c100-9,135-7,258,11c79,11,146,22,151,25c4,3,17,37,29,77s25,76,29,80s45,17,91,28
		c116,28,251,69,267,81c9,8,12,59,12,191v181l41,62l40,62l-10,139c-27,362-32,510-22,634c6,68,18,201,26,294c8,94,22,249,30,345
		c11,124,15,264,13,480c-2,239,1,335,15,445c9,77,22,190,27,250c20,200,38,388,50,510c19,203,28,267,39,278c15,15,19,8,36-54
		c9-30,22-74,29-99c8-25,21-67,29-95c8-27,31-102,51-165c19-63,47-173,61-245c14-71,30-148,35-170c4-22,16-78,25-125s23-114,31-150
		c27-129,34-189,49-440c26-446,29-474,80-715c8-38,20-92,27-120c7-33,13-228,17-575l6-525l94-46c67-32,97-52,104-70
		c5-13,12-134,14-269c5-252,7-263,52-349c17-32,24-36,102-52c108-23,308-25,348-5c52,28,61,54,61,183c0,155-21,287-65,401
		c-19,51-35,99-35,106c0,8,27,34,60,57c38,27,63,52,67,68c6,24-1,154-26,501c-5,69-12,314-16,545c-3,231-11,461-16,510
		c-6,50-16,146-24,215s-22,184-32,255c-21,160-21,240,1,620c9,165,23,419,31,565c19,353,33,593,46,775c12,167,8,158,96,202
		c58,29,113,90,113,126c0,13-6,46-14,73c-41,139-56,264-71,589c-8,182-22,427-32,546l-16,216l45,89c49,96,82,173,178,414l61,155
		l9,150c5,83,10,163,10,180c0,60,19,7,35-100c38-265,93-407,223-578c58-77,442-478,510-533c29-24,77-51,107-60c30-10,56-22,58-28
		c7-17-9-104-34-196c-23-81-24-97-22-365c2-154,7-361,13-460s13-418,15-710c5-496,10-615,36-855c8-75,7-121-5-215
		c-18-142-29-176-89-275c-25-41-50-95-57-119c-14-52-15-342-1-432c5-35,12-116,16-179c8-147,38-327,82-483c12-41,25-65,45-80
		c87-66,95-76,101-121c9-61-8-105-41-112c-76-17-89-25-108-66c-16-35-18-66-17-233c0-163-2-197-16-218c-9-14-65-66-125-116
		c-227-191-236-202-296-370c-22-60-30-99-26-116c9-34,121-116,194-141c155-52,423,11,522,123c22,25,57,80,78,122l37,76h115
		c96,0,126,4,180,24c94,35,97,39,105,137c6,74,4,95-16,156c-20,64-21,75-9,122c7,28,26,78,42,111c74,153,86,264,41,361
		c-26,55-28,71-34,239c-3,99-12,200-19,225c-27,93-12,363,46,828c25,203,23,255-13,326c-46,90-52,166-22,276c12,41,27,100,34,130
		s17,73,23,95c11,41,25,99,62,260c37,159,48,208,65,285c9,41,23,102,30,135c8,33,28,121,45,195c45,201,84,344,112,415
		c36,92,81,185,90,185c5,0,10-6,12-12c5-17,25-232,36-388c10-127,21-230,45-420c8-58,21-170,30-250c21-194,31-265,50-330
		c24-85,35-218,34-420c-1-244-12-398-38-550c-18-101-24-196-33-495c-21-725-21-752-2-829c20-79,20-99,15-379c-4-162-2-200,10-212
		c8-8,68-31,134-51c180-54,264-112,299-205c24-65,72-127,118-150c46-24,203-49,297-48c59,0,132,13,274,50c29,8,53,21,59,32
		c14,26,2,140-19,181c-22,44-183,232-303,356c-57,58-121,131-143,164c-42,62-46,85-32,201c12,98,14,103,67,137c28,18,54,43,59,56
		c16,42,44,433,65,927c5,120,28,317,39,334c6,11,35,191,35,222c0,37-75,183-132,259l-39,52l1,278c0,254,3,290,25,407
		c14,70,34,175,45,233c30,159,50,260,61,310c31,142,34,1059,4,1185s-11,300,43,391c15,27,31,56,34,64s81,116,173,240
		c94,127,181,255,200,295c18,38,63,132,99,207s66,143,66,150s11,58,25,113s30,138,36,184c8,75,8,88-9,120c-26,48-41,122-47,229
		c-3,48-13,114-21,147c-28,107-43,168-64,260c-12,50-28,113-37,140c-8,28-21,73-29,100c-22,77-111,344-132,400
		c-57,147-106,267-134,325c-84,173-204,314-322,379c-39,21-98,53-131,72c-33,18-171,88-307,156c-238,119-288,152-288,191
		c0,24,78,170,135,252c117,167,132,255,151,845l6,170l-37,60c-46,76-66,97-141,151c-83,59-187,93-432,139
		C7655,11805,7606,11803,7547,11779z M8816,8073c3-10,17-42,31-71l26-54l-18-50c-15-42-17-68-12-161c6-101,9-113,33-138
		c14-15,37-30,49-33c34-9,38-36,15-99c-23-62-55-107-75-107c-21,0-28,37-27,135c2,81-2,98-31,165c-31,74-32,77-32,235
		c0,159,5,195,25,195C8806,8090,8813,8082,8816,8073z"/>
	<path class="st0" d="M10902,11015c-92-34-150-71-217-139c-101-102-146-205-170-391c-26-209-28-280-6-420c33-218,37-230,116-360
		c90-149,145-253,145-275s-7-27-183-154c-94-66-164-109-190-116c-329-81-414-127-473-256c-77-170-128-385-139-593
		c-5-112-12-137-70-276c-45-106-73-239-80-377c-3-45-9-236-13-423l-8-340l28-30l28-31v-144c-1-154-10-278-35-450
		c-9-58-22-157-30-220s-19-149-24-190c-6-41-11-101-11-133s-7-86-15-120c-39-165-45-203-45-304c0-158,34-318,99-469
		c80-186,85-211,91-438c4-172,8-210,20-217c8-4,44-16,80-28c36-11,79-25,95-31c17-6,83-28,148-49c64-21,126-45,135-52
		c20-15,27-51,107-504c8-46,16-191,19-340c7-291,28-632,50-805c19-144,35-232,101-535c7-33,20-95,29-138c9-44,18-82,21-87
		c2-4,9-51,15-103c9-81,8-120-9-254c-11-87-25-219-32-293c-6-74-15-142-20-151s-85-91-178-181c-174-167-207-205-260-300
		c-44-78-42-92,12-84c23,3,103,10,177,15c125,9,244,25,381,52c44,9,77,26,145,75c71,51,97,64,127,64c43,0,80-30,70-57
		c-12-35-44-108-58-135c-8-14-15-35-15-47c0-27,52-64,128-90l64-22l121,32c67,17,138,34,157,39c36,7,87,24,180,60c30,12,66,25,80,30
		c32,10,98,38,127,52c13,7,29,30,38,57c24,74,43,154,39,165c-4,12-32,328-44,511c-5,66-6,145-4,175c7,74,43,261,79,415
		c8,33,26,114,41,180s33,147,40,180c60,262,66,308,60,420c-9,153-53,523-76,640c-6,28-14,91-20,140c-14,137-37,294-50,350
		c-18,79-17,193,2,250c10,28,26,82,38,122c13,48,26,74,38,77c10,3,72,13,137,22c66,8,165,21,220,29c239,33,228,28,221,89
		c-9,72-37,287-51,401c-8,61-16,128-17,150l-3,40l90,46c50,26,108,62,130,81c38,34,40,38,39,92c-2,55-12,104-62,296
		c-58,225-97,461-87,530c3,25,13,88,20,140c35,246,46,312,65,405c25,123,47,253,60,365c9,75,15,92,51,144c48,68,49,43-10,323
		c-43,206-46,229-61,553c-18,367-54,555-170,885c-15,44-37,107-48,140c-42,125-96,241-125,273c-44,47-290,185-412,230
		c-16,6-77,18-134,27c-128,18-176,42-251,121c-76,82-98,146-106,309l-6,120l44,46c23,25,68,64,98,86c66,49,115,100,124,129
		c4,11-2,122-13,246c-19,224-20,225-60,312c-92,200-249,366-401,426C11108,11049,10986,11047,10902,11015z M10980,3450
		c7-36,30-128,52-205c83-289,101-391,113-630c3-71,12-179,20-240c25-201,28-293,10-375c-21-93-43-196-59-278c-10-48-21-71-46-98
		c-54-55-80-43-80,36c0,40-18,101-75,249l-36,93l15,212c9,116,21,264,27,329c6,72,8,197,4,325c-3,114-7,243-8,287
		c-2,92,11,358,20,395l6,25l12-30C10963,3528,10974,3485,10980,3450z"/>
	<path class="st0" d="M1370,10798c-76-22-158-101-257-248c-63-94-81-127-209-377c-124-243-104-206-208-384c-80-137-192-299-219-316
		c-6-4-27-9-47-13c-50-8-64-53-56-179l6-94l-83-86c-83-88-123-154-163-271c-27-78-27-323,0-430c75-300,210-703,311-925
		c101-223,148-290,266-381c34-26,59-53,59-63c0-41-130-329-182-405c-12-17-39-52-60-77c-21-26-38-56-38-68s34-56,85-110
		c47-50,85-95,85-101s-9-28-20-50s-20-54-20-72s-5-51-10-73c-19-79-50-480-50-644s17-540,42-956c18-288,17-841-1-920
		c-12-56-27-114-87-350c-43-168-69-559-81-1211c-6-306-4-348,12-416c18-76,17-77-4-111c-26-43-26-70,0-127c19-42,19-46,4-81
		c-15-31-15-47-6-107c23-151,10-226-83-455c-85-208-171-363-228-408C90,259,14,120,23,97c3-9,23-23,43-32c73-30,348-11,507,37
		c71,21,68,18,81,98c12,70,68,230,81,230c14,0,25-52,25-126c0-67,20-90,82-98c66-8,74,3,82,121c4,54,13,139,21,188
		c26,155,44,394,33,434c-5,20-33,72-61,115l-52,80l1,80c1,45,6,99,13,121c22,76,49,230,56,315c4,47,11,90,15,95
		c11,14,84,233,110,330c79,289,129,668,130,982c0,117,23,235,78,403c7,19,23,73,37,120c44,149,54,147,78-20c22-150,21-237-4-335
		c-34-133-36-160-44-436c-6-233-5-279,11-373c15-88,16-114,6-151c-16-61-15-118,4-208c12-61,15-134,12-379l-3-303l-29-60
		c-16-33-37-71-46-85c-33-48-68-115-78-152c-12-42-1-202,22-328c14-75,38-220,53-315l8-50l56-3c40-2,59,1,68,12c8,9,15,57,18,118
		c5,126,9,148,28,148c21,0,31-25,50-135c20-116,39-169,74-209c49-54,76-59,313-64l217-4l31,30c54,55,37,106-56,171
		c-27,19-77,65-110,102c-52,57-67,83-97,166c-80,222-96,333-79,531c7,75,19,168,27,207c9,38,22,104,31,145c8,41,21,104,29,140
		c7,36,21,124,29,195c9,72,21,171,27,220c13,108,34,301,54,486c8,74,18,146,24,160c23,61,33,217,20,316c-19,148-17,389,4,503
		c39,210,75,349,174,675c8,28,22,73,30,100c26,86,89,336,106,420c58,282,74,407,93,706c15,241,15,249-7,410c-12,90-23,205-25,256
		c-2,58-9,103-18,122c-31,59-21,99,40,171c51,60,124,195,230,427l25,53l-22,42c-52,103-216,302-298,362l-47,35l-92-9
		c-117-11-132-7-132,34c0,53,28,129,99,275c40,82,81,200,81,233c0,28-17,58-58,100l-35,37l26,40c15,22,27,45,27,51c0,5-21,52-47,103
		c-73,141-100,206-113,272c-7,33-16,78-21,100c-24,104-25,98,25,139c30,24,46,45,46,60c0,13-19,51-42,86c-70,104-68,98-61,185
		c3,44,12,89,19,100c10,16,11,44,4,130c-6,61-13,297-16,525c-6,453-10,484-66,600c-22,45-56,90-113,146c-102,103-207,158-342,180
		C1423,10812,1418,10812,1370,10798z"/>
</g>
</svg>
