<?xml version="1.0" encoding="utf-8"?>
<!-- Generator: Adobe Illustrator 25.0.1, SVG Export Plug-In . SVG Version: 6.00 Build 0)  -->
<svg version="1.1" id="Calque_1" xmlns="http://www.w3.org/2000/svg" xmlns:xlink="http://www.w3.org/1999/xlink" x="0px" y="0px"
	 viewBox="0 0 1280 1199" style="enable-background:new 0 0 1280 1199;" xml:space="preserve">
<style type="text/css">
	.st0{fill:#1161AA;}
</style>
<g transform="translate(0.000000,1199.000000) scale(0.100000,-0.100000)">
	<path class="st0" d="M6376,11948c-3-24-22-239-41-478c-74-919-116-1177-208-1277c-11-13-24-23-29-23s-43,33-86,73
		c-111,104-159,141-251,196c-337,203-835,262-1401,165c-265-45-502-109-1112-298c-307-96-472-142-658-186c-284-66-633-110-717-88
		c-40,10-46,9-68-12c-13-12-27-34-30-49c-5-23,35-468,50-558l6-33h174c96,0,175-2,175-5s-23-67-51-142c-63-170-483-1311-589-1598
		c-77-211-344-933-850-2305c-149-404-321-871-382-1038l-112-302H98c-61,0-98-4-98-10s22-43,49-83c191-283,548-560,1031-801
		c182-91,331-147,515-194c453-118,959-120,1440-7c542,128,927,369,1529,955l138,135l-117,5l-117,5l-115,310
		c-172,468-592,1606-951,2580c-257,698-583,1581-892,2418l-29,77h1871h1871l-7-192c-4-106-20-582-36-1058
		c-99-2894-116-3391-161-4670c-17-487-31-986-32-1110c-1-223-1-227,36-415c61-306,62-466,1-587c-71-141-306-345-589-513
		C4924,533,4034,233,3088,44c-19-4-28-12-28-25c0-19,53-19,3340-19s3340,0,3340,19c0,13-9,21-27,25C8712,244,7826,551,7299,881
		c-254,158-450,343-516,485c-25,53-28,73-31,184c-3,113,0,144,37,330c65,331,63,297,41,928c-11,312-33,965-50,1452s-39,1142-50,1455
		c-30,878-79,2301-103,3015l-22,645l1844,3c1014,1,1846,1,1847-1c2-1-92-259-207-572c-291-790-658-1786-979-2655
		c-149-404-384-1041-522-1415c-137-374-256-694-263-712l-14-32l-104-3l-104-3l68-95c192-267,446-475,871-714c170-95,269-141,431-200
		c371-134,788-189,1194-155c259,21,546,79,763,154c298,104,634,314,955,598c166,148,415,389,415,403c0,10-24,14-107,16l-108,3
		l-148,400c-81,220-262,711-401,1090c-258,698-590,1598-1048,2840c-138,374-279,757-313,850c-35,94-66,178-70,188c-7,16,6,17,178,17
		h186l5,33c16,97,56,540,50,561c-3,13-16,34-29,46c-22,20-28,22-66,12c-33-8-68-6-178,13c-295,51-478,96-1026,250
		c-657,185-898,244-1170,289c-283,47-437,59-700,53c-258-5-386-21-533-63c-204-59-330-134-499-296c-61-60-115-108-120-108
		c-14,0-48,40-67,77c-30,59-66,204-86,346c-30,215-47,400-105,1117c-21,266-23,280-45,280C6387,11990,6381,11979,6376,11948z
		 M2458,8790c118-320,358-973,892-2420c503-1363,772-2094,825-2237l53-143H2334c-1042,0-1894,1-1894,3c0,4-42-110,890,2417
		c149,404,383,1039,520,1410c225,611,462,1253,475,1289c3,8,7,12,9,10S2392,8969,2458,8790z M10597,8732c78-213,264-718,413-1122
		c448-1216,755-2047,1025-2780c140-382,267-723,280-758c14-34,25-67,25-72c0-7-650-10-1890-10c-1039,0-1890,3-1890,6
		c0,7,53,152,530,1444c149,404,383,1039,520,1410s371,1006,521,1410c149,404,281,763,292,798c12,34,24,62,27,62
		S10519,8945,10597,8732z"/>
</g>
</svg>
