<?xml version="1.0" encoding="utf-8"?>
<!-- Generator: Adobe Illustrator 25.0.1, SVG Export Plug-In . SVG Version: 6.00 Build 0)  -->
<svg version="1.1" id="Calque_1" xmlns="http://www.w3.org/2000/svg" xmlns:xlink="http://www.w3.org/1999/xlink" x="0px" y="0px"
	 viewBox="0 0 1280 1280" style="enable-background:new 0 0 1280 1280;" xml:space="preserve">
<style type="text/css">
	.st0{fill:#1161AA;}
</style>
<g transform="translate(0.000000,1280.000000) scale(0.100000,-0.100000)">
	<path class="st0" d="M6145,12794c-216-13-391-28-530-45c-995-122-1927-467-2760-1022c-907-604-1648-1433-2146-2402
		C314,8556,94,7776,19,6875c-17-193-17-757,0-950c75-901,295-1681,690-2450c610-1187,1579-2156,2766-2766C4244,314,5024,94,5925,19
		c193-17,757-17,950,0c901,75,1681,295,2450,690c1187,610,2156,1579,2766,2766c395,769,615,1549,690,2450c17,193,17,757,0,950
		c-75,901-295,1681-690,2450c-610,1187-1579,2156-2766,2766c-753,387-1531,610-2390,684C6771,12790,6269,12802,6145,12794z
		 M6884,12015c1310-112,2519-671,3464-1599c980-963,1561-2210,1673-3591c15-193,15-657,0-850c-110-1350-664-2567-1605-3523
		C9451,1471,8210,893,6825,779c-193-16-657-16-850,0c-1386,114-2628,692-3591,1672C1441,3412,891,4618,779,5975
		c-16,193-16,657,0,850c115,1388,693,2628,1672,3591c878,862,1988,1408,3189,1568C6056,12039,6472,12050,6884,12015z"/>
	<path class="st0" d="M5060,10738c-54-15-679-379-716-417c-83-84-102-207-50-309c54-105,1149-1998,1175-2032c58-73,186-116,276-91
		c46,12,662,365,715,409c68,57,105,179,81,267c-6,22-274,497-596,1055c-474,822-594,1023-631,1057C5246,10741,5150,10764,5060,10738
		z"/>
	<path class="st0" d="M3942,9867c-214-130-321-208-435-317c-334-319-423-636-366-1295c82-942,549-2201,1249-3365
		c657-1092,1446-1996,2175-2492c375-255,608-343,910-343c202,0,370,40,606,145c110,50,365,185,374,199c3,6-1137,1992-1198,2088
		c-6,10-17,8-47-7c-69-35-183-69-272-80c-327-40-714,148-1073,522c-444,462-796,1143-905,1753c-81,448-20,809,175,1038
		c33,39,144,132,166,139c8,3-217,401-590,1049c-332,574-606,1047-610,1051C4097,9957,4026,9918,3942,9867z"/>
	<path class="st0" d="M8220,5330c-55-7-46-3-413-214c-164-94-314-186-333-204c-72-69-102-185-72-273c17-50,1155-2026,1197-2078
		c71-90,212-117,326-62c86,41,614,347,655,380c56,45,90,120,90,202c0,37-5,81-12,96c-34,80-1175,2043-1206,2075
		C8391,5316,8311,5343,8220,5330z"/>
</g>
</svg>
